<mxfile host="app.diagrams.net" modified="2021-10-06T21:20:53.105Z" agent="5.0 (Windows NT 10.0; Win64; x64) AppleWebKit/537.36 (KHTML, like Gecko) Chrome/93.0.4577.82 Safari/537.36 OPR/79.0.4143.72" etag="5NbBcZNOKqnIHrDYVSKq" version="14.8.4" type="github">
  <diagram id="qHAtsX3mUdSM4kjk67JA" name="Page-1">
    <mxGraphModel dx="2209" dy="764" grid="1" gridSize="10" guides="1" tooltips="1" connect="1" arrows="1" fold="1" page="1" pageScale="1" pageWidth="827" pageHeight="1169" math="0" shadow="0">
      <root>
        <mxCell id="0" />
        <mxCell id="1" parent="0" />
        <mxCell id="-84zILdERDt2CcozFYza-2" value="" style="shape=image;verticalLabelPosition=bottom;labelBackgroundColor=#ffffff;verticalAlign=top;aspect=fixed;imageAspect=0;image=data:image/jpeg,/9j/4AAQSkZJRgABAQAAAQABAAD/2wBDAAYEBQYFBAYGBQYHBwYIChAKCgkJChQODwwQFxQYGBcUFhYaHSUfGhsjHBYWICwgIyYnKSopGR8tMC0oMCUoKSj/2wBDAQcHBwoIChMKChMoGhYaKCgoKCgoKCgoKCgoKCgoKCgoKCgoKCgoKCgoKCgoKCgoKCgoKCgoKCgoKCgoKCgoKCj/wAARCAJYAlgDASIAAhEBAxEB/8QAHwAAAQUBAQEBAQEAAAAAAAAAAAECAwQFBgcICQoL/8QAtRAAAgEDAwIEAwUFBAQAAAF9AQIDAAQRBRIhMUEGE1FhByJxFDKBkaEII0KxwRVS0fAkM2JyggkKFhcYGRolJicoKSo0NTY3ODk6Q0RFRkdISUpTVFVWV1hZWmNkZWZnaGlqc3R1dnd4eXqDhIWGh4iJipKTlJWWl5iZmqKjpKWmp6ipqrKztLW2t7i5usLDxMXGx8jJytLT1NXW19jZ2uHi4+Tl5ufo6erx8vP09fb3+Pn6/8QAHwEAAwEBAQEBAQEBAQAAAAAAAAECAwQFBgcICQoL/8QAtREAAgECBAQDBAcFBAQAAQJ3AAECAxEEBSExBhJBUQdhcRMiMoEIFEKRobHBCSMzUvAVYnLRChYkNOEl8RcYGRomJygpKjU2Nzg5OkNERUZHSElKU1RVVldYWVpjZGVmZ2hpanN0dXZ3eHl6goOEhYaHiImKkpOUlZaXmJmaoqOkpaanqKmqsrO0tba3uLm6wsPExcbHyMnK0tPU1dbX2Nna4uPk5ebn6Onq8vP09fb3+Pn6/9oADAMBAAIRAxEAPwD6pooooAKKKKACiiigAooooAKKKKACikpaACiikoAWikooAKKWigBBS0lLQAUUlLQAUUUUAFFFJQAtFFFABSGlooAKKKKACikpaACjmiigAoopKAFooooAKKKKACiikoAWikpaACiiigAoopKAFopKWgAo5oooAKKKKACk70tFAAaKKKACiikoAWikooAWiiigApKWkoAWiiigAooooAKKKKACiiigAooooAKKKKACiiigApKWigBKKKM0AFLSZooAMUYpaKAEoNFFAB2oopaAEopaSgBaKSloASjFLSUAGKKM0ZoAKMUZozQAYoxRmigAxS0maWgBKMUUUAGKMUZozQAtJRmjNABRijNGeaADFGKM0ZoAKKKKACjFGaM0AFLSZozQAtJRmjNAC0UlFAC0UmaM0AGKMUvNJQAYoxRmjNABijFLSZoAWkozRmgAoozRQAUtJmjNABQKO9AoAWiiigAooooAKKKKACiiigAooooAKKKKACiiigAooooAQ0YpaKAEopaKACiiigBDRS0UAJRS0UAFJS0UAIaBS0UAFJ3oYgDkgfWq815bQqWlniQDqWcCgCeiucvvHHhmxz9q1qxjI7GUZrnb74yeDrTI+3vMf+mKbqAPRaK8Zv8A4/6DCD9ksLu49MnZn9K53UP2h7k5+waLAnp50hb+WKAPomkr5R1H47+K7rPkCytP+uURP/oRNczqHxO8YXxPna3cBT2jVU/kKLMD7QlmiiGZZEQerMBWdd+IdHtFJudUs4wPWZa+H7rxBrN2c3Oq3smezTtj+dZ0kjyMTIzM3qTmgD7Svvij4OssiXW4GYfworE/yrm7/wCO/hK2BEQv7gjoUiXB/Nq+TATnrSkHJ54p2A+jNR/aKgQn+z9DeUdjLNs/kDXNah+0F4hlz9isLK3B6b8yf4V4xnik560AeiX/AMZPGd3nGpLb/wDXFNv+NUNP+KXjCxvRcrrE8x/ijm5VhXFAd6cFGetAH1t8JvinD4uX7HqSx22pAcBT8sn09K9Ur8/dM1G60m/hu7ORkkjYEFTyK+wPhL4/t/GGjokzKupRLiRc/f8A9oVIHoVFFLTAQUUtFACUUtHegBKKWigBMUUtFACCg0UtACUUUtABSUtFACUYpaKAEopaKAExRS0UAJRS0UAJRS0UAJigUtFABRRRQAUUUUAFFFFABRRRQAUUUUAFFFFABRRRQAUUUhoABS0lL3oAKKKKACiikzQAHrSEgDJIHvXgPxm+IniDSvEF1pWkzrbW8IUF0X5zlQev414ve+JtYvyTd6ndSE9cyH+lNK4H2tda3pVnn7VqVlBjr5k6r/M1z+o/ErwlYZE2tWzY/wCeJMn/AKDmvjiSeSQfvJXf/eYmounanYD6pvvjl4Tt8i3e6uSP7sLL/wChAVzt9+0FZjIsdGuGPbzXAH6Gvnkn1pD1osB7Nf8Ax+1yUEWmm2duOxLFj+Rrnb/4y+MroELfxwD0jiA/WvO+h5pMjtTsI6O98deKb7P2jXdQIPVROwH5ZrAu7q4vH3XU8kzersWP61H2pGwKLANIwOBTGYjjFOY8+tMPPJoGN/nQW7GjFBoATigmilxxxSEN68mk6/SndDRQAw+9Oo9KUDNAxlOp3SgigBuO/FFGDmlxjAosA3HWtXwvr954Y1iC/sJGR42BODwR3BrLNIeetID7h+H3i6z8X6HHeWzATKAJY88qf8K6mvhz4d+Mr7wbrsVzC5Nux2yITwwr7M8Ma9ZeItIg1DT5VeKRckZ5U9waQGxikpaSgBRSd6KKAFopKKAFopKWgAopDR2oAWikooAWjFFFACUtFFABRRRQAUUUUAFFFFABRRSUALRRRQAUUUUAFFFFABRRRQAUUUUAFFFFABRRRQAUUUUAFFFFABSUtFABSUZpaACmk06uS+JfiSTwt4XuL+3QPcEiOIHoGOeT+VAHgnxjxL4+1fOCCyf+gLXlV9C0EvtW7P4huda1e5udUk33UzZZjxnt/SmahbiaM4HzAVSAwN/FG49KRlKvtalxzTELn60uc0hwBSZoAXqadwDTAaN1ADyQDUTsM0rEdDUR60AOJpDTc80A0AKSOxoJ7im8A0pOKQxPWlH1xSA8e1FAhe9IKBwaQnFAC8dacDwcU3tSjjrQMOad2ptKKBWDBPNGOtG6jnNO40J2o96OpNGO1ICORcjB6V6B8HviBceD9ZWG5dn06YgSIegHqK4At+VMcZwe/akwP0D02+t9SsobuylWWCVQysp4Iq3Xyn8CPiY2hXkei6xIf7Plbahb/lmx/pX1RFIksavGwdGGQwPBFICSigUtACUUtFACYopaSgAoopaAEooooAKWkpaACiiigBKM0tJQAtJS0UAJS0UUAFJSmigAooooAKKKKACiiigAooooAKKKKACiiigAooooAKKKKACkpaKAEpaKKAEopaKACvMP2gT/AMUZCvrdL/6C1enV5d+0CceE7Yf9PK/+gtSYHyzrFq0TieLgg84rQ0u7F1Bg/fXgirlzEHQgjII5rm3Dabfb1OI2NaLURf1O3/jUfWs0HPTrXQB0nh3DkMKxLyEwzH0oEQ5xSnnBpmOfWlA5oGPFLimn6UvcmgAPNNKg9aUnI6UgzQMifg4pAeamKgmmOnHFJiGYOaQ05hwKaVNACYxQOnNGCRSdDjmgQ79aOo6UhoHFBQDpS89zzSA5FGM9M0AKDzjNKOvWgAdzS9OetAgPHUUppOvU0EDrQAgNIx4yKAKD9cUDGmmDmnHBpuPSgBpBDBlJDDkGvoz4C/E8OsWga3Ng9IJWP/jpr51570sMslvMs0LMkiHII7e9JgfoapBAIOR60teN/A34lx+IbKPSNUlUahCoVGb/AJaL/jXsg61IC0UUUwCkpaKAEpe9FFACUUtFACUUtFACUtFFABSUtFACUtJ3paACiiigApKWigApBS0lAC0UUUAFFFFABRRRQAUUUUAFFFFABRRRQAUUUUAFIaWigAooooAKKTNFABivLP2hY3bwlbNH/Dcrn/vlq9TzXnPx1XPgxGxwLlP/AEFqQHzcrCRMjv2rN1K1WWFlI5rTlTyJcj7pqOVQwyKpMDndLujBObaU8DpmtW7txLHxyexrL1e2OfNjyGHpV7RbwXMOx/vqMGqJMplMblSKacitPVLfrIBgissHtg0DHDNBIpvWjpSAXIpQeeKTjvR06U0ArHBoU5yDnFJ2o9aQMRgM8UnGKfj1owKYEZ4pMcA+1SECkxjrQFhoXIOaNoP1p1JjB4NIBhUj60YIpxBpNuTkmgNhvbFLnilIPak2nvRcYuRSZFO246UmKEA0n0pCQaOe1IemaVwExSNwOKQnNIOtAC9uvOKQ+9Ln0o/GmBNpt9caTfRXllI0csTBlZeor7F+EXxBt/GejqszqmpwqBKmfvf7Qr4zNafhTxDe+F9Ygv8ATpSrRsCRnhh6GpYz78pa5b4feL7LxhoUV7auomAAmizyjV1FAh1JRRQACg0UGgApaSigBaSlpOKAA0CiloAKKKKACkpaSgAFLSUtABSGlpKACgUcUtABRRRQAUUUUAFFFFABRRRQAUUUUAFFFFABRRRQAUUUUAFFFFABRRSZoAWuA+Nq7vBEn+zOh/Rq7+uI+MKb/A13/sspoA+aXQSIVPfpVEZRjG/UVpL6YqC7g3jeo+cUwMy4iDKc9DxXPTiTTr0SJ9zvXUfeB/WqGpWoljII+lNMViyjJdWyuuCpFYd9AYpNyj5TSaPdG0ufs0v3D0zW3fQCWM45B5oFc5wHJpxpJVMMhUjikJINBSHGjFJuNKD69aBWFp1MzxzSZ96Bjxk5o6CmKetKT3NADgKQj6YpmcfSjPHWgB2M5pMADmkJ9KTOfpQFxwFBAzSZNJk96TBknHFBxnOaYScUmfWgdx5IwMUhxg1GWxTGc/hQIe1MYgUwuc8GmgliRQwFPXApGOOlN5/GmnPFMY8NijNM54pcfnSAdmkIznuKUL6ikFMDqvhz4yvPB2vRXUDsYGOJY88MtfaHhfXrPxHo8GoafIHikHIB5U9wa+BCNwr0T4P/ABDuPBerrHcOW0yZgJUzwP8Aa+tS0B9oYoqrpl/banYxXlnKstvKu5WU5BFW6BCZooooAKWkFLQAUUUUAFFFFABSUtFABRRRQAlLRRQAUUUUAFFFFABRRRQAUUUUAFFFFABRRRQAUUUUAFFFFABRRRQAUUUUAFFFFABRRRQAneuR+KybvAupeyg/qK6+uY+JS7/A+rL3MQ/9CFAHy5nBpwPOCKCp7CkHv2oApXkPkv5i/caoHG9a1WjE0TRt36Vk8wyGOTqKYjC1m0yfMThxVvR743EJikPzrxV65iDqc9MVzc4fT7xZU+7/ABfSq3Eaup2u8FlHNZK5wQ3WukikW6tldOcjmsXUYPLk3IDikMqUvakBBGR+NAbmgaBj6Untilo96EAdM0ZyKCM80hoCwHpQexoJxik6nNAhw6UnFISKTd7UDHZGaMjnNMz+dN38+1ICUkYprHPSmBs0bue1IBCcUhyaM5pPpTAQik5U5BpSaTHFAIZyCD604DLDJo780h6dKYwHGead2pgApwHFFhC9c84pDxSE+tJ17UDHE02ZA8ZB7igHGeKM54oC57B8B/iY/hu9j0fWJWbTZWCqxP8Aqz2P0r6xgmjnhSWJw8bAEMOQRX52N1yDyORX0R8APiiFWLw7rs3fFtM56f7JpNCPpCimqQRkdKU0gFpDRS0AFFFFABRRSUALRRSUALSUUUALRSGgUAFLRSUAL3opO9FAC0UUUAFFFFABRRRQAUUUUAFFFFABRRRQAUUUUAFFFFABRRRQAUUUhoAKwfHSeZ4R1RfWE/zFbxrJ8Vpv8OaivrC1JgfKxjA7VEV61d254xzUU6Yz60wKhO01Dqdv59uJ48eZGOcdxU7DBNEL7GBPQ8EU0DMmB1lX+dUNStRLGwxn0rS1C3Npd74+YZOntTXAdOKewjmdIuTYXnkyE+W3r2rfvYFljyOQax9YtN6lkGGFWfD9+LiA28xHmJxz3pgjJnQwS4P3SaQ+o5rY1W03L06dMVzscjrcPFIMBfumlYaJZpCi5HPOKbNM0SjhZMjgg9Ke2DkNVchI3BJ2qO+M0IllmJt6huOevNScZqpHOrOBwF6cDvUpzTY0yQn8qQnJ61HyOtKenFIYpcjqKaZMCkPI5pCOwoGG49TRjceDQBjg0Z56e1AhQMfSlxjrTRgUM3vSsA4EEH3pM44pu6jPFMBSppDx1oyKQnmkACkHuKCaTPFUADmhuuKM/LSHrmkAnY5oyckClxnNNwQfmoGLg4pUAweRxTB17mjpQFg7896dE7wypJESsinII9ajJ5p6S7QQUVvrSuFj6r+A/wATl160j0TWZQNRhXETsf8AWr9fWvax1r877LUZ9PvIrq0cxTRsGV1OCCK+xfgx8R4PGekLBeOqavAuJEz98D+IUhHplBpM0tAC0UlLQAUlLRQAlFFFABilpKKAFopKWgApKKKAFpBS0UAFFFFABRRRQAUUUUAFFFFABRRRQAUUUUAFFFFABRRRQAlLRRQAUmaWigBM1Q11d+jXy+sL/wAq0KqaoN2nXQ9Ym/kaTA+VwMOfY024TdzU0gxM6+jEfrTpB8uKYMyJVwcVEeKtzLyaqMOcZpoVx0qC5gaGTgkfKfQ1jxhomaOT7y8VqZIPXnNN1a3EkK3MY+dR8wHcetNgZFxGGHTNc1fxPY3gniGADnjvXUBg6hh1qlf24kjYEZzQhFq2mjvrJZUI6YP1rA1W02OXUYqHT7p9NvTGxxE5wa37lFuItyjORTGcuh3fWpPLDfeANF1EYJcnO2hXDDI5pDK8hCErGF9+OlSxMT8jAkjuakGOeBzQGouKwdOtICKWmnoaQxOppCfalyM4pCR2pggPajGCcU4ngUhx1oCwmeaRuelKOaUg+tAEePzoxjvShvSmZoAUnsKKQ9KM8c0MApMDPtS5GKTvQUBxk0CgHmkyKAY5myMY6CkJyBnFN3fKaQHjmgAPXPFIOvWg+9JnrSAD1JzSdBS9SKaeOKLgB57Vo+GdfvfDWs29/p0zRSxMCMdCO4PtWaTTHG7sOP1pBY+8Php42svGugpd27Kt1GAs8OeVb/Cuxr4C+HPjO+8HeIIry0kOzIWSPPDr6GvuDwd4ksfFOh2+padKrpIvzKDyjdwaCTepKM0UALSZpaKAEopaKAEopaKAEopaKAEopaKACiikoAWiiigAooooAKKKKACiiigAooooAKKKKACiiigAoopM0ALRSGigBaKSjNAC1XvRmzuB6xsP0qcVHOMwSD1U/wAqTA+Wbsbb+4X0kYfrQDt5PPtU2pLt1e8XHSZ/5moX+7kdapCKk6gkkVQlXBrTcDGTVCcZPAxQBVPByBUm7AHdT2pjcUH7o54oAyLuP7LckAHy35X29qGUMuK0riEXMTI3U9DWVC5VmjkGHU4NAjH1my3oSo+YcijQL7cPs8xw68fWti4jDqeO1ctfwtbXAnj45qgNnVLTep2/hWAVMTkNxzXT6dcpfWoORuxgj3rL1ezIO5RyKBmeD12nijoKhjPBB4qQH3zSGPGT0NNPP4UhOCO1Ju5zRYA60fxYoBzS7h6UgFJ5xSH2ozzSc56UDYZOPekLk9aUjntTM9qYBn60hajP6Uh9xSuAob1o3e1MbimlsHmmCHkikDYPNNzTfxoAk3ZHFAOKZRntSAfkc0mQKYTQOnWjYBxxSHpxSZz07Up6d6LjE+lDDigHFGc0AMzSc4rpvBHhC/8AF+pta6eoREAaWZh8sY9/8K9r0X4KaBZqp1Ke5v5j94btkZP0HP60g0PmmSPcQVB3e1eofBnxfrXhDWI2FneTaZKQJo/KbBH94e9d9o/wlttB8aw6kZ45tNjYvHbypuJ4xgk8HGfSvUntY1jHlKioBwFAA/KmxaHc6VqFvqdjDd2j74ZF3KcYI+oq6K890nU30ictjdbMf3iDsP7wrvreZJ4UliYNGwyCO9IRLRSUUALRSUUALRSUUALRSUUAFLSUUALSUZoFAC0UUUAFFFFABRRRQAUUUUAFFFFABRRRQAUUUUAFJS0lABijFFGaACjFFFABSOMqR7UtBoA+XtfGzxBqA/6bv/M1PZwRTWb7h8/Y0zxYPL8S6kB2nb+dGkuTFIvccinETM11wxB6+9VJRkkVv6zAuxJoxjIwRWHIOuDzQ9BIoypjPFIRhBU8q8c1GwHlCgZBzmqGqwkgXEQyw4Ye1Xz6U1ucg8g9RRsBko4ZQTVK/txLGflyD1q3cx/ZZ9pP7tuVP9KXG4expgcvZTNpt8FOfLY4rp5UFxAWGCax9Yst6kjqORTvD9/z9mlPzdBmmBlalA1vLuA+Q1CCDzXS6rarKhwOv6Vy7K0MjRyfhRuNEg5PNL1/CouRTvpSGTRqHJGdvBPP0pme1NBIHsaAaQWHAigHB700e9L/ADoAU/MfekC46jtRj04xRmi4wJ70wnnAp+R6U04oAZjikIpxPPHSkzTENwM80nFOPsKaeKGAE0lIwpD7dqQBn1p31NRnNKMAYNAC9PxoJweKYTSA5+tAx4J70uaaOnNKD6UAfRn7OEaReFL+TA3y3hBPcgIvH869ak+XBFeL/Am8VfCU6wuDJFdMZF74KrzXr1nciYLnvQiZFqRPtEWzrxxntUFtEyQMs8oZs/KAOlWyCgG0U97dpcOiHJ4NXYi5QltcgEfnTdH1d/D14kF2T/Zc7YDE8QOen0U/z+ta8ds4GJMKKzdXtbWa3e3uHUiQbSvrSaKTud8hDKGUgg8gilxXlvgfxQ2ka3/wiuuXAZivmafcMf8AWRk42n3BBH0xXqQ96gYUYoooAKKKKADFGKKKACiiigAxRRRQAtFFFABRRRQAUUUUAFFFFABRRRQAUUUUAFFFFABSUtFACUUUUAGKMUtFACYopaSgD5o8bKE8Xamp/wCepP6VFo4JyQOat/ERNnjbUh0+cH/x0Vk2V01rJuUAjpzRETNvWIQunBtwyT0rlmIDYro78NNZbz9a5uQYfmqYkNdflPvUMqfuAB1FWtuR7CmMMp0pDM1hhsUxuKtTphulV2HNAFa7gF1bsh+91U+hrJtXbmOTh0OCK3Afas/VLbIFxCPnXh8dxTAguIt6HjmuY1KBrW4E8XBBrqkcSRqfaqWo24kjPA570JiuPsLlL62Vweo5HoayNasicso+daqWNw+l3pVv9Ux6V1E8a3MG6M5yMg0xo4uNsr70Z5qzqEJtrjfj92TzVZj82VHBpMoeDnvSqCxAUZJ6AUwcitvwdClz4o0yKUAo065Hrjn+lAHdeFvhBqOq2MN3qdwthFKAypt3SFT0PtWz4k+Cq2+kvNoV1cXN3GRmOYrhx3AwBg17lhGUFQMAcAdqcgLEZ6e9CFc8e+HHw4sbbSpG8SafFcagZOA0jYVe3AIro9U8C+HL21kt30qGLIwskRKsh9Rz/OuwawuWvN1uEwOXzgEj+tSTWhOSOT7UNDTPkPxZoM/h3W7jTrglthyj/wB9exrHZQAD619HfFrwg2u6I1xbR5v7QF0IHLL1K184shViGGCOMH1pFMjbjpTeT1pzZHI5prdfegkT8aTPHTNGPWjBxxQMaaQ9KdzSY/WgBpHHWgAfjTiB2pNpoAbtJz6U0gA+mKc0ZJIJI9qY0KAAls/jQAm8Dqacrc8daQJH1Ayaeu3BwvNFhXOg8FeJbnwvrcd5FmSBsLPF2df8a+nNE1GC9tba+sJPNtZ1Do3sfX3r5Sg2mPG0c+teh/CnxbHoV2dP1KUppc5yHOSIn7H2BPX60LQTPpu0n3RA8ZPTPNbS6fM8I2zEFh14rz248VaLp2n7/wC1bN5SuVWKUO35DNcn4o+Ntvpai1W724QFn+83T0HNMk9uGlwIqm4mJI7s1ZPikaZDpkjq6faUwUweSc4r5lvfjQ94zmza/uNv3ckKo+uTWLqPxVvbpDDdW8luzjZ56MDtJ75qXJFKLNz45308HivSp7eVo5IrQMpQ4IO9u9d38OP2gIzDb2Pi6HDABPtsfQ+7L/Wvm7WjqE0vm3N9Jcylf9Y8m4kfU1n2N6silHH70dDQNn6S2F5Bf2kVzaSrLBKoZHU5BFWa+SfgJ8VH8OXcWh63MzaRM2IpGOfIY/0NfWUUiSxrJGwZGAZWByCD3oESUUUtACYopaQ0AFGKM0tACYoFLSUALRRRQAUUUUAFFFFABRRRQAUUUUAFFFFABRRRQAUlLRQAgpe9FFABSUtFACUUtJQB87/FBNvjnUfcof8AxwVzDjArsvixHt8aXLY+8qnP4CuQkA7804gXI9QP2FrdlznkGqNxAywrL1BNNHHQ1qxQi40xYx69aZOxk5yuKjYbRUxjKEhh+dROPlNAyB13dqqSoVNXu3WoJ03DpSAo09fQjIPGPagrzSE8CgZj3MIs7vbz5Lnch9PallAZcdq0ruFLu2aJjhhyjehrJhc8xSLiRTgigRi6xZeZGcD5u1O8MahhzaTn5v4Sf5VryxBgQRXL6tbPbXAuIeCDk09wOg1mzEiFscGuUKNFKYn6dVNdlpF4mp2PzY8wcMKxNbsDllHyt/CaAMrad3Wui8BlU8W6W8hwvnck9OhxXPQybl2sMODzVu1aRJEaMsrKwZSPUUNFI+xtPuCUCvwRxWtHGNufXtXmvgLxKut6DDcOcXcH7qdR13Dv+Iwa9I06dZYkPB/rQtNwsWzHvTcAQw9qZFC+cbWI9xWtDFOwyViXI4GKf9lcgeZcFT/sgf1FPmJsYM9kTnK8e9fM/wAavBkmh6sdTs4v+JddsdxUcRv6fQ/0r6o1u1gj0q6kknbesbMrF8cgZ7V5J8XbhT8N9S8whiVTGeedw5/nU3RpFNo+Yxw4BJxSpuXkAH61B5rn/Go5JHP8ZxQtRFnCnOTg0dFySMfWqO49yaXg465PrTsFywWVerDNN81M85P0quzBXA6k+9Pm/dyA4IU84I6UWFclMylcBOe3OKiMrt2APakclJMng9RnH8qYzlnJJ680BckaWSRiWYkmowaQHaeDwabkqw9Ow9aAJA9ODEVBJKsYyx/KrOmol7dRxvMsMbHmR+i8Z5oEXLVsp1p8kjoMDlTWbJdRWtw6o+9Acbx0NX45FmjDKQVNFhEx1KaOJkjO3dwTjJ/A1zviGS/v5oPtW1vJj8tGC4JXJPPqea3fJ8yWJE5ZmH4Ac/0qW6jR33YyNxI3dcUm7DONhs7hCGUlcHtWvqI1C7tkW4mLIOVTGBmtR4kQ5IU+wodvO8uMYGD16frUtXKTsji2eUBgXYbTjGaYhdHDKcMORV++tGN5MiDcwY8jvUQ0+4xnYd3oadxWNSwvPOUZOHx0r6X/AGevis0LQ+GvEU/7onbaXDn7v+wTXyulrdQOJEjbI7Yrd0+4ZtrAFZFPbqDTWoH6RhgehzS14R8AfikNYt4vDviCb/iYxriCZz/rlA6H3r3dfuikIWkNBoFABRS0UAJQKWkoAWiiigAooooAKKKKACiiigAooooAKKKKACiiigApKWkoAM0UYooAKKKKADNFLSGgDwz4vx7fFm7+9Eprh5ByK9C+MkePEsB9YAf1NcA/BGaaEyFxxUlhctDOAWwp6018YNVW+/kVQkbd7F9ohDoFygySO9Y5+6c1qWMm5Nvbbg1W1CEQyMFHynBpMEZzjaQaa3NSSYxUWeaQytOhHSq5q9IA2R3qlKpGRTAYpOetVdZtyUS9hHK8SAenrVn6VJA4VGRxlG4IpIZkQuJAGXkVX1K2EsbcZBHSpZ4Tp14Uz+4k+aM/0qzgFfamxHFWVw+j6mOvlHg+4rrr1EvLZXjweMg1j69p4kjZl6jkVF4YvnLfY5fvfw5/lTauBS1uBLaePaf3hXLioLaZyQOv4Vd1y3Z3aVid+eRWZavg7geQelF7Ia1Z3fgHXJ9E1tJmVzaSkJOoHUev4V9N6NNGLHzlmjaLG4OrAqfQ5r5c0e6SaADAyo5ro9P1G5tgvlSkKBgAk4xXDPEuLsz6fCZLHEU1KEj3/UPFFtpuJtQvhHIwyIkAz/jXI6h8UbON28lXk5zl2ryTVHubm4aS4lkZj0LGqH2bceSx7Vy1MVNvQ+nwXC2GjHmqu7PWZfiZ9st5hJbq8O0qR6ZHUVy/i/xZHrmhtpxgiS3kAJJchuK5KO32nocUXCW6/vLpm8sf8s1H3j25rL6xUW501OH8KneCOK1ayEE7+RlkAzx2rKclua6W6QSF9q7VJyBnoKwrqAoxJP4V24XEc2jPlM8yd4Z+0gtCo3y8k4H1qW3gkvJlhgAeRuACwUfmarTweaVGTwafbssL/K+DnOTniu9HyY2ZBDK0UmA6/KcEHn0yKRyT1OfxpJwgkwkZJI605UAiRT9/kt7Dt/WmxIZg4pSeAKUqQeOlJtGOec9KBig4pfypmcNz0o3dcCgCQokm3zRuUHJANRRBopSUAweOafnOOcYpAeTzSAWe23OGG3HB6g1LCRBGqLwB60xQ2ehNASRudp/GnqGhoRTKcHOGFOdyzhiQV9QadY6DqN8kz2yQ7YYzI++QLgDHPv1qi1rdIoLxuqnkHHB+hocQui6SgAyRUMjxpyrZx2xUPlMy8sBQYogQHk/WkkwuL58Qy3l5J/CkW8x92Jc/nQXtlPrjpUb3Uan5I6ahcXMTPdyuo2de+1cU1fMJBwSfeoTetj5UANMa4lYdQKrlDmNO2nltpo7pZmhliYPG6HlWHIIP4V9rfA7xg/jPwHbXl1IHvYGME7Yxlh3/ABr4TaSVhhicV9Z/siLt8Jat/wBfCn9DUyVgTue90ZoFGKgYZozRRQAUUYooAWiiigAooooAKKKKACiiigAooooAKKKKACiiigApM0tJQAZozRRQAZozRijFABmijFFAHj3xpX/idWTesH/sxrziYc16d8a1/wBP09vWMj9TXmL5zTQELkY96gxlulWHAHSo8c0xE9u5Vhg/WtaeL7TZysCp6YNYy8Crdjc7A0RHDEGmhGZKNuVYcioDn0q5qDZuXI6ZqoTk0hjSPWq068HAq0cVFKPypAUGHtSDOPap5VwOKiXJU0wC4tlvbUwtjf1Rj2NZFnK3zQzArKhwR7itpeNtZuuQMGW+gHzLgSAdx60AMuIxIhBxyKwYLJo9dtZEXI8wBq34ZVlRWB4Ip9vCv2xJD2oApalbBw7YB5rk7u3NvcfL9013joCG71havZ5yO3UUXGY+nXj2k4fqo6j1ru7CaKeNJMgocE1wKxb9ydJF7DvWnod8bSbyJjiNvXsa5sRRUldHvZNmLw8+ST0Z3FxP5rZC/KDwT3quAC3pk5pv2iPyvndRgZHNVH1C0Tlp4wB/tA15/smfcxzKlFXci87EnB7VR1lC8EYRSfm7VXufENjHnbIzH0ArPm8VxAfJbs2P71P6tKRjPPcPT1uDWk/3vLaqOpafKyE+U2fXFOl8WznIjgjT9apXHiDUJhgSFQf7i4rSGDmndHl47iKhWg4NXMmRSjFWHIphUEY4IqS4aaeTfIGLHuTVV22SbGOR6CvTimlZnw1WUXJuOxKzd2IzUe70P41IrxY/1ead52PuRgCr5TLmGcFcBWZ/alWCZslYjj3pzTS4wvH0qNnlYcyN+dPlE5Ev2OTGXdEHpml+zwD/AFk//fIqrg9SaTgA07C5iyxs4zwrOfc08XkariK3UfUVUG3607zAOMU7IL3J5LqZsbVVfoKhPnO2d5pjS9aTzTxknHfFArk8TSKWG9umOtXtR1zUZtNtbCSfdbQg+WuxQRk+uMn8azUlG1venXOSU9AKEMqyGQsRuNCj1OalIJHNMKkDOOKCAHOQB0pMZPNSAYXjqaaw5oQwAx71IuD2pgBxUgBAouNAoJ7V9afslDHhLVT/ANPC/wAjXyapxmvrT9ks58I6p/18L/I1Ey0j3UUZooxWYwzRmjFGKADNAoxRQAtFFFABRRRQAUUUUAFFFFABRRRQAUUUUAFFFFABRRSUAFLSZooAWikooAWikNFAHlfxrXDac/sRXlcgyeetetfG0f6Jpzf7TD+VeRkjrTQmMkyF6cVEhJNb0Qtxo770zIx4NYhUoxBGPrTsJMKVSQxIPIoPNGPvUwIpSXJJ5NVW4b2q11zUMkLsTsBOOeKBkYOPpTW5GKMcc8U4DI60hFWTv6VEg+VqsuvBqKIcMe2aaGRjgDNLuHIIBB4IPeiTp7VGfagDDljOnXxTObeQ5Q/0rRTJIPbHWpL+AXls0Zxu6qR1BrN0qcl2gl/1iHaQaQI1DtwNuenOaqXESyowPXtVkDGetMAG6iwzjtXQWr+bzkHketVBc+YNywde5rR8YxnyQUHOadYeJkg8KSaSdMtXnD71umHzj1FWo3J5rGSss7kgbuOnzdKFhmb7xAJqjLeSlvlfH0AFNE0pOSSTQoRvsX7ab6ml9mUf6yUAU1ltEPzSbvpWYzOTk8596Yqknk5quVEObNXzrRfurmo5L1U4SOqyIuanEakdqNibkM17MykBAtVolLSoz9S2KuOoGarzfK8OB/FQFiZ2RDjFRs47DAqJgS5DYye2aknRmkwiHA4GKQxplzjFRtLhalFpKwGI2B7046e3V2VfqaCWVd579KbkkdyauG3gTiScEj0p3+iR9NzGmBQUtup4jkY+o9hVk3Maf6uBfxNAvJD9xVUfSgNCJbWV+gOPepVsG43Oqn3NNa4lbjcfwqI7mPzMaANewFrEixXkoNrvDv5a/O2M8D86qXcsM1zK1srLBuOxWOSF7c1SxnJAp6eppgKxxUec0r9/60qpg9BzSGO25UEUhXpmpVT5QKfsBIyRQNkaIcDFSbeRmnqB0GKekeT0oArsmc4r61/ZNTb4N1I+tyP5GvlVo/QV9afstW8sXgW5kkjZI5Z8oSPvcc4qJ7DTPaRS00UtZlC0UlFAC0lGaKAFooooAKKKKACiiigAooooAKKKKACiiigAooooAKKKSgBaKSigAoxRRQAUdqKKAPN/jWoOkWLHoJG/kK8c6N7dOK9o+NSbvD1u3pLXin1NNCZt6QPOTYRkK2cGq/iLm9IWMJgdB3qvaXL28gZDgZ5rQuWV9Rie4w0bgVoSYQ6YJpc4J57Vd1W3SC7YRA+U3INZ5PzGpAb2HNbvhFFfVCrLuBRgR6jFYgxjrzWr4Zm+z6qjn0P8qaQSZR8Q6ZJp1+wKkROSUJ9KzcY5Fd74g/07S5klXdOsw8nA9ulcM6NG5jcYYHBB7UNCTIZBkZFRwrw9SsvJHamxfKWFIoqyqQKhORV6Vcr0qo64NAEZ4OaztWgI230A/eIPnx3Hr+FaGKcvcNyD2oAq2kq3EIkX8ad/HyKoEf2bfFAMW0v3D6H0rRPJyOlAI53xWuY1x3rkJwEfkV2Pij7qD0rkboYce9VETIDwSTSow5HtTWPJ9KapJ69aoVyfdgcEUqLzk1GM45xT/wCGmMcMk9anA+Wq68kY61NnFCACOppmUV1Y9uRSsxxzUbdO1KwEklygJZIQT6mmC9nPAwv0qIg00ijYkmaaUjBlb86rShi3XP41LjPQ0jqTTGyIR+tOAHQjrUgTsaBH1xRoJIiCgnpTgODgYqURMQMDNSLauxI6DtmkFiqQB1pANze1XBbhMiR0Uj3zSeXHtyCzY64FBRDsAHNMA7AGrQXIOF47ZNKqNjog/DNFwK4jBwMc9xUixAsBwufU4qbY3J3t9OlHlICPlpASfY1UjfPH+DA/yppW3VcBmdh/dU0uAOnFGB2oAYMZ+VD/AMCNPQuCMbQKXAx70n40AgJkOQXwTxkcV96/DSyi0/wLotvAgREt14Hqa+C1yXGOtfoR4Yi8nw9p0fpbp/KokNGoKWkpagoSlopKADFFLSUALRRRQAUUUUAFFFFABRRRQAUUUUAFFFFABRRRQAUmKWkzQAUtJmloAKTFLRQAlFLigUAcJ8Ylz4VDekgrwkV9B/E+ylvvCVykC7nQh8Drgda+ehxRHcTJWPGfSpreR5JYlOTg1AD6dqlt5dkoYVa3JbNLxDMhaKOMAYHNYoIyc1sX1v5ktuyOGD1HrNokBjZV2kjmm0JGTwTmlMjRurpwRzSjtVqxEZulWbHltwc+9MbN211JXtracENJ5y5B7cGqPiXTAiPfRuGLyEMv92qsYGm6oYJ+YGYHP8jXVxRWkdpNPd/Ml3KEC9fbNBN7HnWd3WmKPmOa0NasjpuqTW2corYU9iKolecipKEYZFVZ156Vazg1HMueaAKOMA0q+ppZRhqaDzzQA27tlu4Ghc4J5RvRuxqhpczt5kM4xLHwR61qA8571Q1qBht1C3zvj4kA7j1/z60DMXxSeVFchdcPxXVeIJRNDE4Iwa5e5BLgAdauImVWzjmgDBFTNFjAJpFTb3piQgBPanoPlI609AO/ehiqdwPxoGJGuO2Pen4z0pEkUkbn2g99pP8AKrKNAJMYmkA5yowD+dFwK5Q4PWo2X2zV25+cloIkSMHjcwJqvtkx95cH0FFwIdnOcZpMcnNWAnB3u5/GlCR7AAgz6k0AVtoUc4/CpltnKhgpOelPGAOAB+FSeYemTikKwkdqerbBnj5moWBcZZwOf4eaTcfU/nS5JNAx22IKdvmFif73FIShHKL+JJpvHpSdTyMUWEh6hccBR+FNJpRSNRYYcd6OM8UUe1ACHikBpTkmgUwA+1FIaUEDtQAUcUeppAMj0pAWLBTJewJjlnUfma/QvS02aZZr6QoP0Ffn/wCHEEviHTIwPvXMS/8Ajwr9BbMbbWFfRFH6VnIpE1LSZozUjFpMUZpaACikzS0AFFFFABRRRQAUUUUAFFFFABRRRQAUUUUAFFFFABSUtIaACilpDQAUUUtACUCigUANkQOjKwBUjBFfPPxF8PnQ9dkWJSLWY74j6A9q+iCa5b4gaAuvaFJHGB9qhHmRHvkdvxoWgmfPAwKvaR5X26MT8oeuapSI0bsjghlOCPekBIPBwexq0JnQ6pZmy1CMJ/qi2UPaptZ/e2beYuWTHIqL7d/aOkJEw/0iDkHvgVLOBLpbNv3SY5FUScwg5xVqwSOS8RZeEJxVVPvHNTwoXmVQ23nr6UDZp31oLqKVZGxcwjIJ/iFWvD+oC6tFsrgB2jcMM0xw8sfmgq0sIww7stVNVjFpPBf2f+qcAsB2NCINvxBZ/wBr6aTAgNwsjMD6jPSuCAKOyNkEHGDXp3hh45bMSRuOvyg9snpXEeKlVdduNsXlEnLL2z7UNFRMZwcdKQc9akcAg+9QjPc80DIZU+aq7jFXX6+tV5VBHrUjIlOaliIGUblWGDUSj5uBSnI6UBY4rxNby2N8bdFDQn5kPoD60zUfD15aiJyYZA8SynyyxKAjo3y9fpmtXxqM3Fux7oKybnVrxYBB58mwoo4Y5AFWthGb9kZyT5qKAOuOpqAxrj5i7H8qnMpDllOc8c96jJGaAIljUN0GPfmpMKVxgZz1pc0DH40ALuK5APbHSk56556daQ5IzR9aADtRxgUduaSgAPWko/nSn3oAO1Opn1ozxQA4HtS5HGaT6UCkADrwTQP1oPFAqgF60hGRxS5GaO9ACc9qWikyaAEHWl7cUuMdRijPOKAEIpeMcmkz70meKQDsjr2oZgefWm5GMUEjFAWNzwNF5vjTQkHO6+gH/kRa/QGMYRR6AV8G/CqL7R8Q9AQ9BeRt+TA/0r70HSs5FIKKKWpGJRRS0AJQKWkFAC0UUUAFFFFABRRRQAUUUUAFFFFABRRRQAUUUUAFIaWigBKKKXFACUUtJQAZopcUUAJSHmlo7UAeGfFrw8dN1YX1un+i3JycDhXrgM8GvpzxPpEWt6NcWcoBLLlD6N2NfNeoWstjezWs67ZImKMPemiWNtZzby7gSBjBHrVuLUBFDMmzJfoazcc0OPWruIcMlverVsuZlDd6poTmrcJzKuaEDNWB2tLhCwLADjP8S96tyxxMWtd3+jXI3RY7H0NRbfNtQmAJF+ZGz+lOs/8ASIjbgAEnMbH+E9xVIkpaFc/2bqv2W5PyK+OveofFUDjWmG/zS4BQg84q3qdqt1ZmWNSt9ESZFx196o5+1rFOcmaMhHHt2NJjTMZsglT94HBqMr371r6raAAzx4Azgr3+tZZAxUjID15pMZGO9S7RSAYPegCo6bWpjjcKtyJkVXlXFAzmfGgO629k/qa5m8OCn+7XUeNF5tT/ANM/6muYvOGi/wB2qiIrY4yaOetOA7mkHensAmcUD60uKKLANyaUdKOh4paAEHSgcfnRml7UAIRzSHrmlOce9A+lACYxzR0pxHHIpMUIAyCT2pccCk6inADrQA0gelGMGnHHpSZORxQAqozfdDH6CkKAZycGnvK7ADOB6Co8UAL2Hak78UcCgYJ5oAc3Cnmmj68UN6UcCmAho6UneikwEbOetHegk0Dp70gR33wNi8/4naIg/wCepb8lJ/pX3GK+LP2covO+LGkgjhVmb8omr7TFRIpBRRS4qRiZozS0lABmlFGKQUALRRRQAUUUUAFFFFABRRRQAUUUUAFFFFABRRRQAUlLSUAFFFGKADNB6UYo7UAGaM0YoxQAUUUUAFeSfGXw6AV1m1Tr8s4H6H/PpXreKq6lZRahYzWtwoaKVSrA0AfLHGMjtQ/IrR8TaVLoWtT2M+Tsb5GI+8vY1RcYX3q1qS0RIRmrMJxIpNU0OW5q1CfnX600Jm4qqqKQTg8rz39KWUxpKksTFPMOSP7rDvU1siNAIxgo/IyfutTJBC90iSrkFdr+x9aohk8826dL8LtULsmX36ZrEunWx1pjFgwk8jqCK0oWMcvlz/Mu8LJk8MM8GsrWrB7K+6Hy35U+1JjRp+Us0cwwCZcBT6L1H8yPwrnb61a1mKkgqeVYdxWlptyxxH1ljO6PP8qbLCLqNiHAMMKkL6njIoHYxe/PFKvHvQRjINOUccUDEYArVScdeKukcH2qCYZU96kDkfG3S1H+x/U1zF4CPJ9dtdR44GDa/wC5/U1y15/yyJ/u1SAgIzSE0pPrSA07AIuc0ZzTgec0mKYkIfQClOR1FPDJ3QECmkgklRgelIYiilyOKTtR2GaADPNBOKO3FBGeuKEAZNIaXFByKAAUEjHFA6cilH0oASkyc0pyWpCaYCgce9GcGj8aQ0gDrSjijGAMUGmA0HmkbrmnEc0mMUgE70E+1LijHc0ANpD14p+KaAe/egEeufswx+Z8T7d/7kEp/wDHCK+xa+Sv2VIt/j+6k/uWrH8+K+tRWUtykGaM0UUhhS0lLQAd6QUtAoAKKKKACiiigAooooAKKKKACiiigAooooAKKKKACiikoAWikooAWkoooAWikooAKKKMUAFLSUUAec/F/wAOnUdK/tK1TNzajLYHLJ3/ACrxWNjswetfVkiLJGySAMjAgg9wa+dPiBoL6B4gljCn7NL88R9u4pp2EzmtuDk1PD99fTPNQBsmp4jhhnpVok3oAojLquFPHXoaI4875ZCCc7XH8jRp8RMTOTlC2GHpU80atbSLGPnT7w/vL61RI2SLdEzD55oThhj76d8VHIftlt9kkyzAFon/AKU5X+z2khDncgyMn7yntTEHkPFtHyt88TfzFFgOcJaGU9VdW/lW/pjQzS+a+1VmGHHbd/8AXqDxLDE/l3dsAEkGGHow61mWFwIpDHJkxSDa3t6EfQ80kUTeILQ217IQoCluAOgrOjrqHaO5sfslwBujIYyH0PeubkjMM7xnB2ng+o9aGJMa/oKrzDCkVZbmoZ/u0Ducd45xi1/3f6muXu/+WWf7tdX45X5LTB/h/rXK3p4iB7LQgKxIx1zTTgdqMdcUoAqgDtQPSgCjmkAv06UmOeKX60AUABpKU4HWk69OlAABxz1oalPpRQgE7CgmlHSg49aACj60oOaQ80AIeSaD1OOlKevtSH9KAE+po96XFGM0AA5pO3NLSGmApHpScc+tHbmj8KAEJyaCcDmg/Sk560ALnNIaUrRjFIEj3n9kiHPirV5fS0x/4+K+phXzP+yPFjUNbl9Igv6g19MCsnuWgpaSikAtFJS0AFIKWkFAC0UUUAFFFFABRRRQAUUUUAFFFFABRRRQAUUUUAFFFJQAtFJRQAtFJRQAtFJRQAtHekooAWikooAWuR+I/h5de0CQIo+1QfvIj/Mf59K62kIzwelAHyXtKOyMMMpwQeuamjPIPpXbfFjw3/ZWs/b7dcWt0dx44Vu4riY+QMdKuLuI6KzJMO9Dt4AI9RViOPyz1y45x6qaytKuQpMTnAqxfXE9hPCw+aPHBPp6VdyRboJcxvAu4YJMZ7H2pmkTLNC9jcHaw+eNz2I7Vbt9s8TMuAT8yH+lZmsvGl9FNb5ViMlcdDSJLdtFHc3SxTEBXJVlP8L+v48Vg6lZvY3TwyL908fSrk92bmWWReG2g8eoq/eRrq+kC4iBN3CBvHqKCijp0wuEVHYho8ZA/jTPI/CruvQfaLdJo0UbDtAXuueK5uCZobgOowymussL35I4wivbzY28cqc8j8Ov40XuJo5rGB9KrXP3a3fEFp9mvH2R+XGx4GeB9KxZx8uamw9zkPG4/d2v+7/WuSuwQIv92uu8cf6q2Psf51yl9wkH+7VAypig0vbnrSZxVAHaj6Uo60UABoGeaTrxS9KAENGe1KexoIzQAn40UHrSZ70AKP0oI60meKTJPekA/IzSE0nfNFCAKKQCjGAaAAntSqabgZ5pTQAduaSjpQOtAAKdScYpKAHUnuDSDrS9T7UAIOvWjAIAo4oUe9DA+l/2R4sWeuy/9NFX9M19EV4L+yVFt8NazJj71yo/8dr3qsXuWgFBoooAKWkooAWgUUCgAooooAKKKKACiiigAooooAKKKKACiiigAooooAKSlooASijNLmgBKKKM0AGKKM0ZoAKMUZozQAtJS0UAJijFGaWgDG8V6NFrmiz2coGWXKE/wt2NfN9xay2V5Pa3C7ZYmKsp9RX1Qa8j+MXh7y5k1m2j4YhZsevY01oJnl4LI4I6g1uMRfaYUzlgMgD1rF6rzVjTLgwTgA4BNWiS3pcziBrRxiTqp7g03VbRjEl0vB+64PY0uqI6ut6g2tu+bHrUsDteW7tkbWYb8np6UwMWAcTc9FNTaHf/AGO7VnyY2GGHqKPJMM8yEdVJHvWeRhj6UAaXiC2jju/PtcfZ5eVx/KoNKuNrGCQ7UcjDf3W9avWBF/YvasMzpzEPXJFY88bQXDRvw6EqaANzV5ZJbRTOf3iybWX0wMYrDlHy+9aMt8J7BI3X98GyW9QBxVCXgdM5oYI5Dxwv7m247H+dcjecxwcfw12Hjof6NbHPr/OuPvP9XB/u00DK34U0jnpTuc0DNMNwBOaSnUnFIA7Ug4pcGkp3AQc0Zpe1HakAmBk0Y4oNL2ouA3HSkPB5p3GaQ4pXAO1HSjrij60wE5zigmlpODQAnWlHfNAHPFO780ANPSj8KXApaYDf0oA9aCMnNLSAKQmk5zS/zoAD0paTtSE0hn1n+yrFt8C3b4+/cE/zr2yvIv2Y4/L+GcL4+/PIfyY167msnuNBS0maM0DCjFLRQAUUmaUUAFFFFABRRRQAUUUUAFFFFABRRRQAUUUUAFFFFABSUtFACUUtGaAEooooAKKXNJmgAopaKAEpaKKAEpRRmkzQAGqmqWMOo2E9rcKDHKpU1bpDQB8z+INLl0fVp7KYH5G4PqO1ZLEhvSvbPiv4d+3aeNSt1zcW/DgD7y//AFq8Uf5umc1UWSzasJPtlqYJD7E/1rOcvYSzwHJDjFRWkzW86P26H3FTanue4EhyQw4NWxD2uhcJGoXDRxlc+tZjDPTNWLTiZx3waixjOeTSuMS1me2nSWM4dTnNbfiJY7yztr6AKHZSJFH97JrA6H61q6HepbzNHKFMUgwcjoaZLMyPnFOk+7T5YzDcPGedhxmmv0IxUjOQ8df8e1rx2Ncfef6uD/drsfHf/HtbA9s1x15zFBjptq0BWpuKU+1IQc+mKAA0najGaM9hQAH8aMYpO9KeKADNL7GkHNHSgA+lL2pO9HQZFABzSUuc0nrQAoFJt4o9qXqB2FADcAClo6UZ/KgAJpQR3pBz9KTPpQAduaU9OpoPSkByOlAC0h60Hr0o4xQAg6+9LjBoPBoNAB3zRigetA9c0XBH2h+znF5Xwq0zPVnlb82NenVwPwLi8n4X6IB/FHv/AD5rvqxLCilooASlopM0AGKBS5pBQAtFFFABRRRQAUUUUAFFFFABRRRQAUUUUAFFFFABSUtFACUUUtACUUUUAFFLRQAlFLRQAlFLRQAlFKKBQAlBpaKAIpolmheOQZRwVI9Qa+dvHehPoOuzQgFbeQ74iOmD2/Cvo3sa5L4j+HxrehO0S5u4AXjPr6ihAfP2eRVuA/aITAfvr8yH19qg24YqQQ3TB7U1SY5VYEgjmrRAlrHi7JJOQCMUwjJbJxV9ow8iXEX3X+8PQ1QAyfc07BchHINL39qU/K2Pek9R6mmMkDFny5OT1pzgkccCok4OKkf5qTGjkPHI/wBFt/qa4+8ysFvj+6a7HxzgWsH1Ncfef8e9v9KaJZT9s0cjv0oIpOnB6mmAucUh6ZoNH8NACEdqRuKVvY0HPWgA/hozxR2zSkcUAJx1NB9qMc84pTwaAE6dBRS/yphHNADqQ9OKOlGcCgVhOppcjGAfrSZ9BS+9AxAOOKXHPNA5FFAB2oxR2ooAT+dKRzRniigAxSE0uOfakNABnigHpxTc05Bl1HqaQH3b8IYfJ+GnhwY5NlE35qK7Gud+HcXk+BNAj6bbKIf+OCujFZFiUUtHegBKKWigBKBS96BQAUUUUAFFFFABRRRQAUUUUAFFFFABRRRQAUUUUAFJS0UAJRmlooASjNLSUAFFFFABRRRQAUUUc0AFFHNGKACiil70AJSY4I7U6kxQB4V8U/D39k6wby3TFrdMTgdAe4rinw2D6V9I+KtGj13Rp7OUDcRlD6MOlfOd9ayWV1LbzqVeNiCDTixMit7p7feoUMD2Paq6H880snX60xTg1oKwSA7jimt1FSOfWo2GTUgKp+epG4GQetRj9KeTkADpQByfjfJtYif7xrjrvmCD6V2XjdcWUR7bjXHXY/cW+PQ1SEVT0phx+NO7UhxTAOfSmng+1O+po/WgBv4UoHvR2xRjFMBO1KMkdqTvTj78UmA36jijFKRxgmkAzTAOR9KQml/CkIpAKMYo9aOaQ8d6ADvRRk96O1ABR7YoFGPWgA6DnmkOSOBS9vejJPGaAEHSl7UAUc0AFGMjmlwDTSetMBCAAaktRm4iA/vAfrUVW9NTfqFsncyL/OpbA/QDwzF5Ph7TYiMFLdF/ICtWobNPLtIkH8KgVPWRYlFHNHNABRRzRzQAUCloFABRRRQAUUUUAFFFFABRRRQAUUUUAFFFFABRRRQAUUUlABRRRQAUUUUABoo/Cj8KACij8KKAClpKPwoAKKWkoAKO9FFAC0UlFACV5L8YPD3lldXtk+VjtlAHfsa9bqpqlnFqFhNazqGSRSMGgD5cPJzioTw341seItLl0bV7i0mUjY3yn1Hashx3q0SOaojndTye9NOOOKAExinjgCg8jPSgYA4GfegDl/G4/wCJdFx/Ga4294tbb1wa7Pxtk6bGM8Bya4u7P+i230NVERUJ/KkGaXPFIeo96oAOSPag5zwaD1xxS0AFNzzR06Cl46GgBOO9HcUdqQDikAvek6dKTPvTu1ACE8Unelz2o4NMBOoNJjFOzgigkZpAN704cdKO3rSDrQAp6ZpuKdjHagUAJ0o6UvXrzSH2oAO+KCPejigigBDxSGlakPWgABrU8NRedr9hH3aZf51l4ro/h9F5/jTRo/71yg/Wk9ho++wMDAp1IOtFZFC0UgpaAEpaSloAKQUYoFAC0UUUAFFFFABRRRQAUUUUAFFFFABRRRQAUUUUAFFFFACUopKWgAopKKAFoopKAFopKKADNLSUcUALRRSUALRScUUALRRSUALSUuKTigDzz4t+Hft+mDULdP39uPmwOq14kRz0x/SvqyeNZo2SQZRhgg96+evH2gnQtbljRT9nky8R9vSnFiZyjZ5z0pM96eeVqMccZqhD16UoxjvTY8H1oJwcUAjmvG/OmR5/v1xN0c20A+tdv42GNMTg/friLgj7LDn3qkIqN0FH60oIx0pB707A0BGKTBp1NB49KYC9TxSYyT0o6kUuCc47UANNAPPeg5FLQAnvmgcDrQfpRQAcAcCkOaU9sCk+tACjikOc/jR25pep60AIKBRjnmgUCsKaQcA80HmikMUjNJ1oB44oyT7UAGKToaUnFN5J9qAA85zSfSnHNNOM80IBTXYfCKLz/iR4eQ/8/afzrjq9A+BUPm/FDRB12zB/ypPYEj7gpRSUVkWLRSUUALRSUUALQKMUgoAWiiigAooooAKKKKACiiigAooooAKKKKACiiigApM0tJigApaSigAooooAM0tJRigBaQ0UGgAooooAWiikoAKDRQaADNLSUZoAXvSUd6KADrXJ/ETw+uu6FII1zdQgvH6nHausoPNID5RdTGzowwV4I9KrgYzkV6H8VPD39l6sbu3TFrc5PA4VvSvP5F6HPWtFqiWNQ4PpSkZbIpo+9zTx29KAOd8cZGlL15euEnObWIema73xx/yCF9N/FcBN/wAesWPxqoiZX5oNL0xSd+aoANJSnGaO1ACUqnHQ80c460lAAQRkUmPTpTmOaTHFACHryaM0Hp70D3oAXj1ptLj6UmKSAPwozzRRxQAvrSUp60meKEAgpe9HSg0AJmjv7UAHHNKaLgITig0nel5yDQACkPU8U7vSGgBPrXp37OkPm/FDT++1Gb8hXmS8ivXf2YYt/wATI2I4S3kP6VMho+wc0opKKzKClpKM0AFLSUZoAWkFLQKACiiigAooooAKKKKACiiigAooooAKKKKACiiigAoopKAClpKBQAUtJR2oAOKUUnWigANFFFABS0lGaAFpKXNJmgAoxRRQAUtJRQAtJiijNABRRS0AY3inSI9b0a4tJFG4jKH0btXzdfWj2l5NbTqVkiYq2fWvqntXkfxh8OBHXWLZSFb5ZgB39f8APpTTEzyU9CaePvAUMBkc8ULzgfjVsVjA8dYOkLxzvrgJsfZo+vWvQfHP/IJX/frz6Yj7NFx3NOImVx7UnWlHXikxk1QBxijoKMdu1HagBM0DrS46Y60mTk5oAM9qOKMcUHpSsAnHelwNuT1oPPajtQAY/Om45o79KXpQAD86Q4o6Hik69aAFyKQYzQRzQaADqaXvSdqWgAzQaM/lRnuMUgClxmgDHPal49aAGnHajFKfY0gHOKYDcc17Z+yrEW8c3MmPuWx/WvFhXv37Jlq7a5rFzsPlpCi7u2STxUzGj6epaTvRmsygopaKACiikzQAtIKXNIKAFooooAKKKKACiiigAooooAKKKKACiiigAooooAKSlpKACiiloASiiloASiilFACUUtHegBKKKKACilooASlNIaBQAUtFFACUUtJQAUppKWgBKqapYw6lYTWtwu6OVSpBq5SGgD5g8TaRNousT2UvWNsKexXsay14cYr2/wCLfhw6hpY1G2TNzbj58Dll714ivDjNWmSYfjgf8Sbjn95/QV55Mf8ARo8epr0bxt/yBic/x15vKf8AR09c1SBkI4PHSj15pO/tRnFUICcij+GlpOegoAFPOfShmJJOBS0hB/ChAJ1FGfWgjpRjNABSGnY+tJ3xzSAB6mkPtTgOaXbSAjGe9J9Kkxz70bDnIFMBgHWkwR3qTaewNKIycnHSgBmKMHvUnlsSOOtSi2bq7Kv40CRW2mjHNaNtp0tyMW8NxO3pFEWro9H+HHivVSDZ6HclG/ikwgH1zSuM4zHtShCSOOK9p0f4AeKLvab6exs4z1G8s4/DGP1rt9J/Zz0uLa2qaxc3PqkUQj/XJpOSHY+YDGR3H50+3tpZ5QkEbyueyKSa+0dJ+DngzTdpGmfaWH8Vw27/AArsdP0DSdOQJZafawqOyxilzBY+JdH+H/inVsCz0G+wejSxGMH8WwK+r/g14Obwb4QhtbtFXUJmMtxgg4Y8AZHXgCu9RVUYUAD0FO4qW7jQUUtJSGFFApaAEopaKAEpRRRQAUUUUAFFFFABRRRQAUUUUAFFFFABRRRQAUUUUAFJS0UAJSmijvQAlFLSUAFAopRQAlFLRQAlFLSYoAWkpaKAEoFLRQAlFLRQAUlKKSgAFKKSlFABSUtJQAySNZI2RwGVgQQe9fO3xA8PvoOuyIikW0p3xH29K+jK5X4heHl17QnRFH2qH95Ef5ihAfMHjIA6Ax5PzCvNpR+4T616V41V49GkibIZHwRjoa82kGYE+taohlegDPSnYIoAqgGkcUDpT8A9KTHFADce9KRjjNA60uOckHH0oAYRTh1p2xs9KURnkmlcBppOfStGw0q/v2C2NldXLHoIYmf+QrsNH+E/jLVQDBo0sKnvORFj8GIouh2PPtpPTinAdM9K900r9nfW59ralqNpbDuqks36cV2ek/s86Bb4bUb66u27gfIPzFS5BY+XAcNhQM1ctLS8vHWK3tpZnPQJGcmvszSPhT4N0zHlaJbTMP4rhfNP5muvsdPs7CPy7K2ht4/7saBR+lLnCx8W6R8L/GGpkNBotxGjdGmXYPzrtNJ/Z98RXPN/e2lmD1A/eH9DX1SFxRUuTHY8K0n9nfSIyrarqt5cMP4YtqKf0zXb6P8ACTwbpm0x6NFLIP45nZifwziu+xR0ouFjPsdG02wAFlYWkGOnlxKv8hV/FLRmkMMUmKdRQAmKMUtFACUUtFACUUveigBKXvRR3oASilooASilooAKKKKACiiigAooooAKKKKACiiigAooooAKKKKACkpaKAEpe9JS0AJRS0lABRS0UAJRmlpDQAUZoFLQAUgpaSgAoNFBoABS0lFAAKKKKAAUtIKDQAUUUtABTSM+9OpKAPnX9obwy2nRSalaITaXJy4A+4/+ea+fJkAt1wcmvv7WdLtNZ06ax1GFZraZdro3f/Cvn7xN8AL1Lh28PX0clux+WO44Zfx71cZWJZ897SeMGgxtnPQV7/pX7O+oSYbU9YhhHdIo9x/PNdppHwC8MWhDX017fN3WRwq/+OgH9abmhWZ8nCPJx39q07HQtRvSFtNPu5iemyIkfnX2ppPw+8KaUFFnodmCO8imT/0ImujtrW3tV220EUK+kaBR+lLnHY+NtJ+EXjLUgu3STboejzuFH6ZNdro/7O2rT7Tq+q2tsO4gUyEfnivpylqeYdjxnSf2fvDVrg391e3jD0IjB/Dmuz0n4aeEtKANto1uXH8cg3E12VFK4ytbWFpaqBb20MQHQIgFWaWigBKKWigBBRS0UAJRS0lAAKDRS0AJRRRQAZpaKKACiiigBKKWigBO9GaWigBKKWigBKWiigBKBS0goAWiiigAooooAKKKKACiiigAooooAKKKKACiiigAoopKACjNFGKACiiigAzR2pcUlABRRxQaAFoopKAFFFJRQAUCiloAKKKSgBaSlooAQUppKXvQAmaM0UcUALSUtJigAFLSYpcUAJmiiigBaTNLSUALRSUtABRRRQAUUYooAKKKKACikFFAC0UYooAKKKKACkpaSgBe9JS96TigBaKTilxQAUlLSUAGaO9Lik4oAKWkpaAEozRiigAoFHeloAKKKKACiiigAooooAKKKKACiiigAooooAKKKKACkoooAWiiigBKKKKAF70lFFABRRRQAtJRRQAtJRRQAUtFFABSUUUALSUUUAFL3oooAKSiigBaSiigApe9FFABRRRQAUUUUAFFFFABRRRQAUUUUAFFFFABRRRQAUlFFAC0UUUAFFFFABSUUUAFLRRQAUlFFAC0lFFABS0UUAFJ2oooAO9LRRQAUUUUAFFFFABRRRQAUUUUAf/Z;" vertex="1" parent="1">
          <mxGeometry x="-470" y="160" width="180" height="180" as="geometry" />
        </mxCell>
        <mxCell id="-84zILdERDt2CcozFYza-1" value="" style="shape=image;imageAspect=0;aspect=fixed;verticalLabelPosition=bottom;verticalAlign=top;image=data:image/jpeg,/9j/4AAQSkZJRgABAQEASABIAAD/4R72RXhpZgAATU0AKgAAAAgAAQESAAMAAAABAAYAAAAAABoABgEDAAMAAAABAAYAAAEaAAUAAAABAAAAaAEbAAUAAAABAAAAcAEoAAMAAAABAAIAAAIBAAQAAAABAAAAeAICAAQAAAABAAAedQAAAAAAAABIAAAAAQAAAEgAAAAB/9j/2wBDAAgGBgcGBQgHBwcJCQgKDBQNDAsLDBkSEw8UHRofHh0aHBwgJC4nICIsIxwcKDcpLDAxNDQ0Hyc5PTgyPC4zNDL/2wBDAQkJCQwLDBgNDRgyIRwhMjIyMjIyMjIyMjIyMjIyMjIyMjIyMjIyMjIyMjIyMjIyMjIyMjIyMjIyMjIyMjIyMjL/wAARCAB4AKADASEAAhEBAxEB/8QAHwAAAQUBAQEBAQEAAAAAAAAAAAECAwQFBgcICQoL/8QAtRAAAgEDAwIEAwUFBAQAAAF9AQIDAAQRBRIhMUEGE1FhByJxFDKBkaEII0KxwRVS0fAkM2JyggkKFhcYGRolJicoKSo0NTY3ODk6Q0RFRkdISUpTVFVWV1hZWmNkZWZnaGlqc3R1dnd4eXqDhIWGh4iJipKTlJWWl5iZmqKjpKWmp6ipqrKztLW2t7i5usLDxMXGx8jJytLT1NXW19jZ2uHi4+Tl5ufo6erx8vP09fb3+Pn6/8QAHwEAAwEBAQEBAQEBAQAAAAAAAAECAwQFBgcICQoL/8QAtREAAgECBAQDBAcFBAQAAQJ3AAECAxEEBSExBhJBUQdhcRMiMoEIFEKRobHBCSMzUvAVYnLRChYkNOEl8RcYGRomJygpKjU2Nzg5OkNERUZHSElKU1RVVldYWVpjZGVmZ2hpanN0dXZ3eHl6goOEhYaHiImKkpOUlZaXmJmaoqOkpaanqKmqsrO0tba3uLm6wsPExcbHyMnK0tPU1dbX2Nna4uPk5ebn6Onq8vP09fb3+Pn6/9oADAMBAAIRAxEAPwDS+LzMPFluASB9kXv/ALTV5/vYfxH865pbs+Xxbft5epNZwyXt0kCyhC5+8xOBULkrIyhicEjNSYO/Le46OOaUOYkd9i7m2gnAHc+1WodOvZpzCFKOE8z52wMYB/kR+dJXHGM5bFbTJEfV4YrrcYSxDZfaMc45ogUvLArXCxiZmHztwoHfNM3VNSjo9f8Ahiza+Rm0YyKWk371d+Fx0/zzRCYZxZI86RrIJGZg3IAzjP5e9JjVHS1/60GwrDItrm5CGVXZ8v8Ad25wOnU496dALXNrumyZYneQF/ukZx/L3oEqPd/1oLDBC5g33DAPEztzyCM4HTvinxW0JEeZWJa3aVgD0IzgdKEyI0k+v9aCiC3/AHeZm5tjI3zfxc4HT6UgSJVUq4JNsXbJ6Nn+dFyvZruKWgXbnaP9Dyen3vX69PemeVb7eJH4thIfn/j9OnT2/WlcTgnuPijgXzgx3Ztt6/P0bj/OPwr6E8KHPhHRz62cX/oIrai9T0csilN27fqeU/FwhfGNszKGAtEJUjOfmbiuEeWM25jWFFYvuDY5A9KmW7ObE1IKc4ta3LWgxiTWIEYZU5yPwPuP51Vn8pNWeKdnSPziHZBuZVzzgE8n8amxyxinBX7nplvBZW+gazHpIjk02TTmlSccv5mxlKt+Wce9VYo4BoIa7aCeF5EU2swwf9THlkccoR3J49cVeh6zVNJJbW/A47wzAgu5ZGYvJsPyDggZXnOf0qcTT/bdNje3uJVeSbcBcH5xzt/i7e+OlZX8xYSN6aajfX9UVbW5umOmg2ly2/zg2bg/vCM4HLdvfFFhcXMjabusrqbekpfNwR5hHQ9eMe/rRd9zoS/ufj6f18ws7m6I07dZXT74pC3+kH94eMHk/wA/Xilsbq73WJ+yXMu+2kJ/0gjzDxz1/wDr/Nx0FO/mCT09x/f6C2t3ekWW+0uXDWbOT9pI8w/Lhuvv9fnHHAot7+9AtiYLp91izH/SfvNxhvve/wBfm6dKPmCjb7H9aBFeXpEX+jXLZsN5/wBJxluPm69fbr83SkS+vdikwXJ/4l+8n7T/ABcfP16+3XnpSv5hb+5+Iv2i/cNmzuz/AMS8SD/ST1/v9f8A69Et1fESH7LcqRYCT/j46H+/16/rxRddxtNr4H95dsJrh5mD20//AB6IwUz5yefm69eO3Pyn1r3Xwr/yKWkf9ekX/oIrWjuyqK/eP3bHk/xf/wCRtg/680/9CavP/LeQMFZVKqWOT2Hp70pfEeHiVfEyXmaNpZX2lSx6k8kRijQzfLJgkADjlT/e7ZqjcQMES+LIVumZlCkkr0POee/fmh7G9TDShRv/AFqSWep3dikyW87xpPGY5VB4dSMHIrRtfFktnpl9ZTW0U32i3MInPEiDGBz3AwP0pI56FaUZJPVFXw9eQrO8CvKt5OQkUqH5VXksCO+cCmJf6jJNbtEsLOXZYPlAOe+PQ/zpNHVCpUhBKBYtJ5wti5IOfMwqRBSgHXHpnmmwS3R+x7XiTeJNmIf9WBnP54NIftqnR/1oFvNdN9lw8UQZJCn7kfu1HX8Dz+VT2ckwNqzGJhJBIVQRYKAZ447HFARq1NPe/rQbCblxakSQJvt5GUCMfIq5+XnscUxZblljO6NB9mZgfKX5VH8P0/ziiwlWq6e9/WnmJHLciSICRArWpb/UoNq/3evT/OKsJMdmWUAC0JOEXgdh0+77UEvEVU9xsV3IZiAMJ/ZxJyifgP8Ad6ce9PPm4z58f/HmHYeQvA/uH26fn0ptalTxFRaJkkL3MZlYXChhaCT5YR07L06YNe8eFP8AkUdH/wCvOL/0EVpR3OrAznKb5nfT9Tyf4vn/AIq6D/rzT/0Jq4BBuZo9isXRgC38PBOf0qX8R51f/en6lzVdWMt3cWbyBJopc/KhXdkcgYA/XFdLoNjFdrNdXep2VpKJF2RPFuAG1WGPmGOtOx6U6TlXcb9iLS1t7nUL20uNWs7RbdtkTPFgTLkjcAWA7D8/c553X7QvrlxHayLexbVYSwr8rgYyQMnp357Uuhz1aElTUvPsZ9lav5++KRkKAtv3EYwD6etK88kflqGmVkJ2BWPy56/Sp1Zx807Jp2NCz025ktIrk6ktuocqgeQgrnqR/X61FpNld3l/aRGWdYiWCMjlQBgk4PQZwao3UZPlad7md513CyqJZUMWVUAkbAeoHPHep7O4uIbuARklgPLVZDlQG4OPTrSM4zd0rmzFY/8AFPTakt63m28xtlhTnC/LnnPAO49sfnTLuyNv4fsL6O7kaWbdEYQMeWu5ht698Zx70GnsJJXu9r/jYyYZrh54o0lfcU8pRv7HHy/SpHuJ1RwZnGEMeN5+76fT2qWcknK6ZJYrezWkkyvIUjiIYlz9wdvp7dKu2ep26xwRSQStMQqMxlyGTcePpjAxVKLbO6hh6k+aTV16lSGS4ujJJHM+1IctljymcY/lX0j4T/5FDR/+vOL/ANBFXS3NMtTVSV+36nlPxaRZPGdsjyrEptFy7AkD5m9Oa8/hhaaUBWKMBkMM8flUSvzM5cRH9+2nrf8AyOin0aOO9vLs/aJCImeVnXJkdcAAg8d85HcVlQaPBrFslxdXNnZtGqxrG8Y3OF5D8uuc9O+cVSZ6zn7KqpT89yva6Fb3N5dxtq0NuIZeHjCKJeTyMkDHHTJ61YWzhtdQvLWKaK5VbVmMw2hCx2ngDIB7cd+47F7mdbEqpTt5g0psrKayWGB/3qnzTHh+xxnPtjHuavx+ZqOtw3n9lWYh8tFkwhjiAznJOcZwSPoKSfQ4VV5rUuX+lcd4wt4EtoRFaLAy3EpYKuDsP3T/ALvYfSnzT2VrpccEFzYu0DAKZHDBxtbJwFz/ABHv1FM6moQqSasrWscfcZNxI25WJYksvQ+4rc03UDPaWtuU2iCVJXIUbCg4JJ65yfpipOahJKeq3MHWZbq10xMSFRPPLICpI3j5cEe3NP8ACN5c3F4IpJSyBt3znPT6/wCea0t7p6zX7qxq22lmO/jmEjpBHGsqy5/iIAHQHjfU39iCK8u3aNpbS3Z0eQsfvBM4/PHaoZ5ksPLl0XX8CYW8dxo4ismhnXYwcyzBDGSAeB/31+lRQ6BPGzzcKkHMrYOBtVWPPT+IfrVRdjsoT5I26dDX0LTWukndoYJPLmxJIjghl2g7R+Jz9a9y8K4/4RLSMdPskX/oIp09x4SCjaSW6f5nkvxfIHi6DOP+PNOv+81cXbvZrays5H2rawj3swTkYH3efWofxHl1OVYuTntc3NKmtJrAyX13tkdSSY2cI2Mbh8xyTnFYuo3djBPBNYNI8sXyKsg+UJjvx1yTQdNadJq6bb8yu+v3Mk4meGFmHQYIA6c8Y/u/qaveGfLjvbieSUII49x4ByN3PWg5lUvNXNeNlvpru4017ie+EijIijVAhPXBxzjNX5I3SJoLO2vzCTuUs0agkE7gwB6D5cYxjJ609NzujGMk5wTd/wCmZ2tzG/up7VbwWqIFyrDAcMW5wMDGO/vWN/YFr8yrqUAy4Ck9hj/6/wClFglhpV3zp6CHQrZlwupwDcxwT2Az/wDWq1osdtPNpkUVzKZ1OyaIIRtXcT16cHFRN8sW0EMKqdSKk9/8xmu6FDJbaluV3S0u8JtYLgOF9j7D8abFotp4c0+2urkSFLhiCUILoBux6cnFOnNygm+p11ZqnKVPt/nYimuJINV0s2guPs8xVPMckgAnkADPIBzzn6V0Nunn+HtXtvNKGW4kQysMZ4A3HgfyH4VFaDklbuh0JQiua+6f5FbS7eSyuJXeTckqRLsVBxknJyQegHP1rAl1S+tZZ1FykyCRgxkUNuzgH8worVvqcGJm4JWfc6vStH1e/wBH3yMtnHInmRiFV/eBgPf5ei/nXtXhuCS18M6ZbyjEkVrGjD3CgGrprU6sLRlB80nujyrWvibbaiv2mGwEaxON29onY7e20sDg5HQVy2keMLUrdLZwP+8nkumeWFVUZxlcgnH5Hr0pO71OuUFfm7FKzvNUWWZ4Y5FhkkZt0cJdQCckrxyMfpSyeHby51MrLNFulG5W3Be3GR2qDxFRq1G15kFx4buLW0NzLPB5YX+F+c5x+WSK0zZxWU10JljZmtspsTKjHBPb0PPv70WG8LKHxGxYsskklszy2nkMhUrIWVh2H1x7elVWumgsrqcrIBD5sf72IOzk4IbPI4yPr+NNHcnyUlddzjvEp3PZvvjLNEGYooGTnvjvWZc2wiljVWPzAZz2NanVT+BELqUYrknFdb9ubS5bG5gFs+2Jd0YTlvy+pqZq6McTJxhzLdFub7PJrV3d3ca+XGwOxGJ3HIxg9x/9atK9vtEu9SVg0Tx8iOOSAqqnnG5scjrWUVY46E4y5pVd2/1LMWmvBpO6LYYpHE7FVwjBuCi47YA9OtWbyyt7O0uobW3ltQICzKIwAxOf5YPfv71S2OqNNRivQzL/AMSy2Ny1h5sszEuhLWoYHcAAM7h19R0rnNXktrhBJISf9HOFA+65JwOAOlD3ObFvlqR5tmek2bl7G0FtOsqBV875slWCjivVdO/5B1v/ANcx/KtIHqI+WbK6hs9M1D7Vamf7QhER2p8hyCTzz0OOKm0/UtNvNNaCyjFvMtvJ5qjkuflwcHgYGelS9mVJ6G7o0kR0O3kVYJDDE4b5nU58tRwBgHk85681g6nCbS0sirFJgXRyPlbg9yP8aUdzjptSnFrsZ9uzzXcEckztGzhWRmLA1sxwhbnVo42VVEDAKowByO2MUSJxaXusXVp21nRbGWeMRMLi4YqhPLJHEF6+wxXQMIbm8gil3Ks8fmPtjznKgdSD8vTPp+lLobXU6Kb6nJeL0CXdsqqgURkLtPbJrFeMxSxK2c9wTxWqehpFaEU+fNau1t932u1+aONmtdquq7jnb0wT/SlLYxrtJK/cNfuF1i3tbi2Vo4beICXerAZJOMHHP3gPwqHw/AtpqEd1dMYo7c78lG+Y8/L096zT92xnHEU+X/gHTr5McAkjhmZJAJVIA2lsqTwMkZ2gnOOtSX9yJlaFo93mholbOdoLEBvy5osXGyhdEEkEMis0fyo4OfJlAXKgY4PJwa4vVLN7eYxSGQq43bn65Papepw467UZHU6T4uSGxEN2u14olSNlUtvIGBn06Cvc/D9ybzw7p10yhTNbpIVHbIBxWtN3Z2YXFKsrLe2p5h46sPC2j6olmbKG33oj7Y7YMNuW3fnx+VcbYf8ACPeXO1xbCPbOwUwWwXdEfugkDIzz71DavYKuNpRnyN+o2x0tYTcqLXpLhN20kKVYrnr7dKq3Oi6xqEdnbPbiNkZiWdgQ2T/s5Pb0ojoZYZNNO3f8yGPw3f28tvcMqBVkB+XcSOQOhHvWhLp08P8AaE1yEZJYHZUU8B1AwSMY6McHnrTk7muKV1bsN1uCPSNCswruyxXUgdtoPLRoR/L8KkupL+NLKezJaW3gRZIyOMeUjEH8zx1qdkXOLp0FGHQwPFTF5rJ2h8tmh3MM5ySetZd1NE86PHyo5OBg1pHZG62K8jb5C3PPqc11F6yo2n7VW3kMS/vS2RgjBJGKJ7HLi/4RfuZ5tO06O2nR5Y45Y3Qoh8l02jBJ/vc1f1HUhJcRtmSFZZw3mkNtLKdu0YznjPNZnLzvkceun6mP4uEdjOltbiNd5Ls6dT1GOp44HvXM208sd3DKpHDA8qME/wCFaK3Kdqpw5WrHpdpOllCkcsdhcEITneqjnLdDkg/Xua5vXWllM7jyBBI6OEj5C5XGOuO1cyg1Nyb3M8a08NGCSuupf0jyzY2/2mxgkMi/unOSXI4weOOAfzr3jwn/AMiho/8A15xf+giumnuLCRSs1G2h5N8X/wDkboT/ANOif+hNXBQ3Di2kjAAWQgt+GcfzrGfxM8fFO1eb8zabVEi3jYkjPtCiNgcYQj+7x17VlzQXJMzql27FAsXJJTkE89fWmmdEZzqJRhHbsaltd25EIvNPuIZl24ncFUBXnPpzyOnORV3U1xBteRyhilxwOWwo5OD7emD3p3OqV1B6NbXJtMiikubpNWkeMCOPbknaSOD83Y5x371T1XS4I2kNpLPswzORypBAxkHpxnGB2rJOftLW0sdHJF4S7b5rnP2N1p0MflvZG5kZ+WfGAMjBAwe3WryaroplQHSIlDSck7flHHJ+X61qmc1LFqEFGwxdV0htmdIiGWYEfLwMcfw+/wClSx2JfS4pLMzRNcoVkedRsO0Fjgn6cc80NjdZV3ta36jL28uYvDcOmSqZDNKzow+QgDZ7Ef5FVrzVZpfD8VjKHV7SQPHJv3FgSxOTgdC1b/V5+x9t0HUnCL9nf3rGHqWpz6oYvNK5QY3Acn6/571BDDP5kcgidwOmFPP5VkpaWLjibRtbU6q91/R7WUG6sk3yRA5VM5OME9eueaxb/wAQ6XdIkcJeBVwTiPqRkZ6+9LlYTi5xtGBct/GWnx+WXab5HDYUY4CgY6+2fxr6S8FXcF74K0ee2k8yI2qKGxjJUYP6g1pBNM3w8JR0a2PLPi//AMjbF/16J/6E1chY6VciZHNs80Kkb9ilsZGcY61jL4meLXpynXnZX1JdBhMV3cNPGsaojp5sg5icqQpwfRipNEFhdCJftUKSkcGVroEMfzpx0R6mX2hSaloxbe3SwlvLqV4RBJbtELdH3Zcjg+2Kl0G7a6DW1zLJtit5fMkAGQGPJ59uvfA47UNmeMrRdRQT9S/dxT2t3HHpqDzrhXBjQFQcH0GfSo79bi10uSKZbjz2ijVQ0uSSAAfbGc/hUc8VJRe7NY0Z8tTl+FGZousW2m4SZZpf3eGxACOGyTkYJx9cVSgtoZtZk+0xlornebds4G7OQTVszqUeWMFIm8RWdjaJZGzTEcisTwcnp61sXEFu3hbSZYxEitMwPmLuUL8/UdcdP0rGo5Jx5e5rhVTjUqKW1v8AIzNRilFpazwxtJENyyhRgAlY8Y6ehqshkjs5p5I3SPmKPIHzMVYHv2r1ViorBuj1uc9ag1W9vfRIztAxbzySuA2MKQQDnkHHP0Iq4upq0GwG4BbzcFVUAk4Ofw6151yqNaMVqjmPEdwlw9qy5ACNjIAx8xrC3Ct47HoU5KUU0IOOTXfeH/ihr+haTa6XaX5jggGFTylOAST1I96ZZ6H8Xv8Akb4f+vRP/Qmqx4a8aadpdlcpcvez4lEpkCL0PGMZ+lYtpSZ49PEQo4ipzdWc1qWu2d6+rXIMoMxfyllIJwVUDGO3y9MenNVZVC+G4HNqgjLK/mfN82c57Y7c89qlk1Ksa15x7P8AMp6nJaF4mt4Y4FZAxAbOcj+dZ0d0IJHK73RyFZI2I3juvHrRuzitz1vdVkaMGs3V3dpPZpPazW8Z8pHcuW7ELu+p4q3e6pPqujRJueW8kONuwYO05PbH+fzTprmUux6jqzpOdNP3X+ehztrbxz3am5hRI+ctggjg/Xv7US3M9wIVflY87FHbPXFU3c5qmJlUjytkbM7Kib2ZBkopPTPXipIbq5i2hZJCgBAQsdoyCDx+JpGKlJamvLrUbeG10fyPMMm12neViUII4Cn2Hb1qWa6aTQ7XSY7NdkDPKlwh/wBauTztxx1H5Cm7WNZ1nKLSXSxz/wBnvIm2xowDqZVOcBlGeR+RpYbW5eMbI2xtaQcDpjk1L7ke8ldFTUdKa9eMW8Z2xRZbn8Sf51RHh2c/wcbPM++Pu+tbRmkrHpUsVTUEhq6KGyMucDJwen6V6p4f+CV9qOiWN+2o2qC4jWUKVYkKeR29KpPm2N6VeNV2ianxf/5G+H/r0T/0Jq4S3+aURNN5cchAc9sVhP4mfP4r/eJepp3WoWssh0yf7O8axqxugoXdz93gdh/LrVad7UXdvDDKDallLR7yyKM9Ovufzpy8jtrqnyxafbYnaG0CXAeODMNyFcbD8oJH6cNxViw0+1kv541+zLJ9yLcNuxxt5X3yT+VIIxp866f0yX+zY7O6s3V3aWB3eTzHJU+uMf7RJqrbSJBNpylo5FiklP3JMvnqPu8Y5pXuaSoS57L+thLS3LmxG8HaZMALIuSfTK8Y71JaW0pbS5I5YWWMSlQS4LE55+7xyRx3/Gn6ihh53/ryGWULxHTwk0JMMcpXiT5s55+77jj/ABptlC0D2bq8T7baXAIlw2cjI+XpyOP8aa2GqUlb+uwtshUWQWSI7LSQjCy5YHPzfd6cjj/GmpbKI4PnjJFix4M3Oej/AHenI4/xpgqL/q/kQfZQpiy0JxYnGRKeD/F93jqOPekjVUjUKYcJYnJ2y9/4/u9KTD2Lat/mRy7mZmMifJp4iPySfKD/ABfc6daYfJQlJHQFbQRk7JOM/wAR+WgbpStoTW8NqZHji8tWe12kFZMk92+704r6L8IjHg7RR6WUX/oAq6W5rhIyU3c8p+LQQ+NLcSMVT7Iu4gZxy1cBceQI38guzeYdu4Y+Wona7PPxCpc83J63M++WbehhhLQLt8yQw7guQO/c9ePaqiXF+PLOxFPU/uAQFGMH3PtVK1j0adPDckbi/wBoamzEusYMjB5MW68Dsf1Py1s2t5Kyu9wqrLKgbKIow2D/AN89egqZJJaGGM9ioXhubXh2RHuJBcyMEVCTI8mAORgZIp8drbpe2bnUCoRpC+26jwmehHPGe/Xv0qL6E4WcPZJylZ37+aIoLWNXsM6jIojMu/F3GNgOcY5PXv1/CmWtjBt08T30g8tZBJi8j+TPQDnjP49qdzdTp6e/+PoJZ6dbRGxLXrptSQSYu4/kz0A54/8A1dKdb2cO2xWbUJQqQSLIFvI/lJPAHPTr+lHMJSpfz/ivISPTbMR2e6+dWW2ZJNt4nytxwOenXj2FMi06HbDuvnU/Yyj4u4/lfj5Rz068ew5o5mKMqX8/4ryEXTLc+VuvZM/YirYu4+JOPlHPTrx7DmmLpkO3/j7kGbLaQLtD8/Hy9enXj9aOZj5qX8/4if2XbgHN7IM2W3/j6j5k/u9ent+tOOmQssm26lO6yA+a5Q/OO30/zmjmY+al0mXNP0+xgmZpLxwRajaxuU5fnK/T/E81774V/wCRR0f/AK84v/QRWtJ3bNMPy+0fLK55P8XY2/4S2Ftpx9lXnH+01eflCf4TWcviZ4eL/wB4l6jg1wLZ7YNIIHYM0YPBI6HH4mtAapMIxH9liIAAyVOev6Z/pSCnXlHzMr7N32H8qeIiv8JpWMHJs0dJvZbOcxl2W3lI85QOGA6frUtrNbq9iXTHlu5kO3OQen+f/rUG1OeiUun+a/4JDClsDb71X+MyEqfwzx/KltxbKbQvEp2hzKGUnPXAPH0osgTit/62EiFrstQ6Lwj+ZkHJPOM8fSkgW0H2cyxggRvvGD97nGf0paAnH+vkPU27w2qSLnZE4YbSPm5I5x9KI/syLEdu0i3YMRuBL84B4/8ArUx3jv8A10FSSEeUcn5bYqRub73p/nihHtwI8luLZgfmb757dP06UCU4il7c4yofFl5Y3ZbD+2RwRTVeEAc9Lbb3+96dKQ+aJIJ4PnBOc2fljjPzce1fQXhZSvhLR1IwRZRcf8AFbUd2ellsk5yt2P/ZAP/hA7lodHRwOi8vbnMuYWRvYmUuY29tL3hhcC8xLjAvADw/eHBhY2tldCBiZWdpbj0n77u/JyBpZD0nVzVNME1wQ2VoaUh6cmVTek5UY3prYzlkJz8+DQo8eDp4bXBtZXRhIHhtbG5zOng9ImFkb2JlOm5zOm1ldGEvIj4NCgk8cmRmOlJERiB4bWxuczpyZGY9Imh0dHA6Ly93d3cudzMub3JnLzE5OTkvMDIvMjItcmRmLXN5bnRheC1ucyMiPg0KCQk8cmRmOkRlc2NyaXB0aW9uIHhtbG5zOnhtcFJpZ2h0cz0iaHR0cDovL25zLmFkb2JlLmNvbS94YXAvMS4wL3JpZ2h0cy8iPg0KCQkJPHhtcFJpZ2h0czpNYXJrZWQ+RmFsc2U8L3htcFJpZ2h0czpNYXJrZWQ+DQoJCTwvcmRmOkRlc2NyaXB0aW9uPg0KCQk8cmRmOkRlc2NyaXB0aW9uIHhtbG5zOnhtcE1NPSJodHRwOi8vbnMuYWRvYmUuY29tL3hhcC8xLjAvbW0vIj4NCgkJCTx4bXBNTTpPcmlnaW5hbERvY3VtZW50SUQ+dXVpZDpDRjQzOTEzNzBERThERDExQkU3QUEzQTEzNjYxRjhBMTwveG1wTU06T3JpZ2luYWxEb2N1bWVudElEPg0KCQkJPHhtcE1NOkRvY3VtZW50SUQgcmRmOnJlc291cmNlPSJ4bXAuZGlkOjQ3MTcxMUM0RTAzQzExRTBBMUIwQTlFOEM1NEY1RkI2Ii8+DQoJCQk8eG1wTU06SW5zdGFuY2VJRD54bXAuaWlkOjQ3MTcxMUMzRTAzQzExRTBBMUIwQTlFOEM1NEY1RkI2PC94bXBNTTpJbnN0YW5jZUlEPg0KCQkJPHhtcE1NOkRlcml2ZWRGcm9tIHJkZjpwYXJzZVR5cGU9IlJlc291cmNlIj4NCgkJCTwveG1wTU06RGVyaXZlZEZyb20+DQoJCTwvcmRmOkRlc2NyaXB0aW9uPg0KCQk8cmRmOkRlc2NyaXB0aW9uIHhtbG5zOnhtcD0iaHR0cDovL25zLmFkb2JlLmNvbS94YXAvMS4wLyI+DQoJCQk8eG1wOkNyZWF0b3JUb29sPkFkb2JlIFBob3Rvc2hvcCBDUzUgV2luZG93czwveG1wOkNyZWF0b3JUb29sPg0KCQk8L3JkZjpEZXNjcmlwdGlvbj4NCgk8L3JkZjpSREY+DQo8L3g6eG1wbWV0YT4NCjw/eHBhY2tldCBlbmQ9J3cnPz7/2wBDAAUDBAQEAwUEBAQFBQUGBwwIBwcHBw8LCwkMEQ8SEhEPERETFhwXExQaFRERGCEYGh0dHx8fExciJCIeJBweHx7/2wBDAQUFBQcGBw4ICA4eFBEUHh4eHh4eHh4eHh4eHh4eHh4eHh4eHh4eHh4eHh4eHh4eHh4eHh4eHh4eHh4eHh4eHh7/wAARCAE+AfQDAREAAhEBAxEB/8QAHQAAAgEFAQEAAAAAAAAAAAAABQYEAAECAwcICf/EAFoQAAIBAwQABAQDAwYICQcKBwECAwQFEQAGEiEHEzFBFCJRYRUycSOBkRYzQlKhsQgXJGKSssHRJTQ3Q3J0gsLwJ1NUc4OT4TVEVWNkZXWEotLxGDaUs+Kj/8QAGwEAAQUBAQAAAAAAAAAAAAAAAgABAwQFBgf/xAA8EQABBAEDAgQDBgUFAAIDAQEBAAIDEQQSITEFQRNRYXEigfAUMpGhscEjMzTR4QYVQlLxJGIWU3Ilgv/aAAwDAQACEQMRAD8A9lHSSXijxzrKlfEy9xrPKAtY4ADn061lneVwK816lJIM+anHlI4qqjH8/Mf+2dPQVPx5B/yP4qxrKrBCzzE/+sOlsjGRN/3P4qlq6ojuaX7/ALQ6YgJjkSjh5/FXNXUD/wCczf8AvDp6CQyZv+5/Eqz1VUFJFRKT7AyHTJDIlPLz+JVvi6tlHKaYH6eYdPsnORLf3z+Ko1VQP+fm/wBM6Sbx5D/yP4qxqZ8fz0v+mdDQCbxpP+x/FYx1FSRlpHB9/nJxpJOkf2cVl50v/nZP9I6JR+I/zVvOl/8AOv8A6R0JS1u81ZppusO5+vzHQ2UTXnu5ZCebH863+kdECl4j/Mq/xE49Jpf9M6a04mkH/I/ir/FVGP5+b/TOlqRfaJv+5/FV8VUdHz5v9M6IUUvtE3/c/irCqqsDM8w/9odIpzkS3s8/iVpkuMqScGq5yw9QGY4/hpi1SNkyHCw4/iqFykJx59Sc/wDT0SbVkf8AY/imC0WS+3S3JWUsq8JWdaeOSrCS1BT8wjRiCxHp0PXod6RobKyzGzJG62k17pc/FZTKFE0+D/Sy3r9NR6XcqCpqsuP4rfFXu5IWeTI9RzIOiHChc6Zu5cfxWwVMhA/av/pHT2FGZJP+xWC1E/J+TsBnr585++mJTue6h8RWSVEjL8srY9OnONEOLQl8g7lG7Fa5rhRzVz3aOkpKd+M7MxZ0HHIIQHLZPyjHvpbK9jwyyML/ABKA53QuvNZS3OagNSX8qVojIsx4khsZH2986CwSonOmY4sLzYNcoxe7Z+HW41MO5qavkWYRvFA0gK9uM5bHvG37ip99OaurVmaOWOLxGy3v2JQIVlQPSolH/tDqNUvtE/8A3P4qzVlVzGJ5iCMk+aetEl9pmrd5/ErL4ycjHxM32/aHUgaCE32mf/ufxKt8ZPn+fl/0zoSGpfaJ/wDufxWMtZUDjxmlYE4PznrSIFbJ2zzHl5/Eqy1UpY/t3yfo501hCZZR/wAj+Kk0KV9dVCmpTNLKQTjnjAHqSScAD6nTEhSRuyJTpa4n5q9wFyt1SYKgzQy47HmZypHqCDggj6aKwmcZo3U5xB91GSqlz1I3Xr8x60gVEXyf9iqNRIB/Ot/pHTWAm1yeZVmqZChKuWP056K+4SDn3RJVLVMSVMpH6tp9QSJk8ys1nlyBG7kn0AJzpJB0nmVsmethRGkSoi8xecfPkodfqM+o+405bSPXM0gOcQrRS1UknCNp5GwThGZjgDJ/s0JIHKdpnf8AdJP4rETynB8x8/8ASOioKPxpf+x/FZzSVUatyadSp4nJYYOM4Ohc0IxNO07uP4lbLfHeLizLRU9dVOgDSCFXkK/rjOk0KUPyX3pc4/io7VEobuSXr1+Y6E1qUPjzcaz+KNXe2C30cs/8obdVyJIkZhpZnZvmBJbJABAx7Z9RqShVqzK2WJt+LfsStO3aNa+lqKmuu0dvipVV5FLhpJFKuSIwWHNgVUYz/THoNCwiyLRRMMupzpaA9d/kFFvKNb7pUUaVRqVibCyq2A4wCPc4PfY770GoFQzB8UhZrOyK3G22mG0zVFLuT4yrhCs0IhKqwLKpAbkST82fT0Bzg9aNpabrsp5IA2IvEtkdkvxPUSSeWiyux/KFJJPX00hSpW93BKv5sqkgs4IOCCSMHSsIS542sqwqHzjzM9+mdKwkXP8AMqxnfJPIqM4/N6jT2mt3mriWRQMSP/HTagU2t3Yo5T2S5zW4VS1NMHeBqiOlapAnkiXOXVPUj5WP1IBIzpUCrzcPJfH4gPa6vevZG/AueRvFmwLI74+KAQc/zfKfX+3+GlH98e6udCcTmst3mvbOtRehKtJJVpJKx0kl4c8cST4q7hB/9Of/AGay3fzSvNOq/wBdL7pLySOtOs9UoOkkSqbCjPppFIbqynP7tME5VFtOlSpcfXTXSZELHabjfLgtBaqSSqqSpbguBhR2WJPQA9ydICzSsQY8k79EYsonuPaz2K00lXWXa3yz1mWhpqVzMSgYqzFwOAwykYBOnc2lZycB2OwOe4WeAEudemh4Weqz7nOdJJZ6Yplb9NIFJW0JSVtJJXzpwktkUcs0iRRI7yOwVVUZLE+gA99IWdkQBJoKXdLPdLUIzcaGanEmeDOOmI9RkdZHuPUaTgQppseSGtYpL5nEMlWfRxKSB/2RjOpBzSn8MvDPKv3Wr8TnA9I/4H/fotHqpPsjPVds8OLtRrsktNPRvPTJI1OkdVTrUqccicSp8iAnOQxOfQDQkFppdJ08MGLV8A+643aq2Sqr4Kd45ZFlcJini8yQ5/qrkcj9sjP105i281zow2OcBZRjclne2PTxTV9JJUSKzIIyRLEB7SxntCf6pJ/XUY+HbsnycU4hu7aeyIbR29NfqGeZZxRS07ESSVUfl0hGM9T5wG/zSPp3pyK3Tw9O8eMujd+O35oPbqhHvFPEvmcviFUN5BcE8h7EYb9D0ffS0EnZVYsZweASPxCdvFf4y30lLFVNWyRTzGdc2mGmRGKn5QYmJJAPofTrvTtLnNWp1PFezSLG+/ACEbLiqqy11M1tstLdagVcUZjmpTJLEpVjzAJHyE4BOOiPUe7BoB3KjxMaTQSxrXG/PhBNx1cR3JcUIUH42UFoYj5P5z2v+Z9PtpjGbVOfHcZ3cc+aad5RV1vsleKqy2+gpRcIo4Jaak4mpAWTDRtklkx2fX8y96QHa1eyseXwiHMa0Xt5/IrR4bUk10S4yUNmhuNVAFMPxGF8pykuG4sCHGQPlPRbhoHsLSN0unYbntedIcRxugm85RR7nuVLLTeRJFLh44IyURioJAwMep9B0DkaJw1ElUcnFe2UggD5hOW66O4UmzKieqsFop6MCNoqmljXzT+0RV7A5EkE/qCxOSBoyRYDe6058OXwHamNAHBCWthUU17uc9LRW6mrJvLUBazkiR5dRz9s49/sToXMI5VLCxJHvIAaT6n+yj74kko9wyU9ZQR0c6QQc4KZCUTMSdde/wBfvn10R3+6osnFkbKQ6gfQhPt0guSeEgmkaiFEtKkvkhS59I8FfTg3zA9cuTcwcY1GT8Oy2pMST7FRrhJPh/LDU3uWN4TLGKaRpIZVVBMox8oaTCg5wcn6Ho6ciuVlYGO/xex24sbqT4gsgvNOsSxRRCjj8uBGRvIXv5CU+UkEk59wR0NNpDQKQ9SB8UeVDby9Ecp7TcLjsdK2ea2GlgpWEEZpgZF482J8wYK5wfcjJUY7zpRubqIKtfZpZcQPOmgNvNLOy6cVu4qemaOmmSRXDLUcuJHBs/l7z9Me+NOHEGws7BhEswaQPmjHinBV0t1po62emnk8t8PDF5YC+Y2FA90UdKfdcaIOsm1a6rEWPaDXHb3RrYtHdJNoJU0tVbIaYGUOjUoaWQZbId/UIcYYd9Beu9CLDueVewoXuxNQqhfukjaayzbltsME0cMj1CqHdeSjPrkZGesjGRnOiduFkdPaTkNo0mbxSmlnFDO1PU0kTNJxp6lQJFYBQSMOw4EBcAYAIP66EHstDrLnP0OIob7d0U8K2ukG36g0dfcEirppIFWljUrTOUCGaQl1OMOMAZ/KT6jRWQQrXSWSNx3UdnX8vUpBtYqF3HRRwzRLULWxBJH7QN5gwx+oz2ftpObqO6wcZpE7QObTd4jJVxWaBKiavkxWupkuEcYnmwvTB1YlkGSAGyV6GSOgjxa0+qtcGi/PuKP/AIq8MojPZq9ailqaqnNbF5cdL/OJLwP7Rv2iEoB7Z7J9tAaN2rHSLEJ22J2rz9fRJ+4GmF/rzUSwyTfFyeZIgwjNzOSAPbOf3aRNm1ivb/8AIId5/umfd8VXT224LLQ2mkpDXRilelpEi+JUCT50IJJTGD7j5h3nrRarbSv58bmsJLQBe1DlRfDeCStuNVRx3Ky0BmWNTJX00czn5j/NLIME/XsdaEEA0h6XCZC4W357n5IXvCpeq3JcqiWOWJ2mIKSRCJxgY7Rel9PQdDQjdU8t2vIca7+yZLxPLHsVpGuFsqFq/JgaC3W+JVi4cXzJKAG5Ej0wQWz3o9Ttwr2QC3Gu270Nh+/6qD4ZVdTBuJ1pblQ0BlhCtLUytHnDqQqFSCTkD5cgEAg6j1UQUHSC8SlrSBY7/soO+5JTumsWdp5JouEMks8YjkmZECmRgCfzY5Zycggn10bxRVXONzkHt8k0VFwuM+y3oZIaNLRDa1eOctmKSYiMBUX+jKDy9OywYno6dxs7LVL3HFLHMGkC79duPVK20KqugraoW2WJKySjdIg4UlzyUlVDdEkA9H1GRg6BzjYorMwC9r3aBvRWO6adqasg82OniqJadJZ4YE4CFyTlSoJAOADgY6I6GiLtW6izIyyQXQJHA7Jys13aDw5kieujmn+DkiihiqUV4UJYZk5LkDBICqTnPqNK3GgtuB+nBLibNEbEbe6F+B2B4uba/wCu/wDcbU0f3ws3oP8AXs+f6Fe39aS9HVaSSrSSVaSS8N+OJ/8AKruL/rz/AOzWW7+aV5r1X+ul90kvLDHjzJEXP9ZgM6NURG93AVxPAXCCeIv/AFeQzpqKRjeBdGlZmGcZP270yYBVnHYOkmq1hpIlsUn6aFCUx7ApEqLvUTSXOsta0VFLVmpo15Spwx6DIz699jSC0Onx65SdZbQuwiu/qq6VtppXrLpZr9SwNwp7lTAJUIpySkifKwycn5lPf9LSdvW6t9QfLJENRD2jgjn5pF0liK6+ukkVkPXGkmW6nhlqJkggieWWQ8URFLMx+gA9dCGkomtc400WV1bZvgzcZ6J7tugyUVOico6GIjz5j7An0TJwPc9+2pWxdyuiwugSPGufYeXdJe47BFt7xBNiMnxCU9RArMw/NyCMwx9Mkj9NKg1yy58YY+X4PNEJ039samu3jM+27ClJaVqKMVAHAiIOELHoflBx7DA+mnc0F1Baed05s2d4MIDbFpep7FevD3d9DcdyWeY0sE5DSx4eNwVK5RvQkZyAcHr202jSqcWPL07JbJOz4R+CkeJG5rXdLRHR0EsU0kkqSMtPEY4YgoYcjyRCZH5fN0QAo7OhcdzurHUs6GeIMZVk3t2XL7mtOwwYVkqXGIwPX9f0GmaSFm45kHemjlWt9JK1VBbqKmNZX1DKiovuScAfvPQ0QJeeVLTpzZ2Hb1XTNr/y0sFNHCu1Z2qKZXWIxV6xI6s3MrIuCWHL1AIyOjpnUSKK28VsuOyi02gNl2puelucFXX7TSoggcSNGJ0CuPTjnOQf3HSdbd7VOHAnjeJWgkA7jhadx7b3LXCFKXaiUKUshFO8UkQcQ8UCozDjzIIZizdkufbTsGptFW5oJJhtHQU2wDd9po46JtmUVZwqDLNLPFHIxU8BxBbIXpZB9+fp8o0nN2q0sfHdCzR4di+6F09i3dDdEr/5NiSnScSmnZ14sgbPA/N6Y605iaBuqrenEP16NuaRTd1DuK/TxVVFs+WhqD1K/wAVG6yD2+VVUA9+v0A0zGAt3U+XifaH6gwj5rPbMO4bRbqy23LZRrzVN8ziojjYLxK8ckMeieQxjsD10jHp2CPGxxAwsMd36oDJtneHmtOthYQB8hDIpPHPpnl+7ONPoHYqmelnkNNI3uyK+36OGSk2Y1BUplea1MbKyZJC8Aq+mQAc5wO8+umbFZ3KtZeN9oDfgIIWG1IdxWJqoXDaMdxSpVY8NNGuF7yOw3RyPTB6HemfGLCWLjHGDrZdoPV7c3Y00r0tjaGEseCNKjlR9CcjJ++BpeF6qo7pbib0n8Ue3BHfLzaqWmi2clHVQYRJ0qosccKCvEAZGQSMkkZPZ0wh3G6u5WP47A3w6I9VG2nSbosNxkqKva0deJI+AjaWMf0gT68hggEHr0J7GndEKoFDiYj8Z+vRd+ygXDbe6Z62aah261LTM2UhadHKD6csjP8ADT+G3m1Wd0tznEhp/FF7pBfa7b1PbDtBUqqeNRFUpVRjgcYYFQoJBxkgsezkHQtiHmrU2L4kQYWGx6hQ9s2PeVuuqVUtoqFAU8TT1ccbZ+hOTkfUY707mtbwoY+mywOEjWmx6hSbxYtz3e5yVx25SW9TgRxUjRopAAHIgN+YnJPQ/TUek9lDm4s8zxII6sdlOe3XObb0dml2wDNB3HMtVErK/wA3eMcjnl2C39EemnbYFUndjzOxxEYjY7qDZbBf7Vc4q+WziZYw2FM8QwSCAwJJGQTkZB7GmpwdsoMbFnifqMZK233bt3ulxkraHbvwKysWeNKmN05H6YwAPto2NJ5T5WNNLJrbGRfqiVLarpDtj8FqdrxVD8zIJlrIkcNnPLBGfQ8T3gjSINq5HBK3G8N0Rv3CF2bbO4aC80ldLZFqEgmDtHJNGFbB9+z/AHaItoXapYeHPFM1xjuuyKb42vcqy7rU0Fspy8kEb1D09XG8ZcqMj+j839bAxyJxpqs791c6phTSSBzWdt91Vqt9xottzWWs2vT1ZqHZjL8XFHIvalSCQTkcTjBA+Zsg6Zzd7UkEczMUwuhu/UINSbVv9PWQVT2hJkilWXypKiPi4VgeJ79CAQf10LmlZsGDkxytfo4PoiO57Vdr9WCug23HRT4CStHWwsJMDokLxAOPcfTSaCBVq71DHnyXB4io+6zsFvu9rtlfbKvbEFbFWk83erhRgOBAAJyRgnkMY7HvpOFGwpcKLIhhMbobv1Qh9m392JjtoWNieIaojOB7AnPf66LyKzB0zIL7DNvdGd1W277hmhmi2zDQ1Ea8C0VbCVKZJA4jHpkAH6ADv10zaFhaPUMafJDSIqI9RS17atV8sS1qVO24a6OrVY251US4UBsrk56PIE4wcquhdvwUOHh5ELXNfFd+yDV20dwhHeltapGzYUSVsTGMH6nkM/w07G2Nyq/+05DpS7QQPcWiG4aW+XikgiXbdDSVcChFmFfGF44A4lQB111k5GT66IBtnflaGT0987APDojyIWW17buCyTPW1Vhp5hNEI+L1kHQ5AkA5YYIGD1nB0BBDlUgwJ8VxJZqB9QoFVte7zTyTU9sWGnc5SM1kT8Rj+tkZ0gCVRm6fOXkhlfNFLjSV9dZqe1tt+GOppkVIpFrogVIUA/L6kHHIgn1JOmpxKuzQTSQiMxGx3tRrHab5Y7ga6S1Qy5iZByqoVKZx8wJJAPWPT3OnLT2UOJi5ED9Rjv5haazbt2rq2SoorPHSwyHkIxWRMAT64OR19tE3dQz9Pnc4uayvmjNCdw0dualjthE7UZpCwuKLE6YcKWjz2QJG9wM4JGRqNwJI9FdjdkMiLAzciuQt3hRabhaPGPasFxgMLy1Ikj+YMGXi4yCCQe1I/dqeIEOFqHpOPJB1BjZBR3/Re1B6a0136rSSVaSSo+mkkvDXjiP/ACrbi/68/wDs1lu/mleb9W/rpff9ksbQmpU3Uae4imNDUQKkxmp0lwOY6XmDhvXGMHONOQasdlqdELd2kbH8lJ3hLSR7XJt9uoljmucJ84UyCYYVjx54DAenpgHUkT3uZbgtXNhhjx3iM2PNMe3pbLarRQUsU1FcZa+BKqrL0glNOxA/YscZAHzZ++NRPL/EAA2UeJBhRYwa7d534tKO4ZLdJe6h7TDJBRvhlif/AJskdqPqPpnvBx7aeiFznUIoo5iI+P0UDQlZqyGkmTL4ex2+bcQp7jJCFlp5FijqJ3igllx8iSsvYQn+3GnaATur+AGOl0u7/IH0KO+JFNtyEVMFNb6G33ClFMAaKSQxTlkPnABychWAww/TvTuuld6kzGaC1jdLhXsfP8Fz0aErDV3dI0LuwVFGSxPppgLKcNLjQ5Th4a+G26N8yrXIWtNm9RUzQZaRf8wH1J/gPc+2pmsAW/gdHM5+Ibdz/bz910a5Udo8Fd/Wy7lJ6mx3KialkMwVpoplZSzo2B2Rj5R6gn6aKqNhapgh6VO1zWEtcKJ5pdfpq2iv3wM1BKKihaNK7zIyeMqnPlD9M5Yj/MGnuyt4ObJRHuvM3i63Hx4rF+NSMfG0v7EgZ/LH7+vemI34XHdRaP8AcD8BO433Tl4lU26Kv/CDih2dcoaK7rbVeJZQpDKFcsDyBGCOu+vuNIj4uN1oZjZv9wBhb8Vc3t7JmovFVbcy2XxN29JaJZP2T1DRcqaU+hypz0fsWGkHeatM6nbvCyoi38wlzxf2JsyTYNbvXaFZHTR05RmNLKs1NIGdUI7zxPzA9H7Y0JYOQquf0rFEJmibx2C8+Kyq5WCUVNVL+aU4wg++PQfb31EST97YLnSCRbxpaO3n9eaafDKFIN92IIS7m4wlmPqzcx2dAXW7ZS4Uj5MuP32XTrda7JSPQ21ds0tbFWUyySVE8YaSSRieQ+o+oIOBqIykcBegQdIxhFTmg+q57tiz2abxRqbdWxCqt9Ek08MR+ZWZGAHL0LBQSce+NSPeWtsBYPTMOIZsjL2B2WfjLR2ltt0N5itMNvuD1AgbyFCo6hMkEDokH0I+mmhl8TstHq2FFFEHtFFMvh7t7bJ2La2nsVPXz18fOaWogDliWx03LKAdgAd9Z0E0+h4b+CtdP6dC7HDiLvlIm2rHY6jxhqrO9LNU2ulnnKwFslwgJEbN7gEYPv1qZ8tN1AbrJiw4zm+CT8KZPGS1bcTaLXGisVPbaqCpSFJKWMIkmScqw9xgEj3671HBkNkJpXOp4LIoy6qrhbPDe17aj2NQ1dRt6luNbXzuss1UgcKoLDCjOBjC/c8ifYaabJfG8NA5UvTunxSwB53J80pGw2OTxmjsIo547a9UqvSl/nU8ORj5Zzjl0O84P11YLgG6q3WcMSI5gh1fCnLxEsdg/kZd6tds0drqKEqaaekHDGSoAf2YNkjHZzg9d6rw5ZlJbS1eq9Mghg1NUTwes+322kbtX2CnulRJVtDI1SoZYkBQfKDkZw2fTJ9NHPOIhZH4Kt0vCjmj1Hc97S7vKx2OHxYobRT0UtFQVL05qKZWGULn5ghJ6DDBAJ65fpoxIXN1UqmVhxty2xjYFPO8bFtqbbV/Rdr0dtW2ws9LU0qkSqQBgyZ9RyypznPrqFuQ4uo8LWzunYzYTQohAvBa02Wo2rcrxW2OmutXDVLD5dRxKohXORn0J77P061PJMYgDSz+lYLJ2FztzfdAvFe02Si3tb4LfRG3U9XHE9RCi4VAz45IDnAI7x6ZB9tMx5e2yFX6jishyAxp5XRNybc2pHS3e0vtWkpaaioucFXAM1II5hmY+/HihOejyb6ajZkOuiFrzdPgbCRprblJfgTbbTLBdrxW2qK5VtIY0gilA8qMMD8xHuSRgZ6AB0b3hnKzul4rZ7cdyOxUbxupbZb7pbKyz0X4YbjAz1MaoBHkMAHUZ6PqDjAOBj31JHpkGpR9VwomSNsUuhR7e2Uix7eO1IJqc0pc1YwKrkFB8zzPXJBLA+mRgjGoBk0S0hbDunwiGtqpc78GLfbbzdbjPeqWO4ihhQwQyj9nlmIMjr/SIwMe3f6aOV3hNsLH6TgwvldSk+NVDbbZbbLdbTaYLXWVqP8AFR04xA+FU/Kv1UnBIAByPcaWNN9oZqI2VjrnToIi0p5sG1dtLbrRbjtuguNLXQK9VWzLmd2KZ5o/qO84xgAY1G7LcyTS4LUg6dAMfaqpc68MLbbbpva4UdfAbnR0Ec0lJTyek3F8Kz4/MAvePqR7aneQG6gFg9OwoDlOHkj3jXbrFRbcoL3Z7THa65qkwOIYlSOZeJJ+UHHWFwej2c+2oceR04t4pXet4OOGBw5RbZ9lsS7Ssittihus1zWN6morEDu/JsOUPtxHoB3oZckseAAr2F0+D7KKASfs+02us8XKqx1CSVNsppahoIGbJk4flRiOyB3nHrx1YleNGsLExMHH+3FvYI14oW+2LtSqvNNZKO01UFdHDSPSIEWeIr8yyKDgkHl3j0H31Dizmaw4cLT6zhQCDUpvh9arNHsSjuM+3aO81dcWM0lTGHPrjguelAGfTvI082Q5jgGhSdN6fCcUEJYhs1qXxoO2kWX8IWsPGDn835OXlcgc45deucDGpC74C5YzcKD7dpJTd4kWWwvs+5V9JYKO1VltMZgnpYViDsWwY277BGPY9/TUWPkOf8LgtfqmBB9nLjtSGeGdutD7KN2rLRT3atqZ3iYVEQdY+OeKqCML7Z9+9FNK9mw2QdKwoTjAgWUu7l2/Y4fFGmtMMLU1vqpqZ5YB0ULqSUH0B6wPUZ0bpTpWfNjRnNbHdAp43vtvb8tnu1HDYKC3i30ck6TwR8JFZfyBm9GDe4OfX66rwTve6iFsZvToW45PFBBfBqitT7WqbhV22muFSk/w7Coj8xIkxkfKesnPv9NHM9zHWFR6NgQva6U7uKC+Ilro6DdtqgghitcNyjierghHGOHlIQWQEniCvf8AbqVh1s1qj1HDgGW1p+afL3t3b01rrLXFt2ipEponcSxwhZ4kWMsJDIcHIbAIOQe9QtyHGQNpdDN02A459kmeDdJbq6K5XS50FPcqmlMaRxTpyjiRs5cr6ZJ6yfTB1JkvdE22BY/RMSA6r5W7xRtlsoK2z1tvoY7fJcYpWqKeKMJHhHCpIqjoZHv1n92ooJnSxlzhuFD/AKkw4IywsNWulUNotrtBt+HbFFJTOY1aWSICXy2GXl5+pYDvo++mMrmuDQFsjpGF9m00KUHZUENJ4s+HlLTy+dFErokn9ZRUVQB1Zj++1cpDGI86BrTYAP6levBrUXXq+kkq0klR9NJJeG/HDvxX3F/15/8AZrLf/NK826v/AF0vv+yTY5KyBJ1o6+qo1qYxHOIJOPmqDyAb9D3pw4g2o8bPlxgWs4KshrhRvRPd7lLRyOsklO9QTG7r+Uke+MnR+IeApH9VndGYzwVvoK6stxkFFUtT+YBy4kZOM4/vP8dRF/ZQw5k0IIjcRaisORyTls+unu1WLiTZVsH301JrVxj66RSTX4XSzxbuiWlpaueeWCaJGpGRZ4MocyoX+UFRnskDGexomA6tlpdMcWTbNJJB45HqmvxSmvsllnF1pauSiD0qUxrKiKWop3WNgzSKpJjMoGcehxn107r33Wn1N8zojrbttV1YrknytcokdI0aSR1VVGSSfTUdLnGtLjQ5UCWQSgVVVmOnQ5ii92PsSPr9BqQN32V1jSw6I93dz5fXcr0B4W+OEq0sNu3nTrEOlStp07RfQCRB/aVH7tSFwGy6LD69GyopPx7J38aLJHvbw4+Is7U9walkFbTMjhldQpDhT6Z4n+zTm62Wh1aE5eITEbI3FLLwFoZbdsKiX4ymqYqpfPBRmDwk9eWQevlx7Yx3176TQRyl0Zj2YrdTrvf/AAuNeK6ofHGscqpYVtN82O/yx++gcTdLmuoveOpbE8j9l06cj/8AmhpGwOX4Uw5e+PLf30X/ACW4Xn/dwL/4p28SK/a1DtiZt3x09Rb5PlFPKgdpW+iL68vuMY9cjRF2kLUzJYI4i6f7q88Xq07brtqXi77JutwpKOm8s3CzVnRKM4CsCpKuA2Pzen11A93JvdclIyN8L5MWQgDlpXOwoXIVFUH6DGonEnlYZcTyV02yV9DUXnaNLS3Siqya+kWWEUpjlp+PEcVfiAUJLZBJORkfmOnBNUuigkjdLCGkE2L2ohE6Ch3ZbqV6G2Vfw1LMC8cYvnaK3rx/yclf+yfXTNa2wCV0ceDPHG5sTzpPrx7bLntdaa5twWhNuxVNLdlq6pJH+KEip5ITLiTivREnuP79SObpBJKx4sCWGS8YnUb5KH+LMG61S31O4LgtdTfMkDRODGjHs9AAAkD1x3j100DWgbI8qLNAvJNon4b0e+f5Og2W6Ggo53doEklC5+pXIOP1GNBIWa6Kkgg6k5lwGmpKskF9XcKUNsjnjvRqWTIbjIsinsk56wSSTqRzWuFnhVBBI+cAXqH6o54j23e8EFPWbor3uFMrcEaOcPFC/wBCoACk/XHePXTMDP8Air3UYcxoBnNqT4e23fs1qqJ9sXWS20cz8WDVYiWZgP6IOex6ZGP160naLs8psKPNMZMRpv1wlNqC7LuD8MNPUi7CfhwyfNEuc5z65z3yz986kJFWeFR8KbxtJ+8mvf8Ab/ECO0Rz7mus9zooXAOKrzlhf0BcD37xyOfpnUbQw8K9mxZvh/xTbQtXhrbd7VMVVUbVuclthJCSSNUeXHI309CCRn1x19dO9rTs5BgxZdF0JoJcvtDd6XcM1BdYqlrq0o5h2LvKzejBsnlnIIIPekC2lUmjmMtP+8m3d9p8RU2sJL5c6mttlLx82D4zzWh9gXHqR9yTj7aEFmqgr+VDmiH+KbCG+G9Bu6qqKmq2nWyW8RqEqKgziOM59FOQQ31xg49etE8Nr4lB09mUXEwGkK3dR3ui3DPBuHz5blIwZ5JHMhmz0GDf0gfQfpj2xo20BSgy4pxMRL95Nt+sfiSm0P8AhG51VTbYYFkkovjeckcQ9OS+pAAzxycfTrQEsJq91dlx80Y9uPwoD4c0G6bhd5JNqVclFPCn7aq8/wApFU+zH0Of6uD6Zxpnlo3KgwYclz7gUbftBuK331huiaaqrZlDrUPN5qyr6Aq3oQPTA9PoNGKrZR5keQJf43KZ3sHicuyBTmvqRa/K5/hvxmJvK9ccPzcffhn92hAjc71V44+f9n3+6lfYVDuK4X5RteSWnrIRyaoSXy1jU9ZZvTB+nefodJ5bXxKlhxZD5P4PKm+Jlv3Lb7vDJuite4STQgxVHm+ZGQPVUIwAAfYAev30cboyPg4RZzMkP/jndHbFt7xLl2Txt1ynp7VPGXjoTWBJJUPZCL6gH1wCM59O9CSwu0lWooM7wPh+6k/aVBe6zcUENgaWC5RMXWVJPKMODgsW9gPT+zvRuLQN1RxWTmUCL7yNeJlHvWCopandtzmuqMGjgqPifOjUj1QenE+5GBn76TNIFNU+ezJBHjlFNkWbxGfazzWC8y2231PIpTmu8oy/UoP6Ofrlc/pqNwYX78qxiw53g/wzTSk6y2+8VW5IbdbIqiO6pKeHBzG8Tr6ktn5cYOTnUjtNbrOhhldLpZ95MXiNZ96W8UtXuq4tdadW4I61ZlSMnsqRgcSe+8d/XQxOjBpqt9Qiy2gCc2Fv8PrDvuqsc1Tt67G1UE7EASVhhE7AYJUYOD7cuv160D3R3vypcHHzXxnwjTSlRbTdzuP8HFNOLv8AEcPLz84kznPL+3ln750YAApZ3gzCbR/yTXv6zb6gtENVuO8tdKOBgpUVhmEDHocl+/py7799JgjB+HlX8+HNbGDKbCh+H1r3pVQVNZtm4yWynzxklapMSSN+neSPrjr66aR0YHxIenwZZBMJoIDc7Xd6W8zW24QSvdHqEBUvzeR2zghs/NnIIOdCNJAIVKWKYT6XXq/8TXu/bviBFtpKq93SW4UEAVngFd5rRD2Lr749M/NjSAjY7SOVp5WPn+DchtoUHw2su7bjNU1m1642xIsRz1L1BijJ9Qh6PI++MHGie5gFOVbAgynkmE0hG7Lbe7ff5qS+GWouEpBLmXzjNn0YNk8s+n9mkwt0/Dwq+VFO2apfvJtv22fEhNpAXGvnnt8EfN6D43nJGi99r/SAHtk4x9tMHRNd2taEuNnjH+I/CgPhza903K7Sy7WrGt8sCYmqzP5UaKfQMffOPTB9NSPc1v3lTwYshz/4Kkbjt9+tV+lTdE0lVXzL5i1TT+csyeg4t9B/V6xn01A7TpBbwqnWoclsg8Y2ui0Vi8SJNqCGK6lKVoQVoTUgTGM+ijrIB/q8h9NM0Nv1VluL1cY2kO2rjvSm+HXJfEbwyR0KkQEEHoj/ACip9dSsFOb7qphAjKxwfL9yvYo9Naa7ZVpJKtJJUfTSSXhzxv8A+VfcX/Xn/wBmst/80rzbq/8AXS+/7JKHWdMs1Vn66YJKmCEhiBnGM++NOnBI2VmKquWIAHudIC+E4smgsTLAR/Oof+2NHpKLw3+StziHpKv+kNMGFLQ7yTX4VTId2inWtskK1NNLA/4ox8iRWHaHiQcn2704Z5rU6UJRP8Ncd+E1eMFUKC0S0tXJYKWonkhMq0ttqqeWRY1Koecvysqjrr7adwsrR6mJPC8OhZrgHsuNySCXFVVZSBTmKLHbH2JH1+g0gPJY7W6f4ce7jyfL67lbaaCSSUVVSPm/5uP2jH+/TudQoKKSRrW+Gz5nz/wpQOMahVarR7bO673t8SxW6ukWkn6qKZjmKZc9qw9s+mRg9+upA6ldxc6fG2YdvJeh/DvxT2tuNxBUJDZrtIe4pcBJSf6j4AP6HB/XUoeF2OB1bHydvuu8v7LjvjFOtP4x3KokDcYqmBzj1wEQ6ik2Oy5fqjg3qLnHgEJ13LcK+4b5ovELw/EV+RKYQT0yITLCcFSHj6cAhvUdZGjuzYWvkyPfO3MxfjFUR3Rvauxb3um9ruzxGyzg5o7UekjUenJfYf5vqfVvpog2xup8bp82ZIJ835N7LlHj18LbvE+70lOYaON0hLQoQinMaHtR9+/7dQPFuWN1iB0eW4RtoEDhIAqabH/GIM/9MaDSVk+FJ/1P4I/4bT07+IW3UWaNi1ypwAHGSTIOtLQVe6bG8Zcdg8+S6rPVW74+hkkte5fPip1gml/A6o8QPUAccNg/7/TUboLeHAr0iPKijBHf2KULRT32y3Wmuh21uSWiqaq5I8iW6Xzo1kMBRypXPqvv64P0xqeWMObSy4p3RS69JokoVv8AtVxrLLDt3bG19y1NPHKJGkkt84VAowqryGT+p/26gxonMJJKfqeS6duhjSUybHFwpttWyO7WDcVFWWlGRIWoJSKj/o4X9Bg++hmg1PBvZWsHP8GEMeCDxwlXb1DvCj8Qzuao2PuEJPLJ5iLRyZjjYBQR8vZGB/A6svi1s02sqLIe3MMxYaKMeIdPcq/b5sFi2zuGVKmUzTzzW6ZAuX5nphksWyfoM6hihLDZKudUz9UGhrS4n0UrYK1NBtujtF821uVKm1ytNCYrbK6zgliAML0fmIw3X8NKSIn7vdN03Mb4ID2kFqW/hN2HxHTeX8j74Io5Rin+EkEhiCFD3jHLBzj92pvDthYqLs5xzxJ4Zr2TBvBa+o23W2qx7Z3FNLdZWkleW2zRrFyGGJLDs9DodZGdQwwGM3a0+pdQuEtawkn0Wnw9gutqsB29eNs7hjMM5qIZobdM6yDlywwUAhgR1no6eSIybhQdLzAIhHI0gjzQbcFHu+47+pt0w7RvYp6GSPyYJqN+ciISeyB0Tk4H6aNsY0UVRyswnKDww0PRNm66m4zWS4tatublnrbsnl+VNbZkEQxxzIxXBwPZfU/v1DHjaXaltZvU2nHNAkntSB+HdDdrTt6u2xe9qX16epcyxzR26VxggBlZQMg9dEalnhL9gVR6RnaWGORhHfhQ990G679u2jvFDtO9rT20RCFKihkBmKEE9Y+UHGjYC1tOVXqOY5+S0tYSB6Jvud0uZtdZWUO0t0SVtbS/DLTy0EwEXbEcmxxwCzdjs5xquzGLZdRK2pepj7OaB37Uljwttt/21T11pu+2twfC1pDpPBQSko3EqQwAzgj3HpqaWLxBtysrpWY6NrmPYRajb9sm475UW2ns2176lLaE4xPU0MoEh6PoRyC/KBk9nShj8NuknlN1PMe+VpZGTXonb8WuAgF6G0tzPcvh2j+Fa2y/LI2OhJx48MgHPrjPudVhjHxQ8lbA6iDDu0+1JM8MrXuna9VXQ3DbF9NPcQhaaC3yM0MiEkZXHa/MfTvViSPWKCxulZbo5Ha2EA+irxEsW4L7Q22x2fbN/WkoBJI0stDMOUj9YUMOWB2cn6/bTQR+GDfKl6vll4ayNhNJwpK+4SUNHcq7Z+5YrhQpkU8VulIMvHHyNjjxIJHzeg/QaHwSJda0o85jsYOc0jbikk7LtO6rNuWuulw2nfHhuYfzPIoZC8Ls/IEDHzAZIx+h9tSTNttBYnT8x7MhxMZo+in+JNsvtzs0Nhse09yTxrWPVzzvb5QrOc545GT69n92hxINFknlXuq5HjMDI2E9yaRSzm4PYLbBddpbopqq3LGPKitkzCQxgBWRgBxPXYbrv3GhkgOvU0qeDMHgBjmkEeiX7DQbtt2/andNZs6+PBXPL5kK0bmSNHOQRkAMRgZHWe9TPb4jdNrKxst8eYXuYaPekY3/AG653CwSWSybY3FM9bNHUVNTLb5o0XgOgFYZLeg9gNQY2KITqWh1fO1w6GNJJWW06G5Jt2G03ra+443o4jHiK2SyR1Ce2OI6b6g4H3708uMZLUvTOoAQAOaQR6IT8Hu5vEc7ufZN98ln4mmWlfzvL4cM5xgtjvHp7anewFmkLKGa8Z/iBhr2Rze9HdKrbtTbrRtfck9TcVRZJJbZLEsCBixByOzknodd/pqGLG8N5d5rV6pnascsY0u+St4ew3u2bYbb912xuCAo7NHUR2uWVJUbPysFUkH5j69EaU8Pi7hQ9KztMHhyNII9EI3TRbvufiHBuSDZO4TT0xhRUegdHkRFIJ6GATnr6damEIDdNqnkTyPzGzNjND0Tzux7u20brS2yybgqaq4RmNIBb5YxFzwGZ/lxgAen11SbjXJrPZbOb1Auxixgs+VFKfhzbNw2W1y2a57a3DFGZ/iIqiC3SOD0MqygcgeuiP7NSzR+KLCo9Gy3wx6JGEfJDd52zdl43TQXWh2pfRFbAgh+LpJA07K/MkjB4AnoDs40cMLImCMKp1HLfJlteyMkD0TpV19fHbqmpo9tbqlq6qJ1FK9tkjCOyFfmfHEqMnsZJ+2oPsTTIHE7BbM/VC3HOhpN9qSj4e2K+2WjqrRd9uX1KapmjnjqIbdJJwdeirKBniR6EZwfbvU87PFCyui5T4yWSMI+S2b6odyX+40KUO0778PbvMImmoXQzyOQSeIHS/KPXs/bTRwiOMNG/moOv5L8h7RE0mu9J3toRD+N1Nr3F8STG70YoJQ/mJggBgMEchnJ9vbQMgp+ta3+7sdjWWkHyre1p22tX/jd8PZK+kekqpEaSWB0KmMtUVLYwex0dWWCnNB81zLHOdnQOcKJB2+ZXrXWmuvVaSSrSSVH00kl4b8b/wDlX3F/15/9mst/8wrzbq/9dL7/ALJLYffTrNCt7401J1TKCc+p0qSDjwoFS6STTmqBaClPyxgZDEgHkfqe8akFgClfY0ta0R8u7/stM8kcEayS2uNFbr+ie/vpwSe6JjXPOlsn6rUK6jP/AMxh/gv+7TjX5ozjy/8Ac/mjW0qran43E257TWSWwK3mJRKvmM2PlGTjrPrg50iHqziwfxLmeS30TX4hb6st02xTWKx/GxW6nmDwWw25I4kwD83mGR3Zv1679tPoctLMeZ4hHE4gDtX7pIhppZJvialG5D8iY6jH+/76jJrYLn32xuhg9z5/4UjOolUVsjSSoq+fvp0NK5P2GlaQC3SzyzyGSaV5HOAWdiScdDs6flO8lxs7rbQ3CrtlWldRVc1LUR9rLE5Rl/eNOEUMkkbg6M0V1rw/8e6pMQ7qpDVU0YCpXwKFkIHqWT0b9RjP01JZXW4vXTHTMgb+n7rnvjTuK07k8RK+7WRTc6KaOHhULERkiJQQQwBBByP3aEtJJ3VHqrhLkF7ZKFBJgl/+6ZP/AHY02g+ay9B//b+a7v4SN4VHwtqJr9TWynusbS/GJVRj4onJ8sw+5+Xjjh/SznTtIGx5XT9N+xjGp7wXd90jbbst6vdtoqsT3wNWyyxh0+aKl4HAMzFwVyfoD1336ahDL7rPjxZpGahMe/mk47gu/EKxun/vm/36Es7alna5r/nfmVgt8uoOV/EvT2lb/fpwzf7yRfL/APu/NU1+rGl8qeprYuXqXmbr9e9PoI3CROQRqEhPzV6RNwzVkFHb62pmklmVIQ1Q2SzEADs/X93eiDwatTR5zpDpLjZ2R6923c1qokq3uVLVwmYwO9LcGcRyAZ4N0O8A9jIOPXQUy6tPkQPgaHukJHp/6iXh8aKuqZRuOm3DMqFeElBUO6D1yrgIWGesEaem3tunwXQyE+M5xHp9FLVdU36GunpmE8TpKyGJ6xmdCCRxJA7I9NO9rQSLVN0o1EB7vr5rdPT7spKMVtRS1cNO0jRCV53C8wSCvp65B/gfodBpaN7Ru8RjdRc4Djj/ACsbcm6rnMY6CnrayQEAiKaRyMnAzgdaem+aaPXM7Sxzifb/ACtVVUbipKmSlqPiIJo2KSRvUuCpHqCMaRFclA55YS1zzY+vNb6iDdVNAKiekrYYigkDySyKpUkAHJHpkgfvGkG7XaI62iy51e3+Vhb03PdJzFQxVFRIq8mC1LdD6knoDOmoE8ooi+U0x7j9e6wrn3FQ1L0lWk0M8fTxvUsCMjI9vppyAO6CRxjdpe9wP16qa9o3bFZzeauhrY7dGgmNQlVkAHAB455H1GQAcAgkAEHSDfhsFWfByNGtjjXqiHh3camsv06LWy5Skd1eacReWcjsPMPLB79/78aZzXNItTYAm1OJcbA8x/dYb+vM0F/8s1UiOIE5NT1KTiQ9/MzQfJyPuB9BnvRMBdwo8w5Jk2Nf/wDQ3/ArRS0W4bjbqm6wJXyUlJErzSGQr8vEkFQSC3yqSeIJAGTp/DJKiEGa9mtt0PX/AChtuqbneLhFbrWbnWVcpPCGJZGZ8DJwPsAdC5hCCJmXI7S0kk+v+VL3DHetuVcdHeVuNDPJEsyRuWOVb0PRI/d6j30Qj25Tyw50R0yEj5qRBbb9NYY73TyVNTRyK7FYZi0yIrFSzRZ5hcg/NgjrTAOBTnFy3MDwb+aFUNdVXCrjo6KatlnkOEQcwWOM+/2B05Yoo48lzgGnf3/ypd5tN1sjU61dxqozUA8VhrufluAC0TY/K4DKSp+o04JNkq1kfbcYAvP167rfZts7gu1G1dT3WaOlEhiMtRcVj+b5QBgnJ7dQDjGWA01g9kopMqRutvHv/lAoZrtFdlt5qKqSWSVYwgkb5mbIBAz0cjBGieAW21Rl0kzLBN/W39kxXS0bitNGtTckqqVGlMKh5vmLAZIwD7aiUMsWVC0PeSBdcohtOKOvoZlqbfuCvlM6p59E7sKdCpOeIBDMSPykjIzgg96kZZNKTGcHsOrUTfI7ITe3kp79WU9PJWQwJVSIkbSHmihiADknsDr370B+E7Ks+RzZS0E0D80272oaKDb0lXb7VcaAx1aRpJJFURERsH+WXzXId+h3GABg59Rp5Odlp5gDYNbAQb9R+N9/ZQPDX4epuc6XXb153BTJ5TSGieUmlXkfmZVYcg2CACR2Os96JoJCHpf8V5MrXOHoSkreMlyodwXKjeKothjmYNSGpeTyD6hckknAx7nUpBaSEbpnh3JHpa6NfKMrsyesh23c7ZHBDTNDNPSyQvFyYK3KVpW87nyyAEHRB6AxoJK07K5nlzcYuaCOPMfjvulbb1q3BuCqkp7SZ6iWJObKakJgEgAAswBJJ6HrqEDyWHAMrINRkkj1Wq9011s9ye311Q4mRVbMdR5iMrKGVlYHBBUg5++lwo5zkQyGN7jY9VOn2/uaG1NdZqWqSjEQm8xphkocfMF5ZI+ZSeugQTgHUhA7InQZjY/EN17oXSR3OtdlpPiJmQAsFYnALBQf4sB+/QaC7hQRunkNNJP4rddaG62erFHcRLBKVDjEwcMp9GVlJBHR9D6g6ECkeR9ogfokJB90ft+15J7FHWvWVyNLRvVGbK/DxleR8snly5fLjOPUgY99EB5LQbhufD4geeLvt7crf4KFn8XdtMzMzfGjtj3+VtSxj4gq/R3ufnRlxte3x6a016Oq0klWkkq0kl4d8cgP8bG4v+ut/cNZb/5pXm/V/wCul9/2SSfzadZiojr00klj3pJ0dqKu3f4tK+hP4D8ScyNL5K/HLIJeoj/SZWTDCQYAGV0TT2XRQFox2A179+US8Laq001ZVtWQ00tcyAUyzTRxkjDcuDSMqhh8p/NnAOM96aNS9CMQe4Eb/XCcY0pfwSod2pfPeflyrbnRPGsfNSQ/CQgrx5ZXBJHQycakDnb2uimZjhnwjf8Asgtqq9r0OylYw7nijevrDbktXmgcPNA/aFT644EBvbOna9pu1TxfBdGHX3NUuO0F23+a1VNw3TI7OpdV8/OOXeP3amIZQpawDRYXfNnT0k+/LZFYp9yy0Zoar8SSvapeHn8vA5lGMn58jUOuwaCoP8MvboN82uLofkX9BqsVwRG5WQOnrdCr/bSpMqB0qSVwcaKk1KPdD/kEnXrgH9MjRMHxKfF/mha61HqJo6VW4xBeT49xnGNODQJUsJEbTIeVHmrljkWnpmEcS5Bfjn9w/wB+hMZcNypmY5cC+TcrD46fOEqAfofK9f3afwwEvs7O7fzWRqq4f02/9xptAKHwYfL812Dwn/ynaElGq8rrViZ6dqqjpXhRQwT5BIys0hY4AYkZ9F0OnRbiugwI4/B8MDc+xXK7RLVy3ikjdUkBlVWWamk4MM9hvL+fH149/TRCFh7brFbDGHafXzTDv6ioLXDbJbJQ3Ki+KgMrCohPw0gyOLU7OOZU9nD99j66BsbBsQrObiQNIcAd/wAFK2FYaXc9nle5WuuqUSYxiS3U8r1CsFDYBwYsY/osQfpomjS7ZPiYYAc6rHpz/ZLFDQMtygiirZCBOqpGwbJ+boFVOc/Yd/TQEjuFREwMlBndPXjBLUTyW+3T1UdPU00YMsarUq/Ir2f2shHE+2O+uzpE0eFpdTyANLC2z80J2lZaut21X/D3m4Ugp6uKeqqEErQ+UEb5SI8/OMk5+mexotYu6UeG/VG6gWgc81+SA3WFKq+1VTFc6o001U8iGR8ycC5Iyc9tg+v105ftdKk7IjdLszvz3T34pR1MVsit1bf6xpi6SQwzUAgdow0vzO4RTIQGUdknkZD76RI2NbrU6lMIxpcL47c++yGeFlvrRV1tVSXu5U01MgkZ6eIyxtHxfp0wwYcghwR6Bsd9hEsIIcN1W6ZKS8lg019eSWNwUsUt4rJaK81FRTPIWjkkJDPn1J7Hvn29NDrAFAbBU58lhlcQ2/Xz/JOe7rf+GbeqFbcl5WS7pHMlPUREJLxdCrZIxlVBzgg5K+2k1wI4WrlvEMfxEnUOKQzwsoJZb3UQ/idSVeFfMRaZahXQOpYFHDAn+r1+bH6acEatwqmBI17iA2vlf7IPvAJXX+Wpp77LUq0UStJ5flAusaqwVBjioIIAx0ANJjwRdKLLyY3SWG6vWq/ZdDudZT0PhJDRtV3b4qqpEWnNT5jRSlShwpxxAPzZGTlVTGn1crTmnhGGA+xqHklDw9StmvzRzS01OrU8mKpkV1pzgHzGEhCkD07Pv13oCGFZnTmwGUgEjbnagtniPHVQbgSKnaln/wAljMlUI1Rapu8yqIyV4kYHR74knvThrUPUW44l7+4rdOVsqqWg8JFWsqbhFLVwyxxni5iMhWTCqR+XJ4js4K8+s6YN352Wk2WCLBpxdRGyRfD+mmrN20VPXrmFixApWdZCwUlex2BnGSPQZ05Da2WXgMx35DR8SK+L09NPuUPZpJJJEUxVQq0kV1ZDxQEN3y4BeWOs5xqUgH72yl6m7EfPYJJ7/RU3b9DTjZtHdLpFTJTh5YqmaSlmeQMSeAhkVsIP1GC3IHOoqCs48eMMXxHXW+5u/lSVtmpWy7stcdTw8pqhA3w4fzD3/R4kH1+h0TtIBorNxG45naBq5+uES8SJKM1sVqrZI0uyySNVCCmmgjDHiUOJGPz+vzA9jjpmh1X2V/qTNDg+M2RyP8FEdjU8CbVevuEKNFTV/GrqZaeV1EZEfHyyhHB85ycZB4d+mhad77JQRwnG8QDa97vb2pJUMUE+8KOKTz5YJKqFW4dyMpdh17liD/HR6BoVPHAcK5Fn9k47+goqLFGaaGkuSTkvDDTyRDyiMqX5khm+jD1BOSdRvJ47I+oNjYA2qdfrx81badvkrtsXKSKoraOOlqYpqqoRZGiEQVhgqh/MCSc49PcaTASUOJGXwk2QAQSd6/JL9zmgqbzVVEXnGnkqHdPMbMhQsSMn3bH9uozSovc10pIur+aaPEqM2imr46iqr3qq2pjqaamqPMBih/aAeYWOGYcgOskFWyR6amDWjZaWVGASx7idRsDfYb+aDeF9vttxq7m15t14uVHTpHLVfBMfLVAxLGZVIZhgHiFPWCcHGpy2h8KudOiY69QNDy4SvdZFrL3VTI8LpLM5Qw8wjD248/mC4x+bvScRe5VCZ4BJXSN2UFqtO14Y6ajrqO4V0cRma4u8k00SheIQqfLVVYflIBC8ffVdzW6brdWuoyMEADbBPY3f9lD8MI5DfZnSC7zqtOWkW3TGNuPJc88EEr9lIJOMadlDcqj0snxTQOw7IXvOuF13PXV6yJIssnyMocDiAAuefzZAABz7g460pPvKrmzeLM5/mmy6z1NLtFXrrlcRQ11rjhoaNlPUg8vLF/Th8pbGclSoxgDRNb8NgLVneW44MjzRaKH9z5ID4dx1Ul/eO3zVEFa1O/kzxDIibr5nHuuMj9SOjqMGlT6XrMxDDRrY/wB1o3xW/GXKN/iaiuqYKdYaiWRSnOVWbPFT+VQCBjA7BOBnSINIOoSiScAusgUSfNOFqIPh3Jb4AVq2oXlfz0gbkhDsFiyQw+VGJPbDBxj00TedlqRj/wDzi0c13r8kH8EOvFvbPX/z0f6raOP74Wb0P+tYvb49NaS9JVaSSrSSVH00kl4c8ccf42Nxf9eb+4ay3/zSvN+r/wBdL7/skpj6adZgWOc/bSRKxI701pUiFTZLb/JWtr/jqz8QmpJKryfhv2QRJRF+fOTnB7xgHrU8YsX5LbhhYWxknevI+ZTvteq2bB4ZWsXe4UtNV/Bu4V5VEpbzHweGMkH5vmOfygewGgdq8uF1mDFB4DdVWsae4bVO0qyntN2pKy7tS1MlO00iq6SBCYyDxAJyOgR3nTR3VuU0jIK+DdJ9/rq2kvlwhpquppk+IcmOKQxqCT38owNI1dhcNkvkine1poWmLwwp626iskqKae6yLLEivJVVWEzyJH7LIXKqfnfCqcE6YbNtavSnPl13v8yl2xXOquO7LRT1N0no7fQ05mrneqYiVEd3bKkgMxGEC+p/ukDhptR4+RrjDXGqJs+fdPNFbtuTUd8neWgcRyVdTQqrRKywzUpZQ4JyQGKhQuSrqw6yND8OkqSPHiIedu5HHBCynNtoLNY7xdVoamtoI6upkgmSnUztxhWFCsRIZObEgnsgNkaZ2kULTFsTGsklAsWSNt+K4V6SmtdNW0f4E9lmtUlxeourVTwllo5BGyI3PsKqNIvyd8x9caQ03YSEMbCPCognfjgodZamkgtplu9DbKyjFXB+Bw8oEmkHMhuRHeOGOXm9cuOffRm7UcHhsbcjQRfw8fX4on5Fmhl8murbTW1y1chppJ0hjAkNGGiSYJ8nyyHBOSvIdnQgB3dSujiGzqLr24Hba0j+LA4pbBL8IKz8Ng+M+G8sr53Ns58v5c4x6fbSbYO6p5DWtnZVXW9Vzv5JXJ/y/wD9l/3tNeyzK/hfP9kPWBRRCqj5eaGP3BGSD1+nenJt1K+ZCZPDPC1lixMsbPKveeEeP7dKrO6eq2O3uVl5c6wpMXXy2wWKqPkB/wBmgBG4CWppcW1v+qabJfL3baQUlBcfLijZnp3amhd4Sw+ZonZS0ZPuVI+vr3odY4pKPqs0LNLQP7KHaBUWq501yoax4qmmkEkTlEOCPtjvRGQdgqkec9jw5o3+a2X+uu9xV/iqs1URnaZoVjVVDlVQsoUD+iijH0AxoWEEkKxJ1B+R8Mm3ceSwt9+vlDRxUNHU1UNPFUfELHw+XmShOcr2MxocHP5RqQsAOpTR5skTNDXAD69VBhramK7/AIpG83xsc/nibyxkS8uQf8vrnvTkaggE72v8SxfP1upt+v8Ad76kKXSVpxBnyiKWNCoOSRlYx1kk4+p06eXKkm++R9fNbrBua+WGjkpLTUPTRSuXkBpkfLFCn9NCB8pI69QSDoSLNo4c6SFpawj6+aEyM3xPnmN/M5eYWEQALZz6BBjv6adxJO6rCQ3qB39/8oluDdN5vkEcV4rTUxrI0qZpYlPJiSx5LGD2SSe+z3odIcrMuVNM3S6vr5rHbW4LvZJm/A616eSVlY8YUfLLniQGQ4I5N2PqdPoJOyaDImgvR/f91ArjNU1ks1VTEzyMTKfh1T5vf5VwB+4DSO6hklLnFxKMXndm4bza1tdzmFRSK4kCGiiU8gAM8gA2cAA994GdM1lbqeXOlkYGOcK+vRQtvXu67fqWqrQVp5nAUk00cgOGDA4YEZBAIPqMadw2Qw5T4SS1yiXuqqrlcpa26RD4qo+d2SBY+WOs4QY9u+tMwiqCKWWSR3iHv+H7KfU7lvctiFlnrnNvAQeW8KL+UAL8/l8sgADOfTrRimknzSdlSPYIzRHyP7oh4VGhTdJ/FLpBR0zQvHIKwI8TZx8jBzg/Uenp13oX/dVjC0mTegK790T8TVtlXuNGo6mCemSmSOJKRwsUQGfkUJgf531+bvJ0OrSaG6o9QyP4v8Oqr0NKPDuG6xWBrGK4/hzIIzE0UbHiM4HMry65NjvrPWhBN2OVW/3PK8PwrFewQuyzNargtdb5XiqFDBWL+YMMCCCrZBBBPqNE4lwohAzMnhdqbV+wW7cddU3+uFbdZmqJwvHmoEeR9wgAP6nvRiQhM/MmkdqdV+wU627gu1vsrWalruNCyMpieKN/lJ5EZZScZyfXo9jQabUrOp5LWaARXsEJtv8AwfXxV9BPNBVQPzikWTlwb64OQf0I0+rzUMeZNG4OFbeiw3Hd7hf4ZfxiaOoqaReKSpCkZwFHH8oHsAMH6acOIIaOFbfkySTNkJ+9/wCKda9zXq1U8dBQ1gjpZ1cyRtDG/LIXPbKSAeK9enyjUWgbpocyaCJ7GHb280HFVJTX+lq4XZJo5I5I3HRVgWII/Q6la6m2FHC57Iy5poi/2Ru9366XkQi5VKziEcY/2KIVH0+VR19tRWop8qXIrxDdLZZdyXmzU0tNba008MzcpEMSOCSvE/mB9VOD9Rpg6k8OZNA0tYdihzTO0xmJwxblkDHec5+2hJvlVQSDY5U/du5L1fLZ5V0rfiVRw6/so1IJbJOVUHssSfqTnRtNutX/ALbNkOa2Q2BfZB9t7kve3qmpaz15pfOcGUeVG4cqWC/nU4/OwyPZjqweAr0GTJA2mdwtx5yVEtTUMslRMxaRlQIMn2CgAAfYDVRzi/lZE85ldaN3Pct5ulCtFX1qzQKwYKYYwc9d8goPsM994705cSKTy5s0w0vN/IKBZL3fbHePMss0qPVeXD8kaSAnmCowwIB5cSD7EaLTrZQ5Vzp00sfwwGnH8/JM932XczuOOW43OFau4Rh+CUUpV+gQ2Uj4AY9+sjvvUhsj4itSXo+Rkx63nfzr+ynS096kqafbtxu/K3Sq8JZaQclaBPyEMoZTgIAxOOLA5xoG2Do7KnPBOHiCV4012Hl290DuPxW09yVVLba1xIihHZ4gDhgrFSpyDg47GQcAg6JzNJpZrnPwpSInILuG6XG6ViVFTU855m4vMEUHoE+gAGT33pRtFINZne6WXc/gpFt3JfUtb2uWtPkIDCAY05+WeyofHIA5OQDj1+uhI0m/NWJc2URhjD8NfW/KZvA9s+Lu2fT/AI7/ANxtFGbkCfoYrNYvcOtNekKtJJVpJKj6aSS8M+OP/KxuL/rz/wCzWU/+YV5t1b+tl90ls320SzgFXr9NCnWJHekU4Um1PebwKzbNNdVgp5mIVKicRwqOIcgsfQErnHoTj31O29gFsQSSFsbAdqP6lM1o2bfLfsuivc2+qaK2GIzLbobm0LY9eIbBCkk/Q96UjgKNLpsPp8kjGuL6B3pKm395fEXamplF8pBVSLEs1RuJ0ijz1yY+V6DOTopGDTur0WDWzSt25LHW2iWiqqq+0F0S4GZ1eCcySjg2CZCfXJ9D7+uonBtWFzfV+mnGb4hNkrTardUXapFHBcqa3gftJJqicxR8V9QSPXPpj/ZnTNrus/psckkpaw1YK6D4K7Es183nfIr46V8Fuo4GjWCRhHIZGYhsjB6A9Ouz9tTVtRWp0zAilDmS70V11vCfw/AGbCv/APcS/wD7tM4A9lrDo2J/1/MqLWeFGwJIJI0s5gZ1IWSOok5IcdEZbGR99NQrYIXdHxa+7+a8sTMEkcZUlM4OP7dR7LkCynafVeo6Dwn2FDRwxSWg1EgRQ8slRJykOOycEDv7DUgAXYM6RihoBbfzUweFXh+QQtgj9Mfz8v8A+7S0ikR6RiX939Vxr/CL2jZNqPbjZIGpo6uItJD5hZQyuoyM5Pef7NCAQRSxeo4cWPOwx97/AEXM+Wa8f+r/AO9oRuFh1/C+f7LC1t/kCfXk3+sdNN95HkD+Ifl+ilgn1zjGoyTyqy0OhpnMkalqc9yRjvj/AJw+31GnsP5VlrvFFH73Y+fof7plvu3IrHa6apoaupqhM4UxVFG1OqZXl8jMTyA6z1/SXHvgiAXUVPlQMaxr3k2fRBBJV/8Aoi/++/8Aho9gCLWdpi/7fl/lZ08wkLIwMciH5kJ7H3+4++oHCuE0kRbRG4PdQ1uTHB8ksp9CrDOPbOfTUpiBPw7KycQDurQQvXSGaY/J6ZAzn7Ln2+/vp3ANFJPkEA0t5+ufrZdAtvhdDWTwQrfKZpJKL4to4VV3UYyowSoOe+8jHXXY0WmuStWDAklcAXjcX3/utFp8PbddKu60tDdKyee0yGOsRKGMmMhSx/53sYB/hp9Kuf7M+idR/D/KS79bHtd+q7Q6KXp6qSBZcfLLwcrn0yM4z9tMdIWRIBG5w1Xp2K1iiqO8e/8A9ee+v00g5o3VQ5DPof5Tn4PUlxO780v4p5vwz8RQVaRSt8ydF5VKqD+nZwPc6fVqBAWl01zXTaW812A/VA/EREffN5ciaYmqbLyyh2JwM5ZQAxB6yPXGfU6Abi6SzTpncGlL3lR/+ZP8dFapa3eawaKLH8y38Tpaj5Iw93mt0BlgYulPIxIxk8j19tDshkIkFOd+i2rWkuYqiIID0c56z9QfY/XQOB5CjOPQ1MNqPXU5hPJQDGegW9v81vt9D7acOvlTQyh4o8/W4/cI9Q0Sfyfjrnu9CZOJY0ruRMg5lApOOJbrOM5xg402kkEhFPhfB4rCPOvr9E0eDtmtt/8AE2x2u60sNXRzSSCSGQcgx8lyOvsQDqSOq2UvQWB+XThYpPvitt7aNL4f3Gote1KSgrqepg8urSHyzjn8yr/W6DZx7eun8SwRS6fqmGwYjy0UaXEDIMnvrOol5/pXXP8AB+25YLtZ913W62ynrqmjNMkJmyQqOGDKP1Prqwz4WErsf9PY8csJ1De0E8aLdYqW9W2fb1kgtlL8G8U5hi8tZZg/r699Agde2gc7U21D/qSBsQZoHfsuYuwxcf8Ax/Q0P/ILngP5X13W4n/KKP8A9W39w0DtrQgfC/3Cj1Z/4Th/VP8AvaIfy1JEP4J+f7IgDnUCplXH29NJCVkBpJlrr/8AibgevX940bOVLj/zAg6/z8n/AEv++NWHdlon7o+uyYY0eWQRopZ2ICqBkkn2A1UAsrJUmutd3oommqLVXwxqMs70zqoH1JI60YjPCsNxZSL0n8EIkr6qBkqKIr5odXidSCEIIIY/oRnGp2x72AtHDwZg5sgadt/dPEvibcp62B6myZEUahTBcmhQEIEAVQOhxAHvpmxFtPAshdQzqGSIq8L5KJHvKR79BXGF6CGATMvl1HmyJJJGUMjM5HPGF+XoYUDROY4m6WRMciSbxBGWjfjzPdQt0XH429vK3nB1jijYyqFZiqKC3EEhc4yFBwAdROJJ4WBmB5kJdd+qE1Jb4ql98ux/fxOnaPgKrsdbXk87fqiKWO4wW0XV1jNNU5lj4zKzrGreVyZc8gOSMAdM/cAqxPBI2JkhGxH7lNXgYMeLm2cf+m/9xtKH74U3RN85i9w61F6Oq0klWkkrHSSXhnxxI/xr7j/68/8AcNZUn8wrzbqv9dJ7pL0lnK40wSWDE+mNI8IgEZ2CaFq66x1k1FATLCyS1VPTzKmFHqsrDI9yFyTj9NT2BpJW/g6A1uo1t6eZ801U9glXw1oayLwmt1VM8bM1z+LAaUYyZuI+YDHz4J+ntpn7iwa3XYYTWOY1zWXt9FcCoKeesqKKjpf8pnqGEcUII+ZmGAPX3OPpq04gC1Ppc74Qmk7eudjqviq63JTwXKSVqVkkR+lbBQhSeJH0+2q0gL22Fy3WcaUNDjwmbY1wFj3VHV1Rp4JqeOTy4q2R4EeQqQqOwwUzn1PX11HZpUOmnwsiyOxU6j3zPtffd53FCstW9TTJEiwTmKJ5W4seTBTyVQHwQOzg+h1OGlwW30uJxe93YqTP/hCXoOvm0UaBgT1cG6A/VBpzGeAVt+GQsKjx0ulfSTxRW+WWI5jlKVzqQCBk8lHQ7Iz+um8I+aYsv4SSkC7321VNN5Nv2+tvmQCRpDWvMGQlhxww69M504hHdZn+0Y98fmnLbfif4g0lBRIK6iqKaVFEHxdXHGRGB65ZgfTHroH6Wuq1px4ztIDSity8XPEGOk82NrREEUMxp6+OoOO89Bz9v4407SzuUT4JBvaBQ7tbfUtYd4xmplWikNJUpK8fkssbSJ8gypBYDOcaN7NIsbrLyMKOR+p53AKieH587cVRMwoPhqa3yTVRq6Q1CCIMoJCDB5ZIwQRj6jULGl3C53GZpBJFjvYtS90XDYlZGj7St10oHMmMTOphkGDyIXLMh5egLEY+mo5BZT9QEBcTECDtfkgJkVAvLPzHioUElifYAeugaCeFlsjdI7SwWUw09oty22kq627VFNLURvIYEtc0rQhXZRzIxxJ45A+hB99SiM91oN6TIWBzjVqZdKi3XumpYK3fNdVQw5FLElrc+UuMFUCnKqAPyjoeuNFV89lK4mciJz7r/wCqGXKx26G0VdXQX+4VE1OFIgloJYWbJPY5Zzj1P0B0iACmf054bqABrnatkvI0d0p+LHy6lV6I/wDHpodOgrOIdjOsbt+vzW620dMYFzTKZVJR+Q5fMD7aZznAoJ5pNdB2x4RUUlRxKiml6GAPLONAWkndVdD7uk/XzfE1gt9FJYKmrralkxUC4U5xHlApCkKoVfoOXqevvM472F0+PmugaDESa5scbdkkQ76uUNTWVlJR2qGWrYtUmNJVafPR5/tO+ujo9Voj1afgjlBpKupulzqamv8A25rXerkCHgebPyPE+3ZP6aheCTqasqT45dY+9dFdLGytr1VwNCb/ACU9PJc5aSOoa505CIsQaNmIUcuZPqCMH5cH10Qbf3VpNwMQy6WckkXYICH+GN/29tOPcFwqzUEQ1ENPDULGJXUMZR8pIOAwAzjGcDR0Wkgq50WEB79VbcGlB8Xqyz3G/wBvulFScxX28z8/JWNpAKidQ7gY+figycZ6Gonl1CjsqHVw8yhzSACP3SP51Iz8Ft4Ld9Aj205aQLJWX4ctXrWHm0RCiSh8tHzhjj/Z3piHjgotEo4fakxuYSsEpBQ9RSD3+x+/9+oyb3ULmh/xN57hHW2bebtVUlDahRV1fUSMkcUNUjsAIzI3LBwBxHvqaMbkBX8LDldRHB9VDv237zte4/g1+pPInMInjBkDh4mLBTkH/NI/doXNooc/Dkxngu2JTHUC5UHhyKN7hMtHHRuXtXmqXJkclJmQHIi4uO2AOcH6EOzVuFrt8T7MNVjbj90H8GbxcbZ4h0N0pJKT/g2CoqT8aHKIEiblnh8xIB6+uiB0oelQgT6mjddI8SN0Ue4qK52Otu9rts8LJUmrSKZmMrO3nRkKMcSpA9PcjvQt1A7t3K6LKi8eAtuly6kotsOcSeIdlQk+9LUf/t0/hkbrAd/p57qpwTp4Z7kt23JK+2Wzf23qikussXxWKeUSMiAgICfQHkfb6aNwdWmuVs9Mw3YkeglYeKFam57TT7tgqKKnlgk+Bq7bDK0rRnlJ5cnI9AFVIx9ToNAYKAVH/UUT5IWyE2AUo3XbzUG3XvBu1DUx1sCypHCJCysRxZCePHK47798eukKtc7JjFjYnX9Wg4kQVFJycKSjBeRwCcDQOF2qbWEtfS01BP4pEWAGGTHfqPm0bfuI4/5Jr1/ZdE8LacyTVtQSGSlEUkn+SxSso5H5uUoKoo/MxPsp7GowDpVvpcTnvc8Dj0tJtVUwgyVHnK6M5Kuo/Pk9YH3+mhLSSssxOdIWgLR+IRg/zUn/AOn/AH6LwSi+zO8x9fJa6qrWWFlAYciO2IwB19D9tEGUbRxwlrgfJaaClae7wU0/mQrUSopYIXYK0gGQo7JGfT30Tjtauwhspa0HvX5LplwtVv2rvKwT26vqbhTzSRziSWmMOV5HHEfQgev+8aZoqnhSwYkUObG1p1BY793Tt+q2UKmzW5KWSWeMRkUqofLaJ8/MG5dgAEHOcnT69byAV280GmC6q1zXa9wWipqWvajRwsD4RugM5BPofbOptALKtV8S2RgcrZUzmsqZKpI1RZfnComFUH0x+7UzBTaUziSd1JAMdBMiSp8yEkPHjPXsf7f3aR2KTRalXyzXWov9Xd6a11IoYConq1UlGJRfX2GMj/wdUnd1ynU/i17XR/Ba5h/lNJnvtv8AV0mD4SuYZ9x/y/VPtDU2VfCyeH4u0SXSRmRoUpD8SgEpK8nLYzgk8gueLKO8ZCBa1hHdbUj4m9PbZF1x3591l4FYHi3twH1+L6/0W0ofvqp0P+uZ8/0Xt8emtJejKtJJVpJKj6aSS8L+OBP+NfcZ/wDt8n+zWTJ/MPuvNuq/1svukmWeGIDzJFXPtp6KpNjc77oWSsGUMpDKfQg6SYgg0VYjvGhSCjzUkUsxlzJG5GCUYrn9cala+lYjmc0adiPVNe1rXvWq2vV1K10su3IJSnkV1fIkLgLggBfmwD1lf6uB6HRO+Jvkup6fJmPEb4z8Pkodx2bDbab8TG37RxAMqfD19RzCqFLMoLA4XkpJ9QDnReJbVayp8yBupzRXup2x7NuqK4Ul7aqrjbHppDDK8i1IgDeYgby5D2oOSVOCRnHrp2UXA0occ5czQ95oH64UK9VdHad/2u4Vwa9UtNVUk0xcgiqTih5Ds9HOQCT7A++kCHHjdZwIgzbk+IAKX/hDbp2/u+pge3T1DJFRGIGSPyykjlsde+Bj7DGPfRxA3a6fGzIchtxJEvN0sl5iMdfZ7jL54RphRVMcSFo+ZXGY2OMyNgfoPbUYjcx1grWOQ1zdLlup77PR7LrNs2ujuFFQzxNTHzijuY3Jdl5eWCRyY9Z6J032fXIJSdwonZLGt0LVborg9XJeaC0zy08VM0bMsGUR+athgPbGdTyOYNrVTxmncFC65K250It4lp5lnRacA8CyoCrLwx2Gyij9CR76YMa06gVJ9qFUUR23BubZ1vahjjjoJJJPiEkkhQSliOJXkwyVwoOPTPeo5Y2ykFyIZOkUEe2faa+601QXoz8PQ0Ezyzow4ALCwQsw6BJCjHvonuaG8qpku1tc4+SI+C0Lfy+RfxCaikajkVBA8aSTkso8oNICoyMn0yQpA7Oom8Wud6c7U8gOr9/xU3xRguNPeqWO83A1dyWmYVAJi/ZATSCNf2YAGY+DY9Ry1HI7VsqnV26ZhZs0gm2Kugod02evuRk+Bp61HqGiUsyrgjIAOeiR76KMG9lD0uRkWSHSbBdpt3ilYbfUUVTV3m8VCSdl3hYRzIrMpKjj9RjPuV0RJLqK7L7fjspwdsVyvwxvNpsni0m5blTTRWhpaxowqEsnNJPL6HY7K/pqUOC5/HzoG5bnuO267Rb/ABe2jNNJPJNcHpIh+250rsq5BUH0z2cdH177GdM2cE6aW99uxy0uD+F562Cbbb9zWie9U4+D4salZFLDHHHYwfQ4Pof0PpoHO52tcf4kb5DrNtsLr2x7vsGp35bxTU9OkYndKVFojG61LTny+RHR6KhfX07OdA4Bzvu0tOB2K7Lj0+W23qmXxOiE1ft9bDR7nkhSpkSsFOtahKeWvDzPqvPlk+uNGdRJoLcyA34dN87/AF5KD42xwUm35zaae5rSGjq1q2kFT5RBlp/I5GXrljnj39dGWg7hVuquAi0t7/W686qvKML8pCAhSBgkEN6/frUV70uTc6j9eid/B203M73tdxS11s1DEZ0NStMzRB/KkGOXpnkQPUd40XYrU6Uxxna8jYrrFstW9Z9wXupqbdVLbWp41tcSkcg4Q8uQDY/N69+mNI2G2ulDYrIArbyCTqvd1LtLxI3Y1ztlTOamWmXMARQskcQ5ghsZyzZ6+n30JIdtysc5rMPIe0jnySDvW+Ud9r6Sehp6qCGlpRA3nupkkJlmmY/IAACZMY+g0j5LKzchs0gLfJL0Soh87kUnDg8FX5Qvocn/AGaE3woL+E7rCMeitGJfk4KpPo2c/wBme9IkBNY5+fyV6Z8OaGQieJsgN6YONJwH3kEjdvFGxXaLbfpNwbrsFt2nWUwu1ElSEaCjMUbj4V+gGJIx0rf1mJI9AdG4USWd10+DNHI9jWVY9EieLa7mt9/pZd3T09TcJ7Yv/FRiJAJJPlXODjvOfvpiBXKi67E6WRibfE2vrYPgqI2ygjNZBUlqhIF814hTSYIOMgEHs++NA3bbstbJOmDV3r9lzLwuflfrimSWaz1igZ9vJYal55WX09tS2EK37e5W3nc7ZZ4zTyU1bUUePoiOyAg/ZVH8M6saaGy3T3tJzSwR/s6aFXA9ZJByLH6gew0YukFWpVqrmp6tZuEULhWUSov5eQIOR7+v66VItRAXR7DdzLtHcFsanaOaB6MSOf6RLyHr7fL1+uoJB8NrM6yf/ifNNe4amo/xN0cElVUvH8Orxq9Iq8UEpBTn6lOWGVus4wc56r6bIsLPkH/xI7/T1SluiwfhVjt1RJc6Gulr2KokJysagYDcj9emIwCuQNGYyDqJ2VWTEbB8YPugt0UhVUkkhFBP1/NpMWfjbnbzP7Lotv2dunbslHTW/dFHbJrkyxMkUk4FQ2C2Dxj76J9euutG5jm3uteLGyGk0eeEr7i2nVbfNFJVVVJUiqqZYXeBpMxyR8S64ZVx06dj1ydRSEtv0VPLhfC3U4/Xqo0dLThFxSw/6IONRaysUzPJ+8U52zatpfYtVuGWGpjqYlbylWEBXYM3zIcfOMDsA5Xix7GNSxN1gjutGLEM2M6UuP4/VpdpLbfY2h3JT2Wrnt8Dxv5oPl/lkBwp9RkjGcdYz7acRO0osTGexgeRwbTzu2hqLTuTbtTuCmutLBUVjSSVFc6SNnkOeRGWChQy9++PTROc+TnsrjsY4uSySTYG9yf2QrxAqNq3Dbwpqd6GjljqPPVFRfMkVYnX+g5UDLDoA5x7aF9R2Giwt53UI5Y/vjZJWzqW1GJIrxPNDTfDScTEvZbJwPQ9amOrQNKnwHh0QcVoijSOWPJZEXAUgYIx6anGwU5sqTIy+TMxlPLgRgjBxjHX936aaynACaKi9QwUt2ttTVug4kQJHC4fm9OqhvM5BQnZypU5Gfcgim77x2XNZ87Ii9jjdnhGfBK12q53K7C71FLMkNBziaZYsRtyB659Atjj9e+tMH12VToePHkPex7OynxfBne0tHHWWJaMTxIKQ0EIkdW+Vjz455Kfm7GCpx6g6YP3AdyulPTcR4+ED2IHZNW3KOjpfFjaiwU9NEY7xLFyhWMFk+GhdcmMAHuRiOsjONG0U8bLIfBFD1CIRgDc8ey9VA60F0qrSSVaSSo+mkkvC/jf/wAqm4j/APb5NZL/AOa73Xm3Vf66X3UTwvvGzbJc7pJvK2LV+dEvwryUvnqoGeS8T6E5GD9j2NU82HIeB4JXQ/6bysCEOOUL8tr90qr5MlTVTUlO0FJJUSPTwscmOMn5R/DVtuqhq5XO9RkjfkOMQoKmV+YII447GPfREKmCK9Ues0tHFaeMtNE071YzNLQvPxQKSQvH1+pH0A++n8JztwtLDLS3RpBJPJ7BP1gqrpDsmqqaSlhWw1LzvQOk7xTxU7u/7Nx5MgyCXYYyQG7z1qQ0WDUuwwWyxNHhAaeyD3CSrvNpmqDHEksNLNGK6tqpXKRNGEkOBSR5PBQMkkDs4zpg5obQ7pZzJchhBFH1Ruzy3e1+H1LRRU00jUdFIpkikk4hvMlBI4/p64zjH6aGywgcq9gRFuMGu5C4rc3kkoLc8g+byKMD9PLTUzeSuM6h/Vu//n9l0T/B6hoG8TpluUFEyG1SGIVarxLcxjHIYz69j76TbDVc6Fs4hy6nUU+9MkrR+GaAnoBm0ItbT3ZNmg2vdXs1DeHuijcdJ4fi3FGEppADJ6dfm6x9ftpxtuUmGUn+Jpr0Xl+riRK+UwqAElby2X2AY4wf4aidTh8S5KSTS86Tta9HW2nrG2nYG25DsiRHt0TVTXMDmZSoJPX3znPedSNbWy6pr3mFhj0nbupVNRbvLNwp/DBU6JPA4/s9dIEjYog2dzrptJG/wjXpo6HasfkWQ3cwTCpW2BRGWynY9+HqRy++nqxvws7rNFrADQ3ukg+FVuqKnestO8zuZKN2lVKGOp5oCCVKSEIo6/MxAGNFsW7KhhnxaDBQHpaYdzUNPTeIttp6HarbcUPCVpXK1IkJY/tQqniwYH8qnHR71G4tBQZrazA0Nq653tQ/EGvp7rW2+4UoHkyUfFCtL5C4WWRehzfIGMZ5H0x1jGo3Xaq9SlZK9rmihXlSj7jz/JzamABmgnyf/wA5PpnHYKLJA8CL2P6lBRz5KVA9ezn00haztu6YLKSNsbgyP6FP3/7XT9irUJ/+PKPb9UJtdrqLzf6KhpjxLeYHfyy5jULyZ+I7bAU9Ds+miaC4FoG6kwMfxz4V1e/4J+8MdhQ1u5rTdIJ5IaqmjprpKlTS+WO3bCK3IhmHFc9dcseoI1I5r6o8Lbw+nyRzMqTiiQi3iqNyJd5PwKu3Qac0Lmm+ErJ8fFFjx5AsDx449sevWniA07rppiwu3NG+y3eIc1TVeH2TNe3nFpl+OSoaYwlg9NxLczx58+fHHqM6jaCRuFT6m5vhEtPbdcFj/mP0/wBz6fzXFn7316LtOy1sMvg6oqorfNcBV1MSF0DyxhiSD9lyR9+86ck3pbzuut6WYfsjTJSkbRtW3aCx3SlrbVT1LVMEqxR+XzIfynC4JORlimD6fKTpy+uyuN8Dw3Ad7pA7q2yKnc9yj3DUUzVa13lcg8jEYgjVfyfKYwQ+e8lsDIGTpAtPxFYswxy46+b+vklDdcW1Y7HaZLFUCW4yIxuSLzCROI8YUMPTIY+p9T7YAZ5BOyzsiOFjGFhtx58uQllxjPHosWJI9euX+7Td1Tab5+uFoIwoDZK9Bse/vwXTEbbqXvY+vUq8Y43MBoxF835c9Dr007x8KT/5Ro2iFpr6qzXY19FcJ7bXxOximifgwVhg4P3GQdBZrZPFNNFpfD5IveqSu3NY5dyXK81V0ngikR5JoXkWKOPBA8xVKg/MTg4/X20m6iaV8PysmpHGyO1FOG+7tb4YltD1Fvraz8MkCnzJTPS/5OzZGZCoY4w3yDIJ/eYbTaXQyfEw9xX7JR8L9uVEF9lqDXUFVBUUFRDiBixVnh5EfMB6AjJHWTjPronuBFqviRFkg9QufbkCHfe9JFZSxuFbwYH1Hnt6fuzqzdrVcEs9gEHrrrRJK8RPIZxpJLpm14Qdi3mpY5n5WyNhnsgipK5/7IXVSYm6WZ1kVi/NdG3fQQnw6o6K0XKKeECOY09XVlWSFhyRhyQAA55FWYgdcRoDGdqVd0Alxg1p44tRvEKKbcu3LRDbblLcIaVeBevrYwkbEBBxblxPYA+vtnGiDSRuhycZ7g0tddJc2ptJtw3ist1TJLC1LSF/2bKCXRwpBJyB+Yn0PpoYyCsvp0Ame5p5CdzebDc93W+hqtv3Uz0dyjSnnW5osCVgUYGPJyThh9R83rqVx1Df0XVMbO2gG/mh3jPJRQ0tCkVBPRyUV4qEqkkqln815IKeTzFZVXA4lBjHRzqJ9+6xerRa2Bred/x2Q5dkbh+YEUIMb8Zc1kXykeoPzdHOohGfNYh6Plf9fzU69TtaPC+WirLLRzhpiKe4Q3IShjIZA3yAMo4mEqRlT6ffM8Y8PflaIx3Q4gZI3e+b4Q2i3N8H4cT7cnrp5IpgRFT/AAwEauXD8mfzO1wD8vD39ffQhwJpQwZjXQGM89vx80/7p2db94W7zLdeqWqS1MB5du4TkLKBkFpZvQFCfqeSgemA+oatBHK25sKPKjBY7jy/9StX+F1pi2nSbmW7XaaieOSVxHQwh4fLdlbI87B/IfTrGPfTgfCR3VcdLaRbXbEKYdoW7b22N3pUNDWV1I7RWyTgmFdJOBLc1KgkkEJkkjOPXOnAJNAocRz8eORjnWQdkHpqGKl8PP5T11BS1TR/ENKoeKInhJxVVQRHOeu8+ujB4V3Flkmha+96TBQbVtlVt+K6zpR0SS+Q3mpNBMI1eWFWDBowB8svuRgjQFxI5pSZBfFQvnuoj7R2ffYlqRvMeezTNOziOFZBGwX5Ux8oIxx7IP0GmiDQDZWG7EZIfEMnxHfdCPBixVd5rbnBTSTJJ8Og8tZQiyAtnDZR84KjAwO8HI05J4CXS4zM9waV1a2eHN6hPxEU9GUUK4WOsUP8wyBj4UDP/a/fqqZmnhdG3pkrd7UPbKSxeLWzonlmzDdamB4mmWRFZETLLhEwTywej+Ud6sM+82wsN0ejqMR1Xd/ovVg9NaC6dVpJKtJJUfTSSXhfxw/5VNx4/wDT5NZL95He6826r/XS+6TsHOR6aLdZ6o/TrOmqkysehogE6mbX3HUQbeqbi0JMFqr0m/Y1rQtl0KhevUHh2T+nvqYtAFWuiia6BrWMHe77+ycrXv2lk2rT0ctxpKOpkhkNQjUMkgWR5HbClXA44K46yMEd6jdRGkrZx+rwwgefstto3lS09pqaCW90LrNTz0/JbfMColQozDs94J9dAAGt25Uz+v47rs8+hU6LxCsC2+CmierhEYk5BrYJg/KR2BP7dOuJX5SD2D2dG4j/AJKrF1vHhbpH6Lmt/joquughtEtSYIUp4oZJYwkjNGiLyKgkAkr6ZPrpw7e1g5GW2bL8Ro2OyZPGuOumr7dLWPc1uEMcsY/EJImLxhwVbjGSF5Etn0PQ0Qk+Gidld6l/Dc0Osg8pLsdRQzVtI1VC88LyKJIIXAlcE4Kr/nfT740BG6zWxOEoa4Ei+y6dcfDa1U9RcLYlZLJXLb4JaNiQA88k0qqjr/RJEYTjnpydIgFbTukNaS3Ubr91Fq9m2Kg3ta7LNT1MsVwuU1Dhp+Dx8fKwRgdn5zkfpp9iaUL8BscrWmyDslOxWi311ZLClclZwt9RUusKMDE8cbEK2R32B6ZH30gd9wqUeLrcQDdAnut+4rLbotu2m82ulE8EqLFUVnxOTHUFOTwtFxHH0JVgSCF+/Ql1qxkQCLEa5t71v/hK1AuTNIRljMVzj2Hp+7UjlmTn7o9E3eEVLV1Nxuq0MUVc0ttqWnpJFdmro1ZT5KBCGDdKwIPXEnB9CJ52WlhhzpixosBvHn/ldLsG0vxq4wefRR2YW+yx1FFQhZOdGollJU8nDlycsGyM8hgDR0SKWpj4/wBoyA94qhsO4S94w2UW9oJp6tayqIiAlBcMkbI5CMjMwXHHIxjIb0zqNxBFd1R67hMgAeEEktb3a17UpFqIqYfhlZK8sqsVRY56iRiQoJPSnoDQ1dLO8Lx2RMutj+pTXW7G2/Fba11lkhgp6Bp47k0jMjyhpAV4gZOAinA770WiuSrrunY+g12F380J2pbWtl4udtlenqPIq6NC7QNJE/7YHJT1Ye/H30LRbq9lVxYfCfJG6jRHawnjZ9dt+07Op53u08L3Sqlmge3Us8Eh4cFcFIuWCPlzj5RkgfXVtxDQAug6MyJkLpLG58qStvW4Wa4bysdVU1tbU2dhKhmuDOHMYnkGJCcNwDDBz3xGoXm5KAVHqEoOZDvt+Hf+66MtpvEe4I5Ph6ma1IixviigEGSR3yEfPAGfTP6HTBrtdEbLpnMjLNTikO+Vu1KC+VUO6bRDWV7P/lEMVJ5oKh5eAXHHi/DyXY4GQCPUnTOA177LAlyMeOYxuOpx+v8A1c+3nXbZqbfVJaY6dql7kZITBReR5UASQEM3XPk3EgcRx4n0zoQDp3VDLkxyP4XpW1eSTyC08iE/JnkARkHLDv8Au/gNObrZULpgr62VolZ8cFlkZmOFUZZ2JAHp69nSAsIgCTQV4o5I+Of2bo3Lr1B+mf8Ax9PXTHfZM525WaoqrxAGD/8Aw/3/APjJ0iFGXEm/r6+vIK4UyMFVSzHoAdnvP9vZ/j+mmutynBP19fXutciFJcYZXRsHrtT0MY/rdent6nRHjdSNBGxUaqiJiEvDiB0xL8iTnTiuEbHi9Np7vNNbv5CUE1FBaJK4LE1QC0rT5ZR8xZgFAxj5Rnvkc9Y0JIBq1afDEInEbEVxd7qrLeqOPYFbZfOuQu0/mx01LAgekl8wBQp+YEFuxnifX39NFHp12pcbIibB4Ye7VaPbtsdHX3M3OltEVJWR0ckTyKsvnVDNAYwrgwhQQT68+sH10zQ9raO66GcB0Wkc1+yGbXvt7/HYbPfIHhFFbpXSPDAhUiIUgZI9M/lAz19Bp20KaqOFNM6cMkHC5Nu221FDuK5XCkEs4aaSaYsMDDMSTgD7nr76sAbLbNkpfkjR/wBpE68Tg8ScFft3qQcJia5U6GgSNuEsbTzCMP5ayAdHB9vUDPr1pr2TPDq2XSrRaKmDw2vtw84yyVtwoWUFfylIqr5R+gIA1DKOFR6pGHYwb5kIxWVcUlmpaRqlkkmtVDC0NX50K/I0TMRhDnkImXIyCG9+xoQdBG6UWbCyKn7UAiu1dw2Wj2buLbstfQRS3OY+SoqJHjgXMLAdx5ODExwAO26xptXxG+EU2fjGEgGkv2zdw2/fbhW0kCVHxjPTDm/DgHcHl2p9h2CPQ6jZza5jAyXY8z3gcglO9hptur8Nen/EmqVk+P8Ah1rkSOSVY4mapGUwQok4nkQS0ZA9MaN7Xlp0rp4spr9Li780t+KdDerxdblSW6khqILdUiaoqlqlPnSvTxRqqDC+iInQGSTpntIJFqvO0zuGgbAhdv2rVuu3KGqCtJKzztkTMi4ErnOB0f364/O6hkR5RjY+gu4wcKCTHa4tXIfHqWO37UqvhadEjW4eYY+XWXeoZj/pMTroenyySwNLjuuV6viRNkMdUL+qSpBY7c0Ucx+JA8kSCMyEooK8uIJ7x7eudbbMZobsst/ToAC5G/DGiprvY9xUFTXz2WY1FHPEKWtEMjD9qcZJ+ZQG/iVJ9NVAS13qoulBjddny9F0Xd2zdv3HZdot8e56+q+B+JHl01wRHnR5ZWBdSxBk+cZyex796TpKae5tbDWRAg3Xz7IDvrcm2xat12hbpDPW1NznUxCNuLR+ZkESKpV8dkd/0jgjj2naq9Vh50sYY8REalt2dcqy0eDnxNihNZPGKp4Kc0pmMkvmDABIOB9us+udOW7D1V/pj3OxGh7qIB/XupO8Km8XDwwuM1zphT0U9DSyyoIBC8dR8TDmNsAZA5H1GDjPtobNE0g6sXxwODXXsEo0nhdcZJXpzeLXKaYQAwBXDEzEBCeuxl17/uxpagRssN2C94Og/FtfzTZ4YWyl27PuWGteSGriPwbGmJAcgMWClRljjl8o9R9M5AOA1C1Z6RrxjLrNlu3mp8e8KZ9qLWzbyPxkkA50DzVBjU+Zx48eWfy99D75wRqAgfeDe60f96Bg8UyDVXG/Pl5ob4b7hn3B4w7UeemggMdfJIfL5fOzx4JOSfZF9MemrER+ILIweovzc+MuAFXx7L2MPTWku0VaSSrSSVH00kl4Y8b/APlU3H/199Zbv5jvdebdV/rpfdJrPwQvxZsD0XsnS9VQa3UaVs57xjSCZPFjttuO1oKp6Whkq5HUl3DM3H4hVxkvgPj+jw7Uk59tEButuGBn2dryBZP7/XbhF/Ey92e00W5Y4b/DS3ylqnjobbHbqfhGgiiZDjyjy5Fn7Lama3YLsBHCXAOIsdlxva2777cN00dvrr7HT0s0pE862ynJjXBOf5s59Bo3BobZCd2JDvsF2zZkduuN5qqUXOK/WqmqIgtZJQ08RXlTOZQD5YUhWHTEEdZ1FbbBKrfZoHSEaQQPQJpk2/s0ulQ+5qKnKRljTlaAB2x0CDFzGf19vvqqZnjalfb03EJGwHHYIdNYdq1+4/w+nrKS+0qUMNUy09MkfkSFJyV8yIKW/IrEZ64ge+rGn4QQdyqM2Bjum0FgofL9EvUFsivW571SXTbjmioeJo66oqqs+cpUllVZJcZ6z1jP640ra0i+6WTgwTMOrt53/dc13DLDt7eFQtspZKGajmVoWibDwtgH5WPzAgn19dItNrmJ4pIZz4b6r3UL+UNayBfiKwqAgA84+iOXT+DszD6Ek+p0IZSjJyf/ANh/NbKnc9yqbhHcJ6yulq4pmnineYmRJGxycN6hjxXv7D6acNKRkyCQ4ybrKx7qu1h838Erq+2+cQZfhZjHzI9M49dPR80opcmK9Miyl3FdLtBBb62urqinpuTwxzTFkjJPfEZ6Jzpiyt1HkyTOjAkfYHZQrfxWOdmwAJnOfp3p3FVZ7JaB5BN/hBaILhUZr7bWVVLJFMkUlJNGktPMrq4kXm6jIGV9f6eQCRjRf8t1sYMWrJcSNiOfkF0elsNv3BcqyO9pR7dljggqpkkkjeGd0ecJGeTkNmPiDk5JGcaTQNXK2cOPxHOLxpJr90Fue1rDct92za9LfqSWirLhSLU/BqIo1Y00h4KY/l9AvYPqT76cUCpZsaOWQMJsWNk80vhvtBaiiojNcgYY5KNJYri5EMchbzAAT6N5j5Pr8x+g0mkO2VkdNx27UuJ+GG3qbcXihBtS41DtQLJVKSshUt5aSFcsDnGVHponMYN1z+HhRSZZYRtuu8UfhvtaS/Silr7rBVSSxPNOtxcnkrAq3Z/okA/36EgWByujdhQglwFEpK8L7vt/cWxZqve9HPdZoLjMlEqcUeCIpCTgR+WAD33jsg/fSLtxsqWFJG5rmvI2P1sgd8ktVo3nZJY6dxbIaqeWKFMSSRwtUyGM8STlgCrBScnA+uhk+F1rHz5Y48yIkbD+6fxTGXc4uSpZpY4ONLKErqgszHDBWiMITkQp6Jz99AWObTuy6n7RA8EVv7/kuRM9Rd9+UosyyXqW00dRLVyU7FQUV5XIBkCkhFdE7AJK4HtqdjQQFz7iZci2iyOUGm2XuZaIVwt5EDxNOrCVc8RTrUg+vtHID/ZqMN2tUB06egdP/n1SnjY96lBtsNqdLlTVU61LtOvl8FnhiVR37SOR6f0x7ejtbZ9EX+3ylgAb8Xf8KWG3Nq7job7aKx7YzhK2nIVZUy37eZQPXAy0Eg7+g+o0tNd0UeDkRyglvH+P7FR6vZ25XZ6n8NZUeE1A/ap+Q0pqAfX/AM3k/r166TY9kEmBkOeXaeTf53+i3Ps+9fhdRTfgpWtpqyYTzGZMBVanj4evs0qfubTlu6IYEvhgad7/AG/uVlb9nbnob3apJrafmroQqiZMu3xUkeB3684mHf0H10Bb2RRdPyI3hxbwf7KPctpbjra6rrora6xTA1QzInIRvBJU/X1MaMf3Y0VWmfhZDiX6eSfr5BLu4LLW2GqSju1FLT1M1NHUQr5qlWSRco2R1g5/d3pU7kIHQyRyBj12W87JqaG222yVD/FiTjDUVMHCFvkUhOZMRZlGOgCesEk6jkeGijut1nRzMwhx5q/kke5beNg3XZXiVo1F4hp3jeQSdgwyqysFXKlJB0QCCPuNRPO4IWfL04Ys7SDe67iu3aBooo1MCIsaq0YpYyGOOy2VJJJJ7zrnJeuyh5aBwvR4ujs8MG9yuBrT1W3/ABYt237QIKqVKaSji8+oEAIzIAS4BCt19PXXRQy+LGJHbWuTdjGHM0jekzeIllodtU816qLQZXrZoPKArsK6vTxvMygA8sTOV9FAA1Ox9gdx9cqfMkMURfxXquc0Nr2vWulPBtateeTEaxxV7MX+gC8DoxISscdeAOlrLTFs7aE9Zcai3x7crqWFWjSQy1wMirJnjxUpnBwfoMj79mHE/F8lq4uVJIKczYpgvgue1bbt7bFNaDFXXCeluC5rB5scqlk8riU/Z9uSC2fXONAGlxsqt1HJDCyMC97Tmtghn3BcY622NOaeGCcQ3F455VaUymXgQvEAvjHH2A/L+UJ1BtEbgIYomTOLZfTlLlls8cu3IqvcGzqShqpbqYZoI7bCDFSd5kL4BBC+jAjsA+h0bC2+NkpsWICtiuVbpu1noplTw9ut8RncpPNNIyLIhyVULjlkY7Jz36aJgBFKXGxseyYwmnwcuNLf46ii3vNuy7U/xKRLHbecismCSjKoznOCP0OopmkUBwrEkUNU699qA5WVwhslivV/tlmgWltk0gjBvlOI6umTygfNVXwX+csoUDl0D1nQSm/ZUYy2GQtb+a7rtbB2tSQlJlws4JEfIdyNjv19fpjXDdQNZb3L0Lp4/wDjNXKPGK1yX+Kfb9AJWuEs71USEYV0id1cEk4UgSBu+uj766zp9fZmH0XF9X1HLc1os3+yEWumuDtDA1MI6QcI5CbnTFggXBwpbGSO8ch+utf7TQ4VMPc8adPb0Qraux62vv1woyI4ks9QnxUVcrqWXzCvD9mHOSEYEgYH19NQA3q9FixY0ssp24O+663DU7OfdT00a28n8QMstD+0+ZPKKuhHlYyPkKgY4gN330nscav0WuxjA4ivr64XJ947fqqC5T1JqrdKlVUzNHHSmUeXh8lG5qhUjkB0uPTGhcHRnSVzedG2B+o8H68ks5kUkK0iZPYDFe/0x/dp7KhbI4DY/X4qhU1ETELPLgjsNISP4EaI7p3Eytp+/wBe6nx7gvIZXa51coQp8vxDZHH8mPTBX2/s0Pht7BM5h4BIPz7fXyTlsu7X2W40tupJbhHLdawcZnI4F2BHNuYzn2yGU9+ugEep24U/T25GsxEkXymqj8EL66ySLeIqmGniMkxipSCFAycfN2ft76MNB2paZ/00038dKJ4U22W2+OtloEZ6iOmr+PniMhW/Zk/u9froYwNQIVDp+GcbqLWjcC9/kvaY1ortlfSSVaSSsdJJeF/HB1XxV3IW6Ar37P7tZTj/ABHe6856pG450lDukgVlMD1NHn9dHRVL7NKf+JWSzxu5VHjLDsgHvSII5TOhfH94ELJJ0RjKJkQo35i4Xiw+/wBdOBakZjzEBzWlFZN536YkndFe7e5+MYn+/RaXFXPtGeTZLlDk3XuKCuplg3Hc0d5PnC1LfMuD69/ppBpG6sty8xjH6yRt3Tna7heajZCbgm3JfvjoFn4BaksOpDGDxJ5BeP5mGR3jrQubR2V2aaUwCbxDddvr81J25vyelsMtLcKS+1VefNKyLXMnE8PoB8uOifXGM++gsl1AKDH6qWRlkupx33B9EsXDce5q2ZFmud1PlkyxRtUOWjBB7BGM/KT3j0zqQuq1lS5mQ927ztwgbbi3C1JOzX+7OebgFq2QkfNjr5vppyPiVo5kzntBeeB39EFLSTu0s8jyyueTu7FmY/Uk9nScSSge8k2VnIWkYswTJ+iDTKMGtgscdOflBUAgcB33ptW9IgeFfgA7D2BONMhvZbLcoFSf+if7xo3H4UE5+BTLd+WbP/n3/v0x7KvPyPYJ18Hb7aKKNbVe6CytBUrMlLVVdqFU0dS7Yj54BYpnIwPQke2dODut3ByWid0TgNxsa9ApO8r+lFeETblbSwsKVYq9rdRmmp5pldzkRsM9AgEkeoOOtRvcQVVzMzwpR9ndRqjQoJV3BerxcaMJWV9RK1MTPCFbiUkx0w447++mY5wNKszqGRI9up+1p38OrTtrce1aIXO7X2mraEutY8VT5SO8juykMckngAD9MAY1KwC7XVYodkQjUSKvumS1+G+waSQXa3Xy6xtTSMhnirl/ZvheSEhOQbi469wdE4hwoqVvTYx8TSb90Jn2ptSkrIKanvF0uElbcYaZ0NaSYlZZH+YrhgGEZGR6gHTadPulo0urUTZ81J3H4fW6hqqOjt9ntb0z5ikaSarBIzjIHmfc9HUD5QxwNKU/6fx3nWOee6ktsix0F4pKOaA0K/BSV0VVRxVEjxNDPEgXi7uHB8z2Gcgan55CpT9IxmEOGxu73K1XiGq3JdL9XSPYwm3ZBXQLcEmjkkYxgg8Qyk/kGGYZPQ6BxqNzTZaOyrF02RK9zaGjzvfZcx8N93Lbd33OvvFSghrKOqp5alYU5GSZfzEZBI5euPTI0Ya6rHZS9LiJkMhsFyZajfNlexpAtzjZ/gWiVGpWyn/BscfEfP0S6iP92pfEeW0Wrcbitrnspib+sMd/uVSLvC6STzushpW+fNbTyKR8/uA7f+zGgL5TyN1IMeMfgtEe+rGq0Y/FIFaKrhYlaVgQorKtifz+yyh/+0NM7xHFF4UYWY33Zmo4Ve5Q9UKxSK1M3R/DHiK/m/rYT9W0JbISd0WiIDYLU/iBaPPur/iELedJUOv+TNiQs9E4P5/cxt/oHQ+E8uu04ewknSt1Rv2zGqoHW6xOIa+N+6diFUXGVy/5usRuX/f+/T+E++UtbBvpWqi3zZmjiiku0cCGiiifhTsOOKCoiI/N6gsqf9oafwS0UCg1Nr7qU/Eqvh3XUQXK0v8AEC12qGGtknqVVn4Jk+XGTkooJXrvo9aMhw2KxeoY5kfrYOFjS773JNFbopK2nqDHEVVqiigmkAUdfO6Fv7dQuJcN+yyB1LKhDwHcIrtyjuG6rnS3e6XaNBb6xGWJYUj+YvGwICgAlvQt2flXPWNAPj7q3jvflFsr3cfJd8hmpgik1MXIBeQ5LnIxrgshhEjvW17DCHGJu3ZcEu8CS/4QlD5vFYpZ2Ku+OBPmSEZP06122G1zsRgb6Lgch7W9SNldD8UKS3N4U3KonktdRXw3KFKM00qc4admUcSAe++XePU6vQsLAbVfrLw7EeWnhcm2nSLLuSgjxCQ06584sExnvJUggfoRoQLXB4zi6Zo9V27ZEVtttTvSipYrTTx+VSClhMoCyuA2SpY54ggnPWc+g0+kLvMDS3UAfh7Lmfj3S+VcrLUSPTNVVVAJKnyJFceaCFY9HrPEED208Rpld1mf6gcBO0tOy5u8ksVWZlJJDEd95H00VWKXP6jI2nFdA29+F1Hh5daeqtlBFNURTCO4TpEeAKA8CC4kZyfycVOG4+2dMNgtXpktxujk7HYpP8RdhU+2Y6UWmvmvcs0rebTpSnMQUHixPeeXIHGOtSxvDgaXRwRNgFXym3/B6gutBDVl95T7MDV6SMstGGEoEZ+c8sKMdjv+toHhrnb/AIqSSQtaCHgC1E3xFarnujck1bvWO8rTU6yUVZ5AxVtxB8r5OlIJIz6fLoHg8rm8vQ7Mtz/8+i7XSTcquZLdcIK2CAPIVgrFUeXyLciATjAYAnr0Gqc2BDK/U5q6qHqL2N0sN16pN3BXVFj3NQXurojdoBS1vxIoeLeR58/7NT82cD5R695GrMeO1rQ1nAWTPmPZP4r9/wDKi2qBYai/tJYNwsb/ABrTTQiKHlE0aso4Dzcg5PY9TjGpWjQdJ7JzlktIEZ39P8optetvdg3NvG7XSjpqOnvHywrUV9M/kKXc8XCyghsMP4Y0LWgX6qDGkkic5zhQPr2Q630FWL+Lql4pJaUVktfFABE3KV0kyARLlhiRyABk9dnGpHOOjT7K43Ip5kNVRSp4q3igulfBW2qRzGkk0j5hKeUH4YXBOWHyHJ69ftqHZ5K5jOy4Mtwa039fqlylqRUICp4sn519fX0IP0++hIA2WHJF4Z378fXmolxnaNh3pDmlJBGHBMfg3ZqLdW9xR3ahepoY6aQyfMyqWGMKWHuM5x9tE0mqK6TpeAHO1OHw/uvQjbNscdaK5aeqedXDqXuM7Ln2PEtx/djUmkUuk8FodqRGspxVUfws8crwDAMRqHAPt3g9j9dINCk1KRtCxUJv611FCtLUQt55ZpHYN6csLnAbAHeNINo2FE2FmrX3XaVOQDq6p1fSSVaSSse9JJItFQW25T10FXQxySyXSojSZUXK47+bPr6nVZjWm78ymLW+S5vaL9ZrhuWe1QWkRCCYwy1HEBVIyM9e2RoTQ5TCNvYLn/8AhXU9FRbyssNHTRrm0hzUKuDKTKfU++MY79NBkAAbLnf9RNHhs27lMfgbT0Q8HaaWW3Uc8s91qgGlRWL/ALQDj2Dj6fv0bqWt0eIOxGAonHdrFW0lM1og28lbW1ixRwrTJ8ijPIAjGSeLd+g6z31oJHtr4RurwgI3IXOf8JP8NkfZVZQrAHkjqklaNccmSQL9v/B0VjQsDr7GiOwkqxbkng2pUWZpK+VZRKgU1WIVDPnPDjk4x/WxnUTwFgSZuiLwq7UniDxAs9NDRy09snNUgCzsyL86ssCTZPI8maOJl5YXpux0SRMwHAU7epxNaKbv/wCAqFVb+22ldUXCSzVHxz0EtHTn5W8tOEscZyWHHCPGGbs/IQB3o2DXvWykjzMeVxkLCDVfsAPVclH5ODzDskkEAHvv65A+2nOxtUSd7A/VZoYwP5xf9IaHcqMh3ksyQBkEEaZR0qyCr9D0/wBo0k9GwrOwDk+xJIP20k4GymWLg93gWRBJGWAZefDkOQ65e36+2i7IZRsL801broLdRxUT2+GhgkleU1Iorj8ZFzDYxnvgcf0SSc570JDi8nsrPUoWMawtAsjejfspXhVZNv3gtDX3mtobzRVST0tJTxxhpwrcgyNIQpOf6Pr9M6l1Bp1K307Gimk8Uvo9h8v1UndljpKjxFvFm25PUTvSTuahqzihRueGIx+ZRyBzgHAbrrUYo3+SqZ+AG5XhxG78/NMSW+52vatNTzTVKU8ZgTzYqSneGpY1asBGxAkf5cEZ/MOusaEgOY11rQEb8SItcOKv4RvZ7FTd13jcNltlNTfEtS1Dzn4qS4LGXiQ+YY/NaN1VyxTCu7L/AEfpkz1qc5dBg+L4bPEHnzz+SG2fdV6pbLebgaqJJZ7osE9aVdokjNPSKZscgShABGWxhh3pi0EaVLA4tmNjuodlra6/7ohmnqo6gx3OhCTxrhZEWGt7AYt0e16JHqRpGmCjwquXbpwONwt+7amCx3paSv27DXCmiWoqpEuUxWONnYchyGX7Rzgd/LnQ0HbgWreiZhG6Yd5vbbXb6mnrbHGBW2yRlqaaqLSoiVMSNH86kD5irddHjob1qh1ZwhgcHjYpKpKm3X2GW5T7St8wlJAepttbUSuq/LlpY4yrE8fbA1aihBcB6X3UOPI18OrT/dIvinS0tBuCeloKL4CnjldYoBFPEEGc4CzgOBknojSbWo0tpjA1gAFJKNVEKr4XzP2nqBg/rqS0VKQQ4jDd8fc/+P00klgSWBBbP00k1rBWYYySTn0OmtOsssMDP786dCs+T4yM5/XSSVZbjkY7Pqe9JIBMfh1R01x3NRUlZTiqgkqoUaJhMyyBnAZSIgWII6I9/wBdM51MJpBI0OppPKet4Utr/k46Um3bRSGkYcKqmtNfHJgMMjzGjVO+x83+7VKIuezcUSqPVIYWMcGNB/Fa9n3/AG+19tMAgudABXgeRTyEwyeYY1BZpCCoBUE/mz6daGNrozqcsbFdE4tZuzfi7BXaJrVGlUwdzGVbjJGp5ZI6OGx7kfTrPvqg/pmO82btegs67PG0NBG3ouF+JNpqqe800N2NLPWmkSScwg+XzZmPWQCPX6atsb4TQ1p2XnPWsqT7VrLtyOyEWmyvXVKw2+2moqD6LFFyb/x66fxHVZWLG7IyH+Gwk2useFmz6mkmakraz4b8Xpo6iN4KtkljCPISpZGDAEAEjIHWCOtJsugGvJdd0fpr43ETVZrhZb0bb1qvF327dPib1TwpRSxw1E8tQY6hllzx81x/QZWI5Bf3jGiDi7SRyVtOgYHGN3A3SRdKCyX2kZbLFSWKnhmWSoWsDwiOQRFSvfMjkSh6JUA56wcWHNIPxrBysZkgIhI5Hsm6fw8stvslNJW09skqo6HlVFVlmBmVcsSwmUEEnriPQe+gbICFaHR2MZvyB6rnW5KWiXc1Etvp4aWGSOF44VZuKM8CMcFiSByY+pONMQW2Vy+WBHkSNYK4/Zdh3dURW2lJulS1LMkca+csnxXzFnzh5IyCD8gAUZHEZwMaNthlALsoGuk2dtW2xtLv4ZbN51FbQx7iqJqWnpxLTACOFpXaBGdG4KvNVPJ8cSwAx9dA6TajyVHkYetxZqNLO0eFFig/FK+hqfjZKEKsCXeLhTs0kaEMfTlwJbvOCwx1x7eV1bXuq2P08AucdwPPjjupFFXUW0wz2qhtNPTVFMxSngZ3lqFBHN5UZj8uOOA4z30SeWpZD8TT6b0mwGESOAArtvv80M8Qq+L4qio6eJkENJM3JuHLuopvdQDj5ev36hjf4jPmr3UIzG8N+uUQvG9qirusEMNpgp6Ce8U0cQLjmkgqBlivlgdmNySG5AMMjvTl4Ly0q3JXhCVo2JTpuXcEdy2eKa3ULVa1Ao54nlp6gRN5UolwQsJOHXAz+nr66k42VSWRpi0jc+ywrb1T3Paptcm33WdEp5VdaSo4QyxJxJjHkDGckAZH5tMX02gmlex0BaRuAuW264QbfSlpK61XKmqvhZ1nVoAkhZ2BV42Y5A+RVOQeuXrnVYgAcbrkIZ2Y+lrmm6N7b7+RS54kV1LXXKnq7XbGtaU8LJLGVwyyNI8jMR7qS/p1j2AHWjBDrtPNlRZDw0Nrbjz/AMoOm13q7bR3OS+UyVFakjRxhg4DJzLJIOQ8sBUB5YIPNce+pC3a1q4+Ix0exFJ9/wAHaouo21W1dupILjPRXEcafIjcJLG3M8z16quB36H7act+LZbfTnARUey6xtV7oai8190t34dLX1SyrTmoWbgoiROmHX9HPt2TpyFdJ2Ue515qNx2z4WWrmp+Lt5lI3JA4ZRhuJwRg95BAB9jp6ohE00CeydNiPIbpOXYHFPL19PlOkeU0fK67H/Nr/wBEatBOstOkq0kl5Mun+EhvCPd13slBZKSVLfVzQGWSUJ8schTJ+U++P46rF7gLtHslS8eNlU1SKyutsCyTOZg0FyqVUkse8LFj1ycagDNZJBUu7APVLz+I9lnwyWSWQxM0wWG71EZLYyzE+WoY9erEnRCFx2tA6SlouXijYblUwT3Ha1ZVyQQmGJZrgZVVCeXQdCMk++mMRcBvwoJseOcfxBa2Ufi5Z6KlWlorFc6SCKfz1gguAjjDkgk8RHjsgEj3Oi8N1coo4WRtDWbBEbReLZdrPWbh2xtuntFypxUsK6Z1cxMEDsVAUAlwzDv09dEdLWFrxZP5KLJfKwB0ZG3mgm+LFvWKGn3BuW40M8aSLGBHPCCTIB2iIACSACSB6DJ1Hq+Eilz2bHPJE50tUEv2aQywksAMOwwP11HKdwuby2hp28gp6lSmUxxwce2gFONKoC5rvVO9vtGzL1abdFaKWCqustolevCGoM6VQjUxMmf2YPmE8uWF4HrvGrQIDaA3XWNhg0hrKOx29f8A1Kceyt2x8ZF27yPLACPEzE5xxGHJLHPp66jFudSoy9OmAp1/XoiexbVX17m+wUNFUUduqHWanq3KtK8UDzlCoU9FYyO/cjT6QRuhwukzOIk2NHhb6vwt3RBTh5ntylvM6WZjxw0Hr8vX88v8D9su3yVs9GmBFEKU/hluuskprRSQWdHpKqWETecQ0zNUmn+Y8fTnCxH0DffGmDaBRu6XK5oZt7rRR+Hm5aKOgvSQWqpiZ6epWneQkMrxSzBSMY/LCyn740YjAaDaib0uZhDjvX1+yh7FslZu7cdxvNugo7VTUziUxQRtIkbsSyoiMSSPkYnJ6/eBoHfABZUceC/OcfDFVumSv25TXSgE9PUU9thp6k03BLbNFGZpZAoZmkkZsM7BeQ+UddDSc7WbvZWczosrmAggadqUjwyuE1PYK2O42/aPkNPNb6L8Zd0mlqG4GSJWXoL8i/mK94ww70LqLaKfpkbseJzXAE+vmoNXS1VDviESWy1WK5XO1slPTfCPJGk5nkjHMSeYeR4niwBH5PbJ0LqAq6UUjHtkZqYA43Q53Wndcu9Y7tUVFG1ZPDTzfERsoCwoIhz8wRA4AHEtjA+uBoGt0jfhRzxZss5c4mhX5eScfDTdNn3GtTJLOz3CukUPQVTTSKjLyJeBlJYRsW/KfyYI7GDqZwbsug6f1Bj7afvHsmqnsNVaIK+rkitpp6qdp6rylklaEeXCmEiXLscQk5z6n00WgaaVnU9r9R47rje5t/2l7pHc7NRy/FJVwTMktO0cZSJJkwcOW5ETHJGMcdOBfIWPl9QaX2zkJlqLTb7zs6m3heqa9VjzUEvmItVU+Y6xnIXiWHNQz5JPXZb2OmjrXQFBXjO90IlJN/oh/ipcRa7pHt26SyPSSUgxcIaiSpmgikcScAjyBezGhPf9bBPuYACzs+driI37gj6pDtrU9O9iMNLaPjY0L+XPJboy7ryOCT8YuOvt+8+up4njWAR2RYwYINQO1+yVfF0AbrqVWjWjXz5MRCFYsDP0WSQfwbTDSSaW629IBSL5EPxBqhEPOxjkT/s/TRIwU47LE626eFKZpHqnHlu0XKNVHTMc9ZH098/TUEhF0pGDZCNzUsEEsBijVHYyLJw+VW4uVBx6AkD261I02FGUOpIPPq4YWfiHcLnHY79tGkpy22MfLLHPE7qzoGXBjQejN9ietDaFDj9ce3pokSo9EH2/t0kk2+E8Zfd1DxpDVf5VCPL8rzM/MP6PmJn/AEhpf8So3feCc9zUZn25VIlneBwpPmC3rGRhx/TNWxA9j8pGP46qs+Bnus/qFva4D/380kXja96tFEK6vpDHThwDIlTFJxY9gEKxPsf4aj1i681z7seZjdThsnbw1qK+60N2sU1c1IJPKaTjbviH4knMgb1RRgZJPWRjHZ0xNBBjRSOY6MOpprsSfr1SvUZ+IdPM80KSBID0wBxnv6+uoyFhvFE72nzw7td0oDUVVRa6+SnrqeNESD5uSOykOyLIjcSueLZxn66LQS0khbPS2Swu1URq2/H65TB4f7olTc9xa4XF3NrBipfNmV3lHnSDPzMASAwGQfQDRBusGzS2+k9Q0yPY8/d2H4lGb9U7VvNyrLvVJRxzBIP2j1MKPUTLzyceaMBBwGQc9+4yNA5g2atx2UxkniWPxS3DcNtWG9RXCO8UNtpWlDyGGNKwq3lnmJVjaQ4YsfnyD0MFfabc1ZVCXIxxJrJH6q+5trC70097prxFNFcaHzZMxgtwVRxYMeJUH17Ue300DXWzTp3taDS0t1seSHBEbFYbBbrBLui70c8dVT2qBRO8sE6R5hjBZYSpIfrGGBx2fQ6IEkjTwsvHwYXTPe8bkDmj+SvZqam3XtqpuFqrWSFLiq0NSLZGr8Hp0LK6JGAw5NKPmHWfXRgGiStCJkcJ0tA5Qe0Wql2ju4V11p56q3LU1E87yU5T4pVtzNMVUhQeyy4HXWNCBZCrTFrMgOPBv9E52vdW25rtaqWxWyGiq3pZpqqq8mAF4eUYUfIzgHsghhkeuNTFrXEBOJ43OAj2NISLrbqq9VUi09HWzU4hdqin4SkLK03OPKLlFDRBjgnHI9dnQO2bZTNaI3l1b+aEeJs9JU0a1SLW1PwkZUjizsVkngwvoAoHA9n1LDTMFiigzJg/cdlI3R+BR3UVyW808/xqM5FGPPIilRuB+UMWwnHGfX3ONJ16rCsnIa5ugpD37u7w4Nuo4NobeE9RS1kUjidJYg8AQ84mIcFgzEHOcjHR0ZUM+E1zQYm788qHFuvYVXYFpKbacyX6SBwfJ810jlJZgys0hJCjAwc+mdM7iwFFkYrW47tqdXmUT8Mrlca69UdpSSaVQ0jxGOOJ5Yz5Tcghl+UK39IHroEdjVZjrcAVyuKHvlEW/f3/ADUTfpY7jnhkEiyQwxQv5riRgyxgEFh0+D1y98aZ7dPwg/NVM538ciuFe3TGm2itopsR01XBO9ZXCv4ilILcI2Vj8gOMkIATyH5s4EzXC7K6bAn1Y+k9xz9d00f4JqOm2r82MFqyBQT2v83JqUmytXp/8on1XXNwQwyUwSDmHlV0cO5C4KgDseh/N3odleca4STQ7bqorhR1lyr4mlopGZfhUCCRfk4BiAMgENnrJ9M6IJ9QPK6TsNw90nYD81NKT9/lOmPKeNdfh/mU/wCiP7tWgnWzTpKtJJfMzc0k8G9d2IWeJKq4VaGUOFKAVXPPZA9UA7PvqvtQRDm05WXe+5V2pBaI75WVFLQuhpVioaORIyAF7YPyJwMepzoA6gQEZAO6DbyvO5L1TNDeIa2tRkYKgokp2yQeJyr94OD6HOMaTaHCZzXE2ubR2y7S1hpYqOYTEZw4EYAzjJZiFAzgZ1MhOycbHs4GzVr3AqtbDbqusKw1KyeWYlVoweBKnl84IPfoesdxOO9hTMoik/TQWuxbFFmobtXQQkCWpUUTGTz5qc8oyx6dW+XDqAF9ME5Oq0zzrApRSsbJGRdJDs1VDW32K3V11S526gScUSV00sEKgAkEcMsD1niB36alLSfhGy5l1klhFtHmV1HaO07LcLPd7wKKBooax0jWlrZRAqinjfCFl5HJL5Ld5/TQzCnAKxj9Ix8sFzxx6rLY237XuW4xW+aw/DGop0mR1uUxIDNxxgoD6+4yCPQ6cs01adn+n8UAmuFH2ruSybC3ZULJbqmGgqqOMqsc/nPC7QISOXXJcsf4DSJJHwqpFNFiZbg4fCaP6qHc/Ea0m319vo3gpKerkkd2htKiXDMpOC0hAb5BhvUHv20zIqO6vz9SjmaWt2v0Wuwb+op7NfqiqrKe31Nfca6rjp2gdzh6KZVAdcZ5M4TJ98H0zo3M3tS9PjOkvurKaLv4g2KUyQw7kt7rmoUSCmlBwXpAD6+4V2/9m320FHyWmYh3K3WzxGsUW45Z5dyW9E+NV1k+HlClfxOaQno5xw4v/wBFwPXRh7xuOPZCIGWL/VDqTxBskdmo4ReqLmkMA4eRKeBFFVKQe+8M6x/q49s6TXv2vj2UboGAaR+q5r4fb8um2a+f4eKCeKoj4zQOzIGKg8WDIQynth0cEMdC4bGxa5qOR2FZaPq05HxJ/wCDFFLty3HMqT/ta6qmVZAwdWw8pzxcA8T0SOxoWkimgcIJOsyOeQ9v69lH2FbdvXOzPLu6910EdZdAESCaPhFKIi4lk595btQR7+ufTRWOK+aeBsUsZdM41ZWd7q4T4i7LraaprqmklipWp6WsqRNLSItQ6hOQA6PEsAR6NjQ21wFI2AOkicCa7X2CZvGCmaymwNTJSyNcDVEAQoJATSOuAQB1+09PT007pC0EBbuVADGA3lYb5ek8GrVa7d8NFXV1ZTFp6cOYjK4xyaRh35aseIUDBKt7gnRBriUODhMxmcbnkpV2l4r011vcNDeLTBYBK6xrcrZUOvwxJwGdHyGUZ79es9HSLNO4K0BTtimPxPssFbTfjtXBTi+WiuiprskAwk6l14yY9weQ7+7KScA6Yk/gsfqGEDI17K532RHc1XTXHzqf8GWla4wySyNPJIIG41EKryBYjAyexggFgPXUYeHAhoUvUIC1gI3tI3ibDbJJrdX2ShtlLQS07J5NGjZQrIQTID32cjHqAB2fXUoI2pc1mOEjxoHtSl7Xho/wKOA3W2xN5RJjlqLdkZJOP2sTPn9Tn649NSgjUPZbGDYx0seLCQJuiqEFRBPH8RLhoHgdfUdAwqqH9w1MTe61mDbdJh9c94OkpEwWK7UdLTCnmSpgkDE/E08nzEE/0lPTfv1E5lmwnDuyi3yeOaOnMdR55DSlm44OS5IJX2yO8aJopIlQEAadVKO+WAKp6n7D170aEoolPH5zyPQXEAIfmlPID5T6jhoUyD+oJP0GiRK/06xgaSSafC5Vl3VQK00MAFXCQ8xgCg8v/rlKfxB/v04FghRvdVH1TVudaCLb9WguVC7cscI5LWxOWGCFjj8z+DA41X000V5LLzZKjeDd/JLW1du1m5qusp6HmPhqcSOlNTl2kAYL+Vf1yT6DvUTQDvSw4IXSmh/dPW3KR9i09RXXCurYgKikepp5rWDIwHmvEy+YcAAJIAwz3ppBpZwp3CTFdbnENJAqt/zUy+eHk1HJVVb1NQ9MknN5VSIlUZgA5XzASPmGcDPvjTFocS4BC/8A07ITqLxRSler/bajacVsqWuFVKlUaON6eGGNovIHzBWxl1PmdcvTGffRsaXkkq/jdO8SJrZDu36+rS/FU2SGJ0SmvgCjkeXl/KSPfI6GidFZtSSdEhkNklaJn2/P5kix30FiDxUxY+hPQ/TRaHAKVvSImjSCfRSJEtLWK4y283aGanijfFQYykqmVUI+UA+rAj19NBRBtyqZXTY4gXNJXUKTZm7odtpc4b9eoLdDbFqVMMqcBFxVm4KZgeiWGMD06Hpl2gigpG4E7GbSGhSl7b33BY7nJtu+0sc5+Ilt9RecPJLIRIQJZI/VxgYIznH6Y1Fpt+kqPF6kIcgwubv5+abRetvU24bxt+lgkVVnpqnzowyxcmpgo4BWyV4x+ucZJx6aT5NDauwV0EOmZ5aRuEKtc/xHiCZkpmq7Vb6znJHI0jIOdEVICMWYB29QoPucYzp2u1URvuq00YEwFbD59k51EVruEtMqW21U/wACZ4qoxAtPxkZMIyBFOPlb1GTgcc96kGpzhtsnL4QTVWLGyQDbrLs41tRZbZQI8pjNRTRRTFm4tKebpMoHDMigEZBzj20pRTbTRTxyO0tG/fm/zUDxHq6JYYY4YCsoikImkK5AE9NlflUdE4P2x166hZLquhspM2ANqlH3fclvduomkt6xCa+xRpJG6chIKjieScQVJwT6+4ydSaviLSU8rAIA+u6WNveHO177c6pLXveGrgpqEVSxU8Tx1KMDErK4dOJ7ZwApJyBqR7hvpR4sok4KiQ7Osm0t4XFNx7voKWa1xN5VIIpXmlLU/OMfKhQZLgHvrUbnmuFWnlFvY9wGxC23qzHbfkq0N5pKx2UK9RTCKJsx8m4SKx5HJ9vUd6ic3SA4LjM7EMIDhdoVNJJO5eV3d2A5OSST+/66EuJpZJJJsoBd1AnDkDSDtwtLFJ00umeAkFxqbTV2u1XOC0z11aWjnjHKUiGPLAqflx84wfu321MHEOXZ9KH8H4ium7cgu9DdrtQ3e6zXWSkqI0SplhEfmKYlfoDrALEdZ7B0dgnZaDmkblG2WJ3BcA5P1xokKYdjfJdpC2AhglAyf8w6Y1akj5XXo+o1H2GrQTrLTpKtJJfMK/SVdTvu8GNJZpZLnUtiPJYkyMfvnvvVahQRi7Tt4UfyxHiDYqGpiuy2KW7Uxq1eF1pzhxjzMjj6/XQmNh90Ze6rK694/LJPScbkv/Ba1V25STOUVEVE8gBvUfOSFA9ex6ajbKXWK4UnhjuuG+GSxnwwqDIsbO1x4oD3/wA7Tt/3Dqc3YpQ0C02ukeLFr2BaPDi+V/h9XW6trXo4lqnS6PPUx0zOgkYxO3yAnAJC9A46B0JJvdPp21Bat93A08Dkbgu8Qjjip0C0GRApiY+RH188TH5i/eCSPbGoC3cEhBLJoBAK5b4bXGen8QJaukeuqpilQVeOjMssue+0VWZAessAeP00XIWFHYlJXcNrQxHbO4J6uklnEd4neSOoqaiic/5NFIeSR49lP5x9PTONC74a2Whhw6wQD3UTw2htlxvCRQ7RgtUs4R1ljvdZlgzMveCDkFW+oPsTqWQOBAPdFFDYdR4XM/ESopKzdkU1BSrQ0T0tIaen55WJDDHgcm9cDHbfTvQ3tZXL5dOyPh425T1Qmyw0CxNdbMxikmyTUWmTrHQDSL/DGR9MdaJ7neIB2XRY0TPC43+S5A8aTVsoIDrxyCPT0Hfy9fw61MdgrbAsBDAwGKR1b0btsKesAj9599DZpScGlhW06LGvkI5bmfRWHQHYOTogd0PZQ5EnhwJEkjB9OQxnTpgur7He2RWOR5K22wzLVMGWZ7YJOPAd/tv2uP1yNQzeigLG8uA3tKm62o0u4jpXhlZ0USPDNG6YHYwYxjP1/doXtNBxXMdTazWCO34I94NU1DNuq4zVsFNMILTUTRNUU/xIikXiEcQ4/aEAn5fbJb20Aqt03TnNBdq7D627qNuC60dF4m2S7VUsEtNTS08kvk2k0I4pIST5eAW6/pe/oPTSbdbKyD4czC7t6Umsb02ret5WJyCgirfkWWSSfBcFFVAYlAHJhkknrThgokrX+3slc1rfNC/8LWOa4eOUdGzIPMo6aKBiwCopaQ+5AHzs3ZI1KHbLWLNwuaXWz0NotU5FfTVNb5yqI0mQtHjly+VXJI9Pb9+hsk+iZpAPqvRFasV8sU9NTKIKufb9tkmquPMklmctxyMkH7950LasglBlNJjGkbpa3nuGWntUdD8JeKWv8o1k9RDSQzJTKroXkVVI4gtGpPJnxx6HvodLL55VSaOd7aaDYRu1bXvkwpad9y3i1U8tLJV0/wCG0kVPTyASJ5jMEkwHzIDlgP3daEbOaAeVSdiv1HU4j2CGVAe1yvBDFuL5ohLxq6mvWdXYcj5nkwMnIEn0/f3qYktIB5UuOG6DpB+a5r4vStJuusMnxAb4iQDzpJ3b1HvOiv8AxGrbiSASrUXJ2SV7E/8Aj9NCplIoaY1FR5RlRFAyzH0AyB/eQNATSQFrZX0nws3liVZQGI5D0yPUacGwie3SaWqmI+JQsqMOY6fOD+uO8fppIUYqp6ZopUSsekOMNFFGeJ+x+UEfvJ0wQICSQRjrRo1k3r98DSSTb4TStBu6hlUThlqosGF5Ff8AP7GNHbP6Kf0J60qBBtRv4CaNz1c8+26uOOK5SQFgXDVFc6HDqSTyhWP29yP7hqM6WNA9FiZpJa7Y8rXsS4Vputwl23aJKT/IUVqeEvUsE85eTfMCT9fT92q0bNzv+KDpj2uncY27bJo/Epktm6qfe0MUzCjSK2pJS8A5KVZDcAykHpwPTkMdDOdOAOLFLSzJQ1ztY2/BdL3XBI3g7XO60klesKkOsYDKvxCjGfqE/fqq0vDqs0r0rWnHsgWvKivP+HUS8QZRd63H3+WHo4+51dgqjSqY1EOpSUPmRSmNjwCnkEYqUb6EdYHqMY1ZAF2rIce5VWIuE4skUkUsR5I3RwASCD9c/wCz7aBxoKRtXRRSipay82i5UlJSSS1L0qLFHEhbH+UwkAD6Yz/bqJ53tZ/UP5dNC7PEFpfCyqt9xgU7gjtM/wAMTTOTHGIjgO4XirAF+mIIyv21SfrdI0ngK+BWM5ruaQ6rttvvF4tcdqqfh6+33Ouqq6Wm80VEZEpBZeOSzFnjIAA/KcHBOLh8Nsl91hSMbJM1rDuLPqjFlsrSbiuNfcrxHe7u6wQzedC0LtLEh5t5L8CiBJYulz65x82o3xNOw2WniPfG4l2/Za6ekqKTdF2hkFLSm58JIk5kDgkcSOQsbFuyWA7Gc5602zao0jfchOoXaJ2+uWDdd2t6wWqCquFElW9VwnVpA7upiZGYliABx4nHff00zvi+LUUMeN4TnBrRbu+6HVU0CbseKoio3mZIR8VDHKryQtDOWhKkMygfDqfkByWzgkkaJjSficSgAbDLs0aj33QvxKFFcKF5RWyzT0pFOKc08yynzXikU8HiTrjTy/MC2fTrGk2wLUPUclsbQ5w3ulJvlZbJLfPVUtqr46CmngqZas0k3ypFKknJv2QBJUDot1yznHemOzrPKkb1GPIbpaTXPBUfcmzbVDTpVUt4WzTZ5okMVPC4BJHEFVVuIx6MTnHfejnk527Aqxj4rDTmuo3yFpm2da6PbMl2e9Q3GreSIStWJBM1QXV1KBipkDgKGHFhgKetCyTU0uIVbqOIyGI9z691zCs27fbqn4jHR1EzSuo5yyBfOJ/KQWPrjBB9gRn10DXBvwlcjEJ5D8dkefv+3mhsUk0c8lBXI8NRGzRuHXiwZThlI9mB9RoXNo+iqT45jcSBx28v8KPdIRJjHroAmx5NKNeFF1i2pvAXWtM/wrQSRsIu8MwGG45wfTU7CaAW/g9SZE7S87Lu1HuWG6XGOlpbddpJZclP8kHFsKW6Ytg+nXffoNSa+y6SPIZKQGm1O/Ekijh/yKskMuSoigEp6Ge+LHH78afUeFYIFWiPh/u6mmvqRW6CpeSodabNRTuIwSQSAQDhsEYBwProQ4k8KAZkTX+He5XfF+mrysq+kkq0kl8xqqPnfNxVfBmhp6id5YwgdipnK+h+hIOq5bsAi7pm/CN12Kxw1A/FLXSVjiSOPjTosrKAwPHlnI5AjI9xoNLSbO6ktxFBDN51m6RTLLuO63JmVD5AuHkyZOPQAEnv9P10mlpNhCdVJJt25brbJmkgjiMJxmF4h5RIOQSq47+4wdTUgBpOdBvKhqdrXZ6tYaarqbNVUTRQ8uJld4/LKqxJ7XkT3j5fqe4w0hycuC6bdrul52wLvaL3uCejWmJLwImKZkiJeBRnIi+YM3IZyxwCDqu9zg7Snk0AFzjQrsuYbfr7Zb941F1qoq270sjzcRNMYpJQ+RyfGOyCcjr10IdQqlyz8wRzl3IXXPDm4UFz2duK6S0VSKL4uWZKdat4iFFOmVYqfm6QAdZ7P11ISXkagtTBk8Rr9J7qRt+32wbQTd1jsddQJUUkksLG51PKN0hlkRHw4x/NsOj1yzpONmjujkBhYXj8kh3Clu0lgk3ItbbKCmqBHTG3QTtzdIiIwo5ciWHEE/MWwQfcaY04EALnn+IR4pI9u6dqCaQUzGR7mJG81gorK5c5Tsf8Vb9+P3404HxhdLALjDqO+9fsuLzjzKypVXwrAA5OT7e5wf1yP4asnsCpwdrCuVDRIQiOnar5YY+4Bz39hoT5IxzaxaZIW85inmBhHJgH5Qcn66VWkNlhOP8AJMxlZIyhbmf6HQ6/fjTjcpVQXTdjuRY8I1YSKtiiRVdQgJ4DACpTOP4PnvUUwJO6iBqks39oqbdqz3e01E9M8fywfFyoT64PmOnLr6Y707nWwd1zPUNDZrc3ZG/CRrVHV3qpqJb9BWwW93ge2EAxr5iAsTyBJyVAB6OfrjQUNJ33VbB0W4m/ko3i5RXBtzU0T012meG3KJam7zipmlw7ln+RmVVXPHAIwV77zqIkN5KsdSkAeBRsJU2vTyR75scSPAG+Op2UlMEnzV6H30TX20lQ9PeJJGnfldD/AMK+BX8dLX8N001BTqMFV7+KqV9WBUeg7PWp2nuu2f5WlXxFpX/k4BHTzUlPSzLHIssTKWY5GeTwoXP6HA9hjTMPdC4AVS6xY5nh25b6impGrGk2fRN5SSrGZCkiqRyPSnD+p60w3caQ5btEZckK4XCmubJNXLUu7w+Scbgty+ZGfVfyehJPp38x1DVnjus450zf/Qnnbl9qbzcqakum1qi6W+nopaX4SnuNNVGOF2RncwoA0g5RoMk4A0YJDWgBAJ/GeTIwnbtRWFwSue91iQ2apgRHIiiqaGUyhAPlVvLqkGAMei+gGSeyRlk4JVrGjskNuvb/ACuVeMsM1PvKthqIjG6VEoKiFovf+q0khH+lq+bIBKOM7uA80jPkkBTgaZSo1aaWHzKaRppIpZo5GDCMOg4E5BX1OQNRk2lstW4qWqp543qmT9sC6cUKdE9kqRkE/fTtNp3KHbuZuMBj48vMXHI4GiKEogAI3kjipsSGJniczlvOVh2cgYYYBwOuxpkyELj2OMjBwM6JEqYdke366SScfB+OV940S08DTyGqhwixyOfz/RHQn+OhsXuhcLanXc1vvr7ZqfKt80S5GW+Hnj+XkM5Z6lgB+qH/AHNLVNFdlh5LXmN+kFQ9jRXvZl7FRXWulENx40bPJWxFIyWDcmI5kL12cDH1Gq5IaDYVPDdLiSCxztyreLdTN+ztdZDAamoSCplkjqkl4BFmVU+SNRn9qx5d5HHHWmcwNFeaXU8uRzg143V6zxSutVHItVRRSxyKFlj+KlVHAwcYB6BKjQi9NWkOsSHYtUCy7ZWo8Np95VSgU1LdX4NT3BYZFeTgCOLRsCMhcHIPZ6OmY4tsBXoMmSHGdMWWLS+34AS7cLmjOxYk3aI8iezn9iPpqZspO1KI9dBG0ZWBntkUDPTQXSSNBhliucTEL9P5nS19ijb11pcGuYRfmn/w1hFDWVIjsW4vOqqJRDJUx+bA0RkUvhVWIn/pBiBn071E95cLHIRjqBlG8Z3Rq7eJdfFW1VE1vjkiQPSFZKyVlePtTkBuOSM5I9ySNIngLMm/1HM17maB5Jh2TU3e8bPrLnS3Saz19bTzSRPJBEaenUy55IM83BGAC5z8xJz6l3ta8kjavrlbPTnPLxIb+Lt2CAWJL3aoLiJj/Ke5COqkkKMIhUFI6IkAsMdFfp3jrvTxPFnsrb2apiAL+gtO0Fut0v1JV1FtloJYq2rqmow3IoimjcoPTIPfp9dO+wdt0LI9M4FVyit1oZ7t4sW3cFIJI6OntlNWFChBmSKokBAHqc4P/wAdPRc6wFcrTJR8lfc5nuO/EuFrVqKQw0ZjkeMqeo64huLD06P8DnSLxVlVpmVKCgm2jcJHnku9zrb1P51Oqz0h+GkkxHWYiQ9fNjrHqeX6ZayDsFR6mAasn0rY8FF7rRVD7AvtfNQNGz07R1lOblI6wMI1cERnJVlYICHJHEHOlI3g2qmIwCFziCCeRfCK7p29cGpZKmnmsygKkiJWW9nYKzYHfmZfodt1k6jlk0g7LdjxHE7OoH0USe3VFs2qa+rr7I3nBIfKgomjZvNDqQrh8hxxLYwes6HxGvAB7qHMhdDE4E2Ut3Cn3TLbKi519BZXttbFBVSco3aIIMBCFUngOIXJGAAAuR2NPJzwuWdHlNaZHAaXUfQf2SFvGhrGvdTPVSQzVc/GpZ4T+zmWQB1ZfTHTDHXXpog6vhKoSyOjkIkN+vv+3ohVLOJWEUxBf0Vj1yx7EezaFzaOyili0/E3j6/JSOAwRgY0gQq2pS7FUtaL3S3WGHlLTPzVVfgSeJA+bBx65zj20g4g7bK/g5xxZmyc0nWzeLG5LTSVdPbqKOmNWG8xhVcuPL1KAx/L7fbRl9Bb/wD+StHDFl4Q1Rr/ABysFc0QiM9cpK8uRBEZH5sDOcZ/fqKOy9t+azsbKGV1JsoFWV7g1qrt1Wkkq0kl44h/wcN80V6udxpLjbZBXSSM8c8DkFWk54OCPfHYPtqq5rnVYUgcAdkErfCrc8bVFJ/Kiipxb8RzRxvXokRHQHUoXPR9PXH20HjNBqkgNybO6WL7seaJTTXTxBtsTTIyr8Qa2XIPRwJGYZ++Mg6RlA7JF3YlC18FKiqua0FHu+2TVUkXnRwR087uUwMsOKen92i8b0UVsGxO6p/Am5LXGifddqFSG8toGgnDhiARleOc4IPf105lIHCdpa40Cmi2bd3BsvY9XaaZ4L9BULUealEWaVWlQIrIhXkQMZbo+2gewOb4t+iqZestLGAmwue/h9TS1Kx1dLWUkoBYJPA0ZYfow79dQGMtFlchkNkhFPFJm2FT7gq6o7dtdVSR0786smqp1lQcEJJxxY8uPXQ70THg8q3gTSTO8OLnlOVptl/qEu1rpdx2EfDxOtwjiozC0MZjbn/zQIJXl6d4yPfSc5vIK0pcbOLCxpA+SB3O7S2zb9x2TO1pSOikQQSRUUjS1BLmTHmh1wMkHsfT6AhzqLaCywXRtML61Dy5KcrHFfY7chWhrWRmmIkNPWtyPD5v5upAJ9PX+3UgZdWukga4R07lcLrGK10wlVgWHEkDDKevZux+/vVghWmnayrxrJJHz+DiCs4PbKpIGB7/AKaYkJ1nCCi8fJYyIAOfJSoySceuD/8ADTE90xCjVTMzRsEdWQFeTDGf/wCGnalwuv8Ah/Hem2opo6WpanNUeLLBXMpPAe8c6xk/uGoJu98IaOxHn6pVv9rulw3CKWmgLSPCHjVleNSU7f8API3ff19NLY0AFzPUoXyT0N+VL2PfLFb6ZVT8Zs99wUFzpONVHNG7Z4S0zAZAKjtTnKhsZ0INlR4kkbRp3DtxY3/JQ93U9ZS1FC5vlPX04ikgh8stFIFLGQh4nAcElmJJByT6nULhVqtlslDKe7VXChbbEL7oschCtxuMBDfT9ovodA1xadlWwC5mQ0eoT9/haUaf4xtvVLQRziWldTGWxzC1LniT7Z541bBO5Xoxb8SU950MAs1aAgqJqd0RkkVUFGOeCqERjn2Qv5vvg+unbVDflRlhLz6Lp2z6qCn2TYKurdYY5NsyJyKkgcKqJPYE+vWhGxSlcGsJK5/vK4RTVFIKr4BJIImRRWTspSQN3gcf0BIwfTSbF3cfZUJ8yMU2gU/27cNBf5bZS093sH4jT2mWCN6mtYM85eJ1YlcEoPLLEEgknGoxsGt5QSTxzu+AjYe26BXiGyNfKwT1dnFUTzqc1FtmzLj5yHqP2jAnsFvbGlkCgDRUuCy3EE7/AC/fsudeKsdLBuerio3hkiSolUGH4fHr/wDZwI8/oBq8K0ghSjkpNjDF+stn1GNKtlImuxxSy01BTQ1NTBJIj4eniDEDzDkk5BUfpqEmiUfakIu1HHF5M8c9RIZwzMahOLjicH3OdG11pnBQqaURTxzEMQrA/KcHr6H0zqRCilPNSfDrBGamLzPMGGnU8Bxz/Vzg/uzoUKDDv260SJX7LH7nSSTR4YpSyblpRWtCIRUxE+cIOJHLsHzyE/jqJ5ohIttpTLeKSzCxVXlVdv8AOWIsip+FqW7/AMwmTP2U6GcU0V5LCyKML9qS1tiSmpNx22qqJ/hYIKuKWSdIFdo0Dglgvo+Pp9dVnXWywon1I0k/v+vdHfE240dyvcUtBdam6U8NOIxVVK8ZGbkzEEcFxjPXR67+wd1OFo8yRskvwu1eqeEqrfb7js+rqqExU5hmkqGShkpX6psfKSxI67+TrPzA5ONWHHTG0jlaEDWGZgc3ss99XugqrLNQW+ruDmWiqzLTzzyshCiMqSHYjIOcEdjJz6jUbrBIPK182NkWOdJ5B7qH4R7Zht9W0lYiVSXi2rUUMMNUgkZleTCF/wCjkKCewPbPWhdIWDV+6p9Lxbdpk7i+PyRHxBiooLpaoaOMxzxV1BJWW+RxKIS/ndc+88lCNgEjAGiD45AHBFn47PFZE4dx8uVbxHbzNr3KgntVXL58IrxJVu/AuamJVChicEK7DkMEg4OoWOO4Gyn6vEMfFNGvVLdNLYblTLb6XbkM1SlJTCGoamiQUhXqaWVy6q3zMMcsBsov6zNedFLDiLMj4IXEmh2qvVbLqd3SNVpt26PQUUZK08FLeqeMIevRUlwmWP5M++nbd25HNFlCceGfh9/xW3dO6twW6jtV0uF1qJp6imNNLDXWVx8NEFTKgs4LhnQdg9/UemiLgTS1cYT014PPOyVLh4h1tS6LDdJ6QQQPEgp7eo58kXpg0jfLyjjA+ij0z0SMZr65U0mNM51h1fJRm3rcIYJEor1KocjkgtFOM8SpQlgfUZc/YgY9TgPC23RnHmDgRJfrS0Pu2peXzajcNzBNQlQZKehjikMis45llcEng2Rk+rMPuSDHN4CF+E+TZ0h/BHNm7lr7vcbTT1t/qLnIGkUQ3OJ6pEcIPmEfJuQw3Rx7ahfHR3WRkY2SycEvvnnekWO3jdN7TXWaxtPaaZI1qVlpDBxYwO4DIp+XsDkAesj66T27AUnxMcvms8e3f2CfdwWy51k7vcIdrtFIRJAPwiSRlRiSoYmYAtgDOB651n5uc3HA+G7Xa9P6Y/Nsl1V6KUm1aijAhSp2yg9VA2644kgrn/jHRxnv171k/wC9x8+H6cq6eg6uX/kodbt66Wahgnjn29U0CiOllgjt80MywTMVJRjMw/MRnrvPvrWwspmZCXVVdlgZ/SRgt0soivJIuxqujuNLcaq8Jb6mpmdIY5ayXsHAUIEAzjHuuOIXvoAasteO/ZcbDG3w3ulAJJqykSvphKTJGBz9xnpwPv8AX6HRNcTssuKXQdJ4/T/Cl7X8qvu9Jbqw1DLNJ5f7EDzH69BnoNn69Y70VAUphjB8goben1wmm27Pnudxqaa3SzTrDSx1SBIVkeRHJGV4MVZRxb5g2Oj+mkGkkhWYujyTPIbsB5qhs+pNS8AW4DgoYyGgIiwcAYk5cSckDAOdOY6NKX/YZbrV+SZPC+xT2Pxg2r5spZpblLC8bRFGjaNFJBGT/wCcX3+unaKkA9UWFhOxsyPV5/svZ+tFdsq0klWkkrHSSXHqC2pPuDe8lY1Qkc87x0Yd2EbS/OCQvoQMr9sk++qDWNJc482VN4pADeyQI9i7sa7RTyfyekThwkmKP5n3x10Dgafw2phMe6U/8J6j+A35bIaVRHSi2L8N5eRheXzDPueXLQTCtguX/wBQvLGscNimXwhoDU+DNFUpIizQ3Oud0CkyTjPEdjJOORwPrj6amDfhBWl0t94zHOPKlbY2DZNsXegvFssdbTSUUDQVE4iJeVXQchxBJLAhRkj3PtqER67o8dlrPmDDZHKSv8IeKmet21UxUzQz1FNVNUiRQJeYkQAP2ewoHvp5qr4RsuX/ANRPd4TC7m/ZLfhYKsbrHwK0zymkqAVqJWjXiYyDhlViGx6fKe9RMA7rF6M54y26UdoYoorhuE0tPQNVtGRd8XGeRiODAhh8P645enf79T2y6C6uR03xA7g8rnu/FnTddz+LSFHM4+WBmZOIXrBYAnrHZA01lcxl34xtHKDcmy4bXGldRVGUZ1OLJRTEkr18zYJ/ePuNFyQStrFzYNNOG9LnFwinqKuOopWdKVG5ECPHQXODjoYHZHoPXU4Gy2opGvaCERjqaiPjFJSOOK8McCpYZAIOR9Tj9T99MWAotYV4qmqLyEQSnnJyHBTkH8oHp9iP3HSLKT6gVHmMsiHNOfmPIMQT1jPX7h/DvTjZMSn+yi0W3aYuF3oKleVQDHMbPSzrNyGAqSOwZiOJyuOvpqu8W/fuqs2UxjfYpe3DJTXO7Ga222r+E4KWhkpVhAI66EfXudOeB3K57PeZpNbAfLhOP+DylSN7XMJFWRTfgdSIo6YrFUntMeU74CP3kMfuPfUZGmgpOlsLZXNPNLDxBt1XcfFOyWy6m/xPVGKEtdaqKoqFVn45Vk+XHZ6PvnTPaHGlFkRmXI0OveufdHLfs/btFua3U61VwWf8QRIiauCT50zJ+QIpI/ZkEg++hbG3VerhaUfRGQvDgd7WX+F9ETctuVZ/m2jqYuWPQh05D+JOrIpdGbpc43DRWeCw1SU27Kq8SLGPKjnlVkRg46VORIJXJ5DoDojOdMN62TNAAtdJtMz03glt+5IzI1PZqpRIqZKstcHyOxkjjnGR6eo0LhqNKHLNY5J9Et+INgqqq3UFbQxVnk26kdIqWu5tJFhmdwJDlXwDyKhsqAR3jOoTsbvbyXOZ8Esu4PwjlJe3tw3uyRzLarpVUSzMHlEbheZGQC3R+4A1ICQNlliaSLZh/f6910baW4bhNbUmqaiaokeJ2dmrpkLNyJPS0rrn9Cf11WnB0XXcrrOjzPePiNkj67FJHjRUSz7yq5JlcOZ3B5TPJ7/1njjP/wCka0oyHMFKy4UTaSgQMZIJ+x7H11Ikmuywx1lDSUsk00aPG7YjqBEWxI3qCDyP0A1CSAUelCNxyQtcsRy3F3VcM1a2XP6fQaJuwQE2h8fESBmBdB6gHjkfr7aJNaI1typJw4egdvlCoTN+TAA6+XOPtnSopqKGY9T7Z0Se1brv0A799NSdOPhLMaXd9HMAeqiM9SmP+l9Qjkf6J1FISCCEYaC0gp0vt5qW2zVQmBzTiEh8V83E5PeQKRV9Pqw9fXQvfqBJ3WNmgNiIrZIN0no6qsMtBbzb4cDEAnMxVsdsGIGc+uPQj76rgm1zMrmF1tFD6+vRT6Pam5auEGCy1MiNGjgdAMsmSgGTk8gpIX83WcY0L9hspRhTn4g31+vX9Ud2/X3K773tFDuqslEEMTIXrUSPhG0LFVLYHRBGMnvP31KCQ0BW8OUnJaJyNhSY9+2200lvertNXQs0dJVJLivSV25iLgoHIk5IfoDrGT66RJe4krU6lLE6GgR3/ZavCfcVxmJkk8iOex0KJRecqnmC7g4VivIhWVfXpVXQSfEAwnlRdHym6y51fCE0XG0ncN+qL7Vq7VK/AzcaOeKDlLEswJZWLgAAp16H+sMHRQXEQCdlazGsyHueD5d0n199uO4qa52mjtRowlalLK1TVhmkeWcBVReC8cuik5L4xjIHqcop3FlZOXI/Mg8OLtQ5RHwutu4LTeK2NqXjx/ZVRx5klLIuSmYlIMmct8gPY+bPy9vG3m1B0iOSCdzXN2/fsjjxUF4s+4aGCvSWN5WauNLYZozGw455EyH6D5jkA4PtjQ+EGuN7LqZJRJEWNH13XI93bl3Hea/clPe5KlRErE0xX+ZYTKOJZVwyjGMsfXHvjRBrdQJVTBmkfI4OSYI4pqEuY+DrG2HwMn5vbvPvq0tLZWyixxrMAWYAdZTj17knHfr1pITajVcSLM6RsTg+oYH/APjpJI3tipuVGlvqbZUx0dUbkYYZ2ZgEZo1ByD8nYIyT9PpqvKqWZrBaWmiuj0VsvtuviXfcV7o/hKyQrWNFWwqfOETAgglA0i+Z3jrv1Oo3U+g0KhiQzsn1k/CeT6+SbK/edomkZ2vVrmVFSNQlRFzCpkAt+1I5YPeMemszOwX5NdqXX9M6rHiXYJtTZvEu1xGN5YJESZPNRjVw8WTJ+YfP6ZBH7tZreguaPvBXD/qCK92lDL7vulvCQpSXCjholEbTqzRPLI0bFgok80KoJ45yD6a1un4H2Rha48lYfVOojMBLBtXdc02oNxx1txtlH8LBNQz5ljmWJmgmDCMMGc4DFm4jHqcfbV4Dwib5XGOhka0ta3Uh9ZT1dFWz0dXWiOogkaOVGVcqynBB79QRqMFvZZksfhvLXR7j1K0Uc1TaLtT3OKecmOUSc4XCOT9jggZ+uD+h1Owi1PjzAkUKIT7ZPEaps1za6zW+629Z7YlJRysiz8wrvybsRKQfMI+QAAjOCSTohsN1us6hocXFtWAPwT9b73cZvDunqPKjFrSKF0nCxBwEnPENmq4A8s9dEjrsjGqzcUk6wfNav+5u8LcbDft/dDdj7moNxeMW1Kii+JZ5LtUVUzTQrEOUqJ8qqHboeVns++jY7VJaxGZTMnOj03sST+C9gjWiuqV9JJVpJKx0kl4l8ar1el8SNwUcV5uMVLHXyBIYqp1Ve/YA49dZD7Eh91wvU+oZDMt7GvIASIKu5qwZb1eAc+vx0n+/Th5Cpf7tl/8AdVWVFZWzLNX3GtrZETy0apnaUouc4HI9DOkXEqHIzp8kASm6Urb/AOKmsjt1rvdxt4nlLBYquVIwx7J4pk949gdSiZwFKfH6hktqNjqCm3qp3Ba61aY7vvFQ3lJKzJWTqFLDPHD4OR6eg0nEtPurE/Vc2J+kvukb2tb9uXqgWr3Tfa2S4tWGnElTXs7RwGMtzCtkY5ffv3IxpEh7fJTwzszIx9rd381XhvBSJ4j1MFHMhgWCqUOV5M0XFgpHzL2esEnGmj0kgOQdKa5uaRH90Wi9K+16a57rale/rUxIWvTxogaReJyCRUd9ZHt66ksbUutlEjQTeyxrNr7ZqTdL3cqilqJaiqlWJpxKI4uCjhEUjcNzK8WySchhj3yANbKnBgwTapJDuSsLvtDYrWClq6mKGCnVHkrGoTN5sSpGrllEjFQCT5eGGSWGD0Rpg8kJTYeNCdx8x6LZZ6Pbh2veqfZtxuC2T4yuCNUAZbNskZs8lz6KQPt7Z71I5zyKHCnwnReGSw7X+yadwUdyV5Kh7pUNOk1SzkRxdH4igOccP6/En/okfq1SNo9lpa2bkH8lnZ6Orj3RNTpeJQ0NfFFIoWMMpF0qirZ4Yx3If36enjdD4oLj5IfSWmU2Sgh/E5Hlihp4cARHji2Vg4nC9HgpXH3H66TA+xRCB7mhjrtLezKWOgsezZiZq0VtbRRZaj8sUpVuWEfhlgT65bBI5DOTh3tNg+SxYZf4bRzZ9qTpTpuG3eI5uDXBX26abyzRNfY3bzeYPLi83pxyPX9+NIguFBaoLGONj80pXSGMeKbi/mgq6yHbUTxVtarVlPDUCMFZZuOS0YXkOXYyQTkaCwdiN1kuY37Sb8vcJe3VDTf4zNovRmg+IqDTSVFRb4GhpZ5TL08KsB1xCjIGCQcaHeyFUe5hymlvpdccpu8VJ1luu27nRUU8QoKiVqhyhHNhBI+CfTOI269e9IGjt2XTZTqZZWX+EfSQ7h2Tb7hbiZ5LXJJUmNPV6WoPPz19yqthG/qlcnogkw8WASpw9r2jfkLzZGDNUxQQoZTJIAiRDLOfQBQPU6muggG5Xet11lPZvA+CwxVMMtRQ2l1qShBCVM8vMRAg45BTLn7ID7jVcuDzSjzpmsho9yApW4aa4GwOlRcqWVqWnrfPpUJLl3p2GW79h16f0hoGnYntwqvUDUIDOSD+iXd1bX2zRWG1y2957W81Q8VXWVsomjgcRl/KxCXLMpJGQq9EZ79JQabawsnGgAYAa8ypG06iz0NulWfeFpp1pwYlzPcA0i8yOQVJU+oOOI/v1XljsFo37rX6RPDG1ut4Hbv/AISJ4pXGiu246irt1xWviMzkTqsyhsnrqV3fH6sdXYL0+S0i9jzbDaUuBEmT7+mdTpKXTVddTqFgqp4lxjijke+f7yToHNBSsqq2oq6wqaqeWdl6Qu3LiPfGkGgcJF1rQUyQD1+/RpLJPmz7fUnSSWIGD6evrjSQ3ur4+vX7tMESa/C+rpqDdVJUVtYtFDHIsjTMZgEVTlifJZXwB3kH+3UMxIohEHta06vJNu5rlQtYKmKl3RbLjLLGyiGGrrQ5Ab25zFSfcBgR13pttRWJmvaYKLgues64BLq3y55Y6xn3x6d+o9j2NV3DSaXNhjuw+vrj8Cuj7W37frpdLPZ6p4DTLPSx5EJMi+SSUbPeSPuCMDIGRpzIAbpaWPmSvkZE7j28vr5Jj3rs9d679qrRZgY78KZKt56pSI6lCeBVgQSrphcEZB+YHsZMz6cRQVubDGTMQ3Z3KRdzeHV62/aq241FdZp46JkWeOFz5ilzgAKVGfXP6ZOow0EE+SqZPS5cePxHHb3KH+HdXR0W5UrbhFQTQU8TyGGpghcTEYwi+YVVW7yGJGAD+mnY0UVWxDplB/XdNO0dkXHcF43JUU4tdRRUNYgnmWQUoyXLqUCowCkAgjBHfR99MDYrhXsbDdkSF+xo/L5Ibu227i2PchPHdbYyXgmsX8PbzFRo5eaKxZcgq3p65GncGuGoIcyKbCdZPJtHfBi9X+r3DPH8XFLTcXmrBKiCSaVzJxZXwMOF8w8mJAXkAOwNMdQH8Pn1UnTZZHvJdVX+acNwXWgi25f3vFlvgpVYx1ZnqIVDueIDRhcHrK9evr1oDu74SugfJcNyM+H3Xn+/CsTcu7BcgDVDzGlaNeufnrk9kEL6+x9uvcWGmjR5WZh6vEJ790JMita2hLLy8pmwfoCfbH+3U45Wtyqold0iQghFHurdfKe1PuP7dMlW6zURR/GAyqHweJPyk5UdD7/u0xJRVvSkWSWCkgoausJMUd0VpT5SSAIFUnot/Zxwe+/bUMhOqjws/Odp0ldz234h2Wh25UUdbd6CvrXcIDTqaeKKPKELHzUNx4Lx+o6HY0LwA8Fo2pDiZTGtcJHDf8FCtu89t0l1krKehoY0epWYSxVUYfKvy54I7b1xn696rNZIeVcdnYrRsaW2PeO3abaUFqmordVVLJUGWZKpOvNdiIzyGSFz65PrqZtd1EM2Bo3cCoe0902izUlZRrb7caepgePy/wARjwS0TpljjvJZSev6PvqJkb2tAJsp39QxX/8A1FcBCNtVdjuHiXeqiontpppJ5ZoXq48rMTKCvDJGT/Swc9e2pRbXHflYULdeU6SxpSndpKOsu9bUxQQBJKiRgFjUAZY/QnH8TqIvN7rEyXyeK7c8qLBypqiNY1eSB2ACL+ZDn2+392pQS7hDGDK4H/kPz/yu87pho6apJ3LFNAKa1gieqp4FxlowCPzIWJAUkAErxH3Moe5wFLrWxapDrH5Bc/tt2oYtzJSzXy3+RLVcDTGjgCrDk4Ytw79OWc4+bGB66jc55Gkdlc+xwNO7ue2ye9rU8EXi5tEQ+RIEvcqLLF5ZynwsDheUagEBnYjPYyRpRafEseiy/DDM2PYcn9F63HprQXQqtJJVpJKj6aSS8KeNOf8AGruQ/wD3jL/frJf/ADHe6826r/Wy+6Tgih2bGC2Mn66Ha1RLiRSyx316acoUV2ZPTW3cVJVyPHEkcjPylDFA5U45ce+PLGce2kHVwreLMGzNe/t9BSN8XAXLcUla1ctbNJDH58qF2TzAo5KhfsqD0Pb6daIu8yjz5RNMXg8pj8MqatNB8dQ0EFS8NxjZlerEZlyhQRsvA/KfMI9QCW7BAOCbVC1f6W2TQS1t0fP5LHaLSL4p3SSpUUrgVpljjYHHTZQPjrs/mAyMZA040h5AUnTdRz3E7cqZa6yyC87kWit0y1NvVvjHat4/FfKxI5FMHoEd9aIuaaK650b2g7pTusd0O+dxtaNxPY+JWRmavNKJQeISPKdZ+b3wo77GiJdS5xwf4zwx1Ule937cdaj2273271sUb4aGe4GWPkD64LEH9dFVKpJkTOGlzr/FToLLVx7NqLgsRHLjVc0rkzHTfPE3KINkF2ZQGI9Aw98EKD79FIGSsisfitW1LlH/ACkhmvjXGtpqgmOaKGsMTuGxxy5OAOQQ9/T7aEEXuLQxTO1gOJPz5XSrps2S4V8tXYqyotcEaqtSYJxNLPU+bIwQRiofLrgkkyDJ7A7xo9Za0Fx9FqS4Tpn/AMKwBzX/AL2Q+Lw0prrY4ai0VV3op6djFUvV0XlxyytKURyPOJRcsELAN9cd6eM6zZTydMeI9Oo+t+fmpcMdbt3au17xeIA1NTz0pKxVzTTKivlw0XBUHSqAC5IwAD0QF4jeAVCP4UbZJeB69vZXte7NnweIK7tqKqs8uKi+F+BNu4xsgcNksXPYHXpqLV8QpXmdZxWgV7cIFf8AdVMu5Jb3YLaLtbHswoa+nqYGjjkpxx5clRuUahuOCG6wPrjRgFzt+VknN/8AlOEe7aUDd96Jum1b1RU9JRUtHBHNR08Mcnl05EjMEZn7c88ksDjvHtp+Nwd1VkyX+JcYqhsPn68pq3ffbku1qOs/FIria3mrq1NOPhy0ZU/NJIRywzr6dgEjrULpKO26tZedKcdrg7718A7KLsOpq2stHJcKoClgnkioJojMaunZVUuF8tGBTDr8rEZ9PQY0wArUVd6K6cxguFtvbzRqqs8yST1FLdDHNKpEklHt16aeQH1BlEWRn3Iz79agOTCf+YXVaJg2xGk6+7WudxaKiNXQ2+3xBzFRJS1rNzf80jHyMu5AwWP06AHWpRPG4gMcPxWJn4WdOzU4UGn1Qne0N8tO1qCGTdAuFDWHyUSndw3FFBVJCyK5AyMKcgY9sanvc2smUZEYGtwIUW+378RtkdD+EUVDIJ/PmkiLFpJTHw9zhFwoPEdZP6YYi9uyzpchkoAa0D1/BL7Ql6hiRkOegfryBIP30xNlQsdTQAuh2rYFwa/w2u/Q0stNTWqrudPTxzpJ5gA4/mi5Hjy+YfUr176NkhrT5Le6XHNA6pdtr5U6t8PbdDbucdkoGxSysJlrJPm40EThx8vfbeZ+pPto7N7FbnjAchEl8NLWbxXRi024BKmZEh+OkHECsgQL+X2DFP8AtaFziACSn1XvSjxeHdpaGmf8LoPmmgwPjpAZA09WCo+X1KoAftFpjMRVFEG2LpXpvDq3S0cBNsokVqFXeRq1wMm2ebzPyf1j5n66cy+SfQSFdfDq2tPdFNsooxDLUqCbg4EfCSkUD8v1dwD9ZPsMt453ocJtHb91c+H1tartyrZaXjNWRKwFe+JFavnj4/l/qoF/RdF43kEgwnuPxUe27Et0tIHay08g+BhlP+Xt2Tb5pC35f6yq/wD2dCJidgCk1tmrH4pZ3pYZtrbkioKCI08F5tNNULGeMrPzBRlRscgCynoYOSR9NDJbgCuf6vLKwhjN9SiVG0b55kcXwtPmNmLo1bArAgehBfrvo/TQ04BZEXT5zqsUUbuO7qu22ensdVZ2opWs9PTLU0M6JNJ5MnISeYoIdSF4gZIUj3OjY4R2HBaE+QQCxza2H6pbum40rN5JfpaaSWMrDyjnqD5koUKpLyKBl2AyWA9ToGchVHS65NdcE+52/VdC8ENzWld/U9QtULVSxQJTR1FzrlZ3PmrKxYkAeiv6AAYHudGXnZp2pa3TXMM7iL47lEfG2toxtC8y2+4U1RG9xgNWVVl8xnhb4dkZjhsRqcgD76bSb2Wt1IufjuXCLbd5aKY1FNLEsgUrl41cYPr0wI0WmxuuTEbmOsLs3+D5vWhSi3PFeLnTvcbpU06osr5epkYkA4H9FeySB741G74eF0fSXlocX8lC/G6qtSUVgprLNDU0LU7vSeUWLiLk4ctyAbPMsBkDpRo2Ahp1Kp1x7ZC0Dalz+y325Wad6q2VJieWMxSL6pKpOeLD3Gf3g9e+lYAWRjTSY77Z9fX5rptffbRTWOab4ulnnlp4ngpWcPHVlj0Xz0meiQfyhR650hJE+3DcrdfPIxtOdseFyndZt43HuFaaf4qKVFMc7ujszs6M+GIy3fMZXBI79M6NjiSEOGW+IaNpcWcFBGjP1kP0MY+2rS1lLSpi4Rhldgv5lIXHp7daYoO6j1PF5mdRwz6e2NOjRvbkMkktrAfyna6oqzJGkjqcLjCEZOP1xnAx3qtO0k7KplkjQeN/mu8U9nte+6SsvVYjVlTFFAkdRUULRxsAzIxVVZOCM3fzDIxjQPDmvaLvZQQwxZTHPPINXSB0uxqA3ianqqaxQ0iyhQ8dJJJIFyFzgy4J98dagEzXuqlbHRmgW4j5Ig2wrPJts3OKjsyS0s9XTT/5G5WYwzSqHBMmBkRqCvtnVjw26tNKu3AjIukH25tWiuFvqpbhS2Ojmii5KiW93+co7IpHmZ78s+npkffUUb2v7bI3dNawEmrCrasEkFfudqAXSgt9OkMvlW10jiDNTIx5EsGwOTdfMOxn0AM0RDSs8R6WuO9eS5MrTUkgJYOG9T7P/ub+/UTxqWGQyYeX7f4/RdI8JagSfiMkc9RCixqzTQxZZfUEcwCY8jOesEZBwO9KH4X7qTEiIc5p29f8qV4c1nKr3BO10q6SSOmxHMmWHbA4IDqOJ6HqcfQ40TAA4lXOkh0r3248bfir0V5vLbqhtkl4haOa4tQrxlk5qVUnzD82OJIOAO+xoyAW6lu/Y3l/3tk8bQqZarxR2Q71NRUJHdqiKNpgykqIYWzxLMAcyHseoxqNn8wLMdYzImnsT+i9bD01oroVWkkq0klR9NJJeFPGc58VNyf/AIjN/rax3/zHe6816r/Wy+6UDjQrPQt2qGWepE8gaN2AUN8mAfTHv176mAP3VqNEQIYRzXvv6omM6jWYVWSQPXQpJu2Vbr7WU8TWa8PRs1eqKkecrKELI7keg9QM5Gc59NTNYdJctXCjncAInVZ/MLdtal3DBv8AjnWGqqjJcDS1lUKXzY5FeThNy5KVIILZz6adoJOyLFbPHlavWif1UKo3ldFmmRaax8S5H/yJSdjPv+z0mvcAil6zlaiLH4IW16mkuFdXV8FNWtcP+NLKmFl+YMPyYxgqPT6aWo8qqzNm1lzjd8hDLrULX3CeuqYoTNPIXchBjJ07nE7qN80sjy4nlS6zcNNFtA2RrZBKWYKszpF+zPPlyXEYfPRHbkYJ60ogRdrRhyXOi8Kkt22eSBo7jC4aallSdFdeSu64b5h7/p9NPfCYP8KUCky2/wAQbhb6x1t9LDTW+Ul3ghllAeTkzCTmG5ggs3ofQ4xo3DU2rWlBnPhOporzCLf41LvS0ctLbqWNElwcvLPJxYNzVsO5yQwBA9CfXOga2gQeEburTzbPA3Tnb6uw0F5TlLaFqYpKmGN6W3PRrFUfsOQLyt2/HzApb8rE+7A6MMcGkOVnGmxzMKon2r5IvBdESavjfc92curNSl7lSFUJjPEEFuxzxnIPWdCCQ4kDZajo4TGa5S3su6U9t35uWj29eLdZqGvhlak+Igj8p5FkTAUuPkXiZGC+hCgYzjTtcXW5c3jZLTLMIyB5XSA+KVxO4b/QVtDcay+U1ZSeWiSQx+bCVlkTjwiGMNx54xyHPvSLew5VfqZbPM0xut1LVuupnmsHFW3NOsjpKfi4i1PRIkXAANyPIHP5iFwBg5Ohc0uJcdk0xM0QADrG5B4XQ/AO70FD4dVVPVmdZ6u4OtPNFAzqeJhLIWUHjnI9cA8TqCZpMTwBvS6n/TpDIW3xa6DWJOaqQCDlknHeM64Y40hA+E2vRmTsA+8EubvLxSSSRxTcUjB5IrHHzfVQT/DWj0+GRsjbaeVDlzM+yP3C5l4g3D4SwxtNYHb8RedaESRsghYiNuY5AH2/X+0a7IGrJGy8u6iR4NP4+uFqu10sU9sqJ6G1LSRuaT/K323DURRBI+L9kgZ8z1JLZHXroNi6wqrchhZqaym7f8Que3uqoqq+VlRQ03w9HLOzQQ4C8UzkLgZC/bGQPTsaZ3NhZkpa55c0UEx3ffM0lbS1lqoI6OeGknpJJZUiLyxyKDxIjjRQFKkjrIJPeOtIP5pX/wDcC0jwxx+6hVO99xy0KU8tahRIWQERKG4/CJARn/1YA/XvRlxUIz5jtf1wmXeO9tyW3d1TFFcBKHjhnJkhXPKZqaqb0HoJAMfbrTVuCrWV1Kdji0Hb/F/shtu3xd3tNSam5xxz0a00tAnkg+bKtVISCfss8zfuGia6jZ3Qt6hIWOs0Rx69/wB1FPiHuloEQ1sJVKbyADCPy/C/Dd/fh0fv3pagN1GeqZF7/X0ET3hu3cFsvdZQx1iGOqiiqZecKEhp46Wd/QdAPGvXsPrpaw3hST5k8bi0HyP4/Wy0UW+708NTU1F1EVVR+VUUEYiGHlWsM5B6PQ86U946C940xfe/kmi6lJpOo+23dD6PfW4qSBY46lSqwxwKCgHyJDJBj0/qSMP1/dpy+tqUTepZDeD+S37n3DXW2/7Pu86pXyUlqop4Xnj4kYdjxGPTsZz65J0IN0VankdrjeTwOE+rvGwXS7089FaLpNJRUMkeVtSTMiHGWLCUY7GfTv6ajIL7d3WlB1fGLCWtJrbhJ9wWk31vSjoLcaqNC1TwKxRwSTSSO8pQJkpGC5Cjsgdn30bXh7twsl2SMvIETRTULu+0KKx3WW1VlFXNKVxMwuEbLB2e2Pk5wMZyAdOdJFrUPTDrAq0e8NrBTUG7qn4KOaasoqdxArTRzo7sShVcouHBGOx76Z2527qXEw2QzG/vJW3Ru68PVXSmS8VDfEP5kGFVkkZSQny4IICsygewONXIYXPpjVdneyNv8Tj1UG1z7zWMFrlFGC3IK8MakH2Pyr6/rroIP9NzPbbjS5yb/UGIx9NbY9ApC7m3rZKv4upuSSU7IQrxU0TEN1+clcgevpqhl9GmxfiI281oYPV8XKpoNHyrdM97u9XdfCOnSpETR0dziSmKxqvlo0cxKDHsSM/rnWFIA07FSddaHYwdXdcwkk/aTDoft/8AaNByudDdh7f3WDSrIkTNPLN5aADn6L0Oh9cegH20QG1qzI57jRUOqj86XPYYevf5QBjvRsOk2pYZDFuFvnWnximolUtGFPNmLeZwwSMHocvmwc49+utG2Rwu1e/3A+Ss8cwZYEpYDJxJbiWOASCPU/Yj/tH7YfxdiSVEOpEjVdBXUfto1kpYQRguMt1hmP1+hA/QD3zleJaR6g+iR8lspjKqUsRkfgsnmL36McAkfuUfw013uVTmyXyXZ4XVrVPLLtWmrK17zXy188K1UtzEc8LgOsY4hwXK8ZGBIOAQoI+YYjJHPdXo55WRVZ3pBrnui02q61MP8lNspxnZVMlEoJ4kgH9ce/305FnYKH/ccsEgNsfNWqfEiiqKOGln29tmSGAMsKGmTEYZixx9MsSf1OnOryTjqGUOWfqo9Pv6hpyvw1isMPHsCNOI9MdgHHoSP3nQuLgaITfbslza0fqhF53Zbqy4zVs1BS+dUAeYYqp41OOKqvFSAAFAAH0GiDXmzSBpkfZcw/mtLXmxurI9BRkHrBqW/wB+g0PBulSEZBsRn81nBuqC0SSfh1OtKJwocwXKZPMA9mw/Z/XrUga6r7q4xpe2gwj8fqlNtG87dQpN5FDa5IqlAssdSfNVgG5DKvkZBAOgAdd0oofFxidEZ/Nbl35aoamKeLbu2hLy/nVpYwyjH1A0xa4DhXPt2S6yWb/NdB8Ht8Wq+eJVgqLkLVbFpK3zI3jmWJS7/KxYHAJIVe/sNSRtcXC0+MwyZLXvZRHuvbEEsc0SSwuskbqGVlOQwPoQfcauroVt0klWkkrHSSXhXxmH/lS3J/8AiU3+trIfvI73XmnVf62X3Sh3nTKghToBR1kmMsJJAO/q2pKtwK0Q7+IxvoP0RPkETLen10CoVZ2WQIxkkAffTJiCrx100JMdPVSx8WVyEkIww9G69x7HTalYYXsAINLWa2cMQamTLkk/tD2fcnSHkjD5K2JU2wWytvdzp7dRIxknJIbiSAo/M2B64+g9Tgep1M1tqXFw35Mwjamm7UW1to1ElvvlRHFXrjlCaT4uoGQCMjPlr0fT7+reupKJGwXa43RMaFvxCz6oW24NiDP7C7ye2FtNIuf/ANWnAcrX+14g/wCAUea+bKkyYrXdmX6GClXH9h0i1yJuFjM+6wKK902oiEjbtxK59fPgX+wJpU47FO/CxeTGFH/HdkRqR/JSdu+3FWM/2KNPoPZOMfHrZiZtvbY2tuyAVNgp5AkZ8updlWOeiY5KsyD5XTrOQc4B7BB0wa4qDK6bBM2gdJ7KqC53ig8S6Oi3PXKGt1XIC8xVFBKkB2YBcscLl2+bI7PWq5uyuex3OizmNmOzU57IrKu677rGuNxnqLG1NEI0ob3ynik6DNxSbABycHsEgakjBoArp3S45ukvfhlv3R4v1VIk63Q/BxJza4pAgkWCJHfzeLK7cgcgBiTnGjIdwuWlhZkZjoiBpPe6NrK/D+Sm97fS2qtrbylHSGkhWanaCRFcSL5aEKpbHM4fH92o5KsG1UyZTjZrdHxUKpRrpfL5VeZUS7drUiFBNHzDSfDkSGQSuVxg55tnv1+gGNDqBcK5VmbNyDCJDGRyOTX4Kd4e2fb349S/s/Lpq21RV1LRyy+YIS/MOAGBErKUGOSn5WJ9VzqR9h3wrSwWQtzD8VAi6J790QlttRTxVUglilqkndYYztuBVZOPycm8sYBPRbrA7yMZ0rJaRW62XiNo2Noi8VuTZFDNbtz3akib4pIPg7hUcAoqHCuFjI5dcjk5J4j6aAfCSKTYzW+Bu6ua3UPba1tTte+mrvt9rZo6eokt9TJWVYk5LDlV4ucE8+hhewR7g6NmrXpcmlji8Gwb2Q/edtuEdh3DW1qV0NI0skYIrwE80zHpoMYA7bB6OeWT2NFISSAAsGe4oXuG9+R7+y5XaLHUXe6RW62TQy1MnJlEkyRphRk5ZiAOgT+7QOdpNFZGLFJkHSBSLUuxNxVVyhoEho1nnjWoVDWR8vJcHEnENkqAQxwCQNMGHTqCstwZdYYeaB/NNM3hjSQVtHRO9+qDVwiaOohpYPIKcF+Yky5AKkEDGex6d6M6dWm+VpN6K4i9/wAvdJe6bZHQTpPT1VTUwStJCGqlUSq8TiN1bizKcfIQQSMEehGg3BpZeVAYyCDYP7IG2CnLPrjI/XGf7/4jOkDsqm90tc0nGdvUjIJ/XA7H30Zbsia22hbfNMnzlizYADE+wHX6Y9Pt+mmadtkLrvf6+vz91YNg9+n937vb9Pb1HWls4Wnrb6+v7+6zEhC8QAR2eJHr1/4H7/oeo7rYphx9fX15qJW1B4ftGZ04hQC2SACQMfTGP7dK74VlrXOIs7j6pehrdbKSgpKaS37d27TtWUaKZZqmUSyRsoDM/FCACQffRao2cldZDglzBpZz3CS7zcVtV+tlwsdiorfcKKavjlFLUBI38oLiUO4AGAxIJH8dJtWA0WsqbG8GdhjZRF2hH4nuHdW4uFZa6eeSodWqB8VTP8vMHkVVckAkemPYakA02491pDIle8Jx2JLQx+IFwSjt1fQ1Mcfm1aVcsTAoZMqyhCeLFj2CTjrvRFwcPhCnjOl/x8+q49su10vlTXhn8yXkQqn+izMcH+AOuz/05jXcjguW/wBT5mpzYWnnco+WJ99deuTpbYOLkxSKGR/lZT7g6jkYHtLXJ7c0hzTRCxgtTW7w4vXKZpQdwU0aknJVVp5SB/8A9Dryrq0IhyHM8l3WRkOn6bG53coFvuww7frGWCrqKlXcOwmpGhaPIR1UkkhjxZTkfXWeGmgfNQvgEekApbnkKLGPMVvlHAKPQYHf6/8Ax0bd1E1lk7e6IWW11l1ucNspYkFQ4J456UAHLMQCegCfQnr0JwNK08cZkdpbumiXw7vtJMx8yExheT1ckFQiwIcgHy2jEpyQQCFIJB7GDpvvGvJWT0973UPujlQ4tuy2/ctptVQzSx3GojU1MashZGfixw4BUg5GCP4jTgA88KscYvmDHHbsmK/7Etlr8sT1kDtPKYmENS7MH8t3DBinF1BXBwR69alaWh1HcLSlwA1ljYrG67LtFrngeqnPwj1EUSMs78jzPqp8viSvROSPQ40zXbEJj09oZqPdD7dbrjU2W0CSFUqXjhaGGRpcNGZBJyTKeWGI7xz7H3wNDzwULcWnAOHlST/GCFoNzylSuHYt0SeuKj6akjs7la0TQ1zq80j5yM5ONTKelYnrHIZI0kyrjkgDRJ6CoKCe/bQpUsWU49Pb6aJNSw7C+3ekkshktnJx76EoqW2J8Mvv39NMeE4G6+qvhI3Pwt2q/wBbPS//AOJdSt4SPKaNOmVaSSo+mkkvCvjIP/KjuXIP/wApzf6x1kP++73XmnVf62X3SiwB0yzwULk/+Ta3/wBa/wDrak/5K+3+cz2H6IgcAAsQAfroRVKoLPCZ/DUxJuqOedxHBDDJJMxiWQBAMHKlW+oHygsM9fXRN8lodNA+0Au4CEbvQpuO5K8YjIqH+UHIHfQB/TUbtnKHIsTOsVuhdvmWnuFNUPyCxTI5KjsAMD199O3lPGacCu7+A1Rbdxb7rK4VNwqRQ0GUaukXzE5SEt6dFckEAenX01O2uF1/SpI55i8Ekgd1523BV3M7wrq25xmSvetkkkWReQEnMggqesA9YP01MF0TineCjsjV1K1XBQwRVUOA6hVCSedHgsB6L82M+nEt9DqO72TEDlT4oLUsyCmprZ5nNloVZIyGPD5w+fUBgccvT0GnIfSa2WsNxy2ylttQ1u+B+H+IK0ZVEZmUmYSZBBOOPDs+ny470tyiIB4S14ppQyXOBaCSAwhGy0QTjxMjFR8nRAXHHPzYxkA9aIEqLjZGv8Ginrl3tdKhfmoxbvKn5fkYvPCI1I9M5BP6Kx0nm+EbWjy3Wzx4FNPu5xQy8gITCZSclip4kk+5B5A/cHVdxBOy5HrD2eO1wHusvAgXyO5Xf8Npp0iWnp/PEU9OqcQ7YLGVWyePPGO8cs+2p2OaDaHGL3xu8Hff0/dTvCuOS471kWG1NdXnSZkWRYXMRL584iX9mSPfP161ARb6Cz8Uas5402d/Lb18tk3SW+vO/Tdlv0256u1iNOKRRoIw4kUxYZgvWevLBGWz7aM88rVx8F0mV4rpNVen5IfbKd7ncWMW37hSVNGs1NC8kapEvnSSE4AkKlV81wMgDGM59NM14LubWlJ01xYNLdxf5+iVr6IbPeNttNHJJTUVHFC8c0aM5WGeWN1YZKMSUb3xgjSeACFz3UT4GYwu4Hz91Gl3HtyQQ0ctBDJFFDOtVG1ppw9S8nIpmYHkqgcMEDKlT6508hBAIUrM0NiaeRR2rvfmju2toL/itpbzSmnZ4KKoqKkTmpAkZGb8pSZV7BUcQoxjOTnQtc5zqK3sKJsmOHiwfJb7JA7+HFVuK5U1vppaZalYY0aqeOV4lD4P7fIBzjOfXUhYGEm0f2XU3U7sEtb+sVAk19alp70Eo5pmj4pyp0xIoCs7Elhg/rnHr66TCNVLnhCA+U77H5JY2DHUDcCimqkpZjTzEsaUVIZRGxZPLOQ2QCO/rjT0Tsghc4vpppOtlg3HVX2joI9ypSVctrp2SpjtqKRT4DBVmAypAIAHXLjxPWMs29NgrTjZL4gBI4G/p5LpEN/pKy922KKlt9RLNBk1EtfJHPAwVflMS/KD6AgAemAOsah2ZRqrXRN8R9i1yTxcqRWXKnrIokpofOq4BTRrhA8dTiSVegTzYkkt3nIz1p6A4FLluqt+MHVfP77/ADSGrfsh/wBj+5dIGlkEb/j+661YNsWc+H9Jf2orbLUmmaR/PgldmfzfLUlhIABllGAvoD9dS6gaFLpcDp8ckAJrdSNrbSprltW9XeW07eSqtsM1QY/hZyjeWhbGfOyCQD3+n107mtB2Rjp40FxaNv0/FY+INJQUWzKqnpKVYYUliWnX8KKIgFSAypUE8mb0znohcD31G0luoWquexjMemtrnsuTREqysADxDEAjI/KNAQufvb680doaO2vsSrnnp7M9YwqfLaaeYVXyIWHBV+QAHvvJJ69xp2gncBbOLGzRZr8d13+xUFPLty1TO8nKShhJAP8AmKPpri8+dwyXN9V6x0p5GIyh2XIvFepnsW9aC40LMZaQ1MqKVDEnyoDjBGD+hH7tdJ0iUnHa5ct1oj7eQe/9lSbludf4gWd7pUUsST0DEyc2by/MePOcjoZx6euPtq+2QOYSLKrZURY5rfNM+0bLVU3i9cJ556p4JbasEc80Tr5jq3Igc1UnAGcY61IAQAShc4l9A3S4lsC5mPzrZWRyQtUBXpy64DEZ9P1B/jrtf9PZTWuMRPPC5L/UmG86ZwOOU0sjA9jvXX0uSDgVmjRwK1ROwSKMcnY+w0EkjYmlzjQCenPIY3clbbfNLd/DKvrpZEhSq3JCsYmfgEUQOAWPsMY715V1Kfx8hzj3XfZWOYcGKMnyUfxdrHroLWyzCspokaFKhLgtSH4hSQcAcXXIHp2vEkk5xTaQhyHhzWEdu657GrBHj/oyFcMPfvH+3TnlVXO4Plac/DuCri3VTi0SmG4yJKlPLz+YSGNgpyT139xqEOLz8SbAyXfaGkldMt5v0d5vCz1ylnFMFJXIEQWQupGckZOSPvn30T2kUPwXVRvBe51bd0g189xqt17amrat5Z/xBxl1+Yr8WVX17HQwPsNIgDZZkpaciMBF/EOluENJZKKSuM83nYCcmyuIXzkH0OmY117la2QWkABRd/0FdBY7VSSVEkknxEBCMW66z7/ro2sIcVHK9nghq2VSXJYvD7EjGKSOmkUr6LGIRkk59M5+nvpBhFkpEs0NXO/F8u25qnmX4B24An261PFuLRCkksBxAPQ1KksOK4znvSRK/EezaSFV7gZ/+OkktMzPnHLr7aJJVyOVX2GkktpUBlGfX0OhRWqccWTB+x0xRLum3fGDfNtsNDQUu5rjFBT06RRIsvyqqqAAP3abfzQG7RD/AB2+IGf/AOrLn/73/wCGlv5pt0z7T8bd3i3y/G3+snfzjxZ2BIHFev4502oqRvC9q6sIV4V8ZP8AlT3KB/8ASU3+trIk/mO915p1X+tl90ogSczkjj1jr00wBtUSRSN7IitH4Feaq4y2DzIah2WG448yRQCcIGkRezj69j9AZ2kB4XSYMbCLdV0Kvnjsou1LXDuCoqYY6hwYoPNXyYDPk81GCARgYJOSfbUZBBorMxcF87iDYr0RaCx3S2XaZ6K01lfSBGjWR18h8EDLDDHgwPoe+v10bXFn15qdvT5o5DTC4fgg25rddIZaq711qNBTyygsQQI0LflXOft+/QPJcUMmFkAF5ZQCibVt9Jdtw0FHWVDU1NPMsck4x+zVvfJ6A9OzpwOLUcEWt4YeCnixTReHlfat02iua5QVPmU9ZSMFHOH8rZwes4yM+np366cFuoAlbGNKzp5bOwktcaPyU3dW2dqb2q23BR1U4nn7eWmdCT9PNjb0f2JyM+uDnJMy+a66HLhyW6oygKeGNvCjN6r8DsA08f6f1jpeJ5BTEgd1Ji8P7NCp8y6V8gYYIEcef7jpGUkcIA9g2JVzszb6/mrLw2F9EQZx+6I6YyFITRg7rGLaW02OJ6fcUqD1/ZSgf2QD+/Tl7kxmjAtGpayj29ZlprRSzWGk5FxJPFwkLYwXVHJklkx0CQFX6jUbrfVmln5nVI4W7GlzO81IuFcZkiMUCKEhjL8iqD6t/SYklifcsTpiaK4bKyTNIXKDSySwXQ+TJJHmn74sRn5vtowLCDxHCHY9/wBk3+DtM9Zf6WL8Ke6O1IxiiWDzfKcY/aspdAVHecsB376RHxFW8RuvMIDbO/12XRvxu4UO+pbXPdKG/V9TFEsNXSNHFFQJHyZkZQCo4gEnBPXudMbG12t3HzXwZPgvIeXdxtXupForY4bpU0glvJd8STLPQRpEwDEjDjo9g+h0IY1pPe10TpZHU3SuWeI00BuVHHSIwo1oxJTyM3cySySTczgDj3IV4+3HGdKXelw/WHf/ACvu7D80f/xR/iNLSVklDULBNSpNHUvdFjMgKKWIjEDEKGJAOT6HUGRmRYket66LpXQfHaNPffdFotgVQtdPaXqaeWlgQxxJK6SlVLFiORp84yT66zj1yC9Qauki6DkMaGB4oIVLFS2K2OppKaSjjUNPTloRzVpFRiqmAq35gSDjoe+tHDym5eojalB1HBnwtOp1ggpO31S/Gb0rg90mp6OWaZ2qqhS3JwgZgFjUAt2CFUDojVzndcfJjO+0OBOxQ/8AFKq0Gntlvte3bk3miKOqNAHeVmJwA7Y6GeOTgYH66loAaitrDwmBgbsT5reLtuxVeH8C24kBVBwkWkUFQMgcWfrB9BjQeIwjbdXBgN5pThv7xDoI6Mzx2iI1DCFZI6SmmAbJI+ZeWOhnOiaWO27ozCW8rPdd6rty7bqKy+RWwXKC60tLHXRwLEfKaOUsrMOuOVDentnQOBadN7LB6hHruxvfPyKC7j2pcLFao6+autVXC8kUYNHU+aRzQOhIwMAqMg6jIICzJsR8Q1Hj/wBTL4TVNTernHYbitFPboKWYok9GsmMAOMkLzZQzE4Bz7aPWboq70yd75BD2r9027dvSIu6bVbNsWjhbQTJTikZFrVClmyuex8v39j9tM4g1a3DHJpIq/3W3xbeYbGrqeWorC0dzSRIJbojokJmOGEIUFfmYDB+uQfUBgK2HksnqJL8dxrz7/suIr6H26b/AFRoFzfb681tN1rKezy26OmpZUKy8ZHh5SxCTKycDnAyoHqDj2xnRMLhTbWlBkNaNJA916m241Ou1LSktQsYFDH+Y4OAACf3EEa4zOxZzkucGmiV6x06eNuOwXwFyDxZltw3rb6mbnPSQyVcUvkqSSyxwAgjIIwej9O9dF0phigDXilyXW+oRNzNbd1RvtmrN4WNTb7pSXKItTrBJSGMkySRsCctlSAnXRzy9tabWtAICpPzQ+QMN2KRDw0vc1fvW/RGgvVJAlqcQ0dbI5kZ1fhlRI57IH1+uk4losq82g+gk28+HV8uDXWSKlikqoqoUocSHFNKoRmBwMjCso9h39tW2TeFRJRvYHtt3Cq17K8UUhKy01HURr0ruCxP7+s62of9S5EbaO/uuem/05hyuLmkt9Bwoz7I3nWVEzXenikp44HZEjmWNIWX5izA4yAobvJxqnl9YmzNnu28lewek42IbjbZ8ymm7Ulw2/4QW5Z1+Gna6Q1NN2jgoYWZHB7BBBH7sdd6xpZAdwm6y7RA2jvaQr/W113hD3GpecwqTH0FCH6gKAAfTUTXOJFrl25Ujniylxl7j6Ayynr7sp1ILtWru/n+hTpte2U9VS1tbLCzGjxI0qVqQtCAM8lU9sRg4wR3jQQjezwEEDCWGQdvVb7fJcK/b9VuKquFbLVUPmIJTcFj8kFV4lVLciSxAIxhgT2SNHFTtRceFbbJI5niajfCVpLlXtco7k9XLJWRSLIkrnkQynK+vXRHp6agJ3Vdsr9Yfe6KXe9X+JlaW52+pALRo8UEJaLrDAAoGTo4yOj7HUxc9pu1bdlyaa1bFbxU32ayPfHqLeVBL8/w6HKty4/n8v5XycgZzjvReI4CyeVJ9qyHN1akCt90uUfkUCVtSlJ5qDyRIeJHL0x9Pt6aAuKgjmfYFoP4nTTSbjr43ZyqVUoRSc8Ry9Bq1Fxa6DFN6vdKkjHiB66lVpa+XY9Oz3pJK7HGNOElRJ5DHtp0lbGX70klkoBOkksZmwVwewNCkshl4sn3OmUin/i80IWJVGFAAz+mnHCC6Wcd5ndsFRpFMi1LdZfJHEDH66hdypmjZfVk+mrajXhXxlP/AJU9y/8A4lN/rayH/wA13uvNerf1svulDvOc6XdZyfae+7dodjUiVdNUrUrRkmaGncqrMzcCz8CinJH5ic9fbU9GgQF6LhYzHYrHnkALrvgjW7LvkVBbFpKGe9LZIKq4IaEAszxwuXJ48DnmOh9+tSFtmyr8TYwAzunyqtlojEnk7ToJYlkVSi0afMDnJxx+w0gN7pTljPJKvi/L4cbWhtlTuC2UdLTVPnZWChGZgIz8nyjo8iuCfTQvaCQaQl7I2ku4XnrwmqYp9mX2mtcVSKv4tjTIs5XjyiAQucr8uQehk+umdrAWZhOi3sbWmuO2bhptow1F4ZkaC01IuTmraRJXaB1QgFjnLFT2OvXrGhcaad0Wc1pgcWjaiuVRExyCSN2R/wCshIP9mq43K8/bI9p+E0n7ZVurdu3aWW/3C3MtfSyRw0s9VI0qu3EqMBCq+h5Dsj09c4sm28rtsLGnZGPFPYIR4gU1bBU0lQK96mLylgeqikK+bMgyxZRji3F19uxg5PeoXWOVh9RM8Dwb+fqh9ktN6utNLVQ1ckVLE4jeeaVwgcjPHIBJOOz111n1GnY06SVDjYuVli4ztxyr0+27yHNbDuGhrUlEnlRU9bIzyEEsQoZQCQqk4zno41O4Et2Whl4WUyADVZHqewQmQ+bIXcl3b1ZiST+/VZzrNrmC5x5KtwAPQA0yAuJ5UYgfin/5c/6w1M0bUrIP8H5/si+yLrHZnpa96JawpDhI2nkiXl7EmMhiB9MgHTONOKmE/gZLn1aL1u6N2bg3lT3ehpIZK6li5MtNSZjWEZBVlHbBgWBLEnBPemaL3KvQ5ORPL9pDbLdqA/VMG298Vsl8t7rtS5SCq4mPy56xjLEnzExiRirYHY9RoXM8hut5nVM06dcJ0ny3/BIe8LhLdr1WTNDLTRxStTU9Oy8WghjJVEI+oA7+pJOheFz/AFCUuynbUBWx7Lttg35tv8EttFWXa2wClty0/m+dKZGJUEhkMeF4sW9GOqPVcY5UTQw7gruukdbw8cDW+tgt1Hu/bNRVino79FVzkErFHC7MQOyfy+3+3WCOi5JPIpdIP9RYEmzHWfRK26rQK6hmhdHUumUlkWZEiXmrM7ARkthVPX31v9PxHwkhyodX6nFkhrGhc93Pf0TcdRS0e4KgWd2meGqpFJ4s8QHIA4JAx7YPZwdasZ8wuLmzP47mh1hCKiybmeel3La6Svr4HqHMFVHS+YHdWIJaMcuPZP5h3qdwY9pb2K18HILo2uHIQa/7S3Ruetj+KsN05RE8ClueNjzbLA5UZAPoPbJ0ETGwNpvCuy5PiUXIu1L4jVO26ewS2i8ChgMRWBLS6DlEpSNsqoJIU4P1yT76drGatYO6aSVzhSJy2W8Wfw7AutonpibzReXHXxNGJcR1HLIODxyQD6Yz66jedT78ljdQd/Duu/8AdHPFGsoJtk2mlggtUM8csQaKgrkmSDCYdQFnk+Ut2DxXAwO9RvJvbhVs2QeEGj/xIVtrqu3layjqZ6aSKYBpIHKsEKgEdd4IOn1kOtYbS5snwGiQf1UyTdF8+Jilp9x3XkXAKfEOAo69O9MxxIpWhkZDWkFx27oxc96VNz2hFYaqgpzJHIjyV/NjNMQ4cs/9Ynkc5+mdDQ5PZPLnOfB4JH1ulY5BB7yOsYz7DIx/4yOxp9rVDY/X1/7ysCGBGB3/ABz/AL8j/SH30RHkj3+vr/z2T7bfFrcVuhhjpKO0gRKAPnnwxAA5cfPCgnAzhR37abXstdnV5mACv1/ssbJuS7bt3xa1NBQRTh53VKeV4/NkkT5md3kkY54LkD2HQydECHO1FA2Z2TI0VxZ5P7hD94VNVtzxThrHp3aa3zwsYKioeYclwSvmMAzDv19DnI6xpNAAIRZM5ZPZ5anmw3up3PvO2rXbRidJY2g+IePMbjDsqHKhD2cgnJwBj002jUDQV3Bz58qVviMR3xttNNX+F9bd4aGGJrZWClaRKdYzK7FA8wOSTz8qPB9cD270Mbi/crV6s0sxyvPEFtmlXJmCE98ckkfrqTxRdLjH5pYa3XXv8HjbFCIrteK5UnagdG4tAW5Rsrqyg+uSCRgepI0J/iA12XQdFyBM1ziPRSf8IG1Qw3GzyCmpIUqaVpoEhj44p8RqitnssAqjB9MHSohtlVv9QyhsbAxcuqgDBMoB+VD7fbUQ+8Fysd6mlAXAzF+qf3rqY8laoPPz/dH7dcI6SNlehhqGWTnGzsw4tjHYH5l9Dg9ZH66gYQOQo4pvDbRFqNTVcVNbpaZ6OKViHCSsxyoZQrZUdN6ZGfQ96cOUjJtqrdDeOR0OsddaBR3SPbnuEdwttDC1xNY9MSsS+R5ZSPiPznADPkAZXIwPXOjbSuS5GtjRfCjJVwDb3whqIlIjZWhFN+0kYscZfGCoBOMnIJONTfDp2TNlGirQ2gpqiWoiqFgmeFJlDyiMlVPIep9B7ai5NJ42O2NbIR4jq6bmr+WcNVS4JGM/OdXYjbV0WEKDr80py/mxqRXFgcdZ7OkiVwBn17H20SYq3zAnOkmV43B9TpJ6WxGXGc96SZYTLyPLII+2kiWyIHhgnQpwjyWummjjl4EFkBP640w2CZ3KyW0QAnAJzp0KLUFojanyucAkeuonVamadl9Sj6atKNeFPGb/AJVNy/8A4jN/rayJP5jl5t1b+tl90oD1wdAs9O6bYtlx2zbJa2svi+bQ/PBRUU0qPhyQGZYmBJKJ0GH5Vz6Z1eLnCMBq9F6VLGcVuryXYvCHeu2Ld+F7XqYauhuNtsNPHVNLThVJ8qI4yOy4yFIxkFT9NIlraVmHLhcfDDhYTlJfdmfETyfi5QTSK8qhHwxGfbHWc96GwVY8aMG9SA+KniFtK2UFHWVFDNeaSMSRskUQOGZCqqQxB7PeQDjGeutFraCFDNlQxtLnnZeevDO4Wmj2ldrbV1EFuqquokaBSJ2ChogqsCit2CPQ6hc4u2BWPhdUw2FweaTTMwsWyoaK7VfxdXS22opJZ2gqlaokeBo1XDIEGS6k886fVdkGlbzczGijBP7rkNBPDHAMypEwJPDmPk7PXf01C6y61xU7HOlLmtXaae97lWp8moolo2qkAngW62xVbIySFkJkXOeWD2M49tWXuLhsu4hyZfDBLKNeaWfFGsuldHTfH0vlwTSY5mrgnLNFGkYT9ieKBEIOD83zkn2xWkBvcVa57rU0pLbH77qDs7dX4JQyUc8M7p5/xEEkLKHjchQwIcFWUhEPY6K9ep0TXkNpVumdW+xgtc27TJvHc07PS1l2te4I69GNRQtXLBFGH4NHzwkSlgA5OM+oGdSGVxYQB81o53V3Bo1RkE8XwuYpGisSgxk5P31AuULyRutmcnrStRqK/V0//Ln/AFtSt+781Yb/ACfn+y10biO2wN/9WNDIfiRyt1TOHqj+0N+U+zkrquOKpkrauIwqqhSjBQSoOQSO2Ykj6D76kjDzwut6BC1kLyVvofGB4JNtOaaaIWiieCUxwg+WxhWEFPrhUUfMff7aMtfZ3XQMaA1u6FUkc2464VSvHBUXGuqpZDPKEjRcq4Jb2zzP9mo3jU5cf1DEL5i4HcqJeoUtlwko5X8504kSU4MiMGUMCGx2MEagLbNLLkxZY3aXV+KY/Cu82ynu9TbKy31kxuUawxlKct8wJ+VhjPE5ySPTiD16iURGqK2OjPZDIRIeeKKapLXb47FJ8LTT0TNUPUw1FGjSELFKrPxzjtQDjB98+mdJseh5NrpJs6F8N1x3C5PuurjrbtUVsdPHTipqpZxAv5Y1dieI+wzjRR2bK4tkniyPeNgUKyo9fM+hyVP+zRad1IHOHB/X+618V55VmU59Tj+/A/t0xFKYPeO/6p28MNu0V9N2etttRczQwJLHBTV3ks5LHkOg+cqDgfKM4GckajI2scK5ht8YuLrNfXklaZYhUzeUjRL5jYRjkqM5AP8AAd/b9Royd1nSSOJonZYcQB+X/wAdf+P4fYmMneyojwsojJG4kiYAgd/Rh9D/AL/b+wKwdimIDhpd9fX16zMRVsPJSVcfX1Rh32NDek7qtboXUeP1UIho5CjrxZT336fQg/T6H9x1MACFZBDhY+vruPmFkMe+MffoD/dg/vH6aiLdJTH6+vq/dWb1wSB7HkRj/d+7941I1xpIfX19eRVE+xEf/vf/APfTV9fRS+uP8KysQRgxAj0/a/8A++nBIG31+aX4/h/hbWXzOpMtn1yTn/x/4/VmndAXm7v6+vry7PDuy97O2Xta8/DVFSKURPSLWVsciT5jYMFSNeSKuQwLEnPH17AsAjSLK6L7U/HiY4jZL+9vGO8bp2dWbYnsNDS01VKkzSRM5ZGVuXXt376bUAKUOT1YzxGOufVKmxtq1O6KmpijhrZEpghfyTEuASesyuozgHAGfQ/TTMDLolUIYHS2QOEY8N/EKt2Al4t0Flhroa+dBIKpijL5ZYKPcepyfuNODV0reH1D7M0irtTfETfFw3vXW+orrdSUIoKZqeNYHLcwX5ZOQMY9OtA+TU3SszqnU25obTaISjOnONkyAWBH8dVwaKy2OogpfmjdW8uRDlemX9w/s6yCNTGuQtlrgRqH19dwsWab0E1R/Z/u0hXkkA3yH181qZph6TTZ9uQBB/s0qHYKQBnkFJgkWVTnpx6r/tH21G9pUD2FnstwjyPTUahL6WLQ6IGk4kTFZpRTbanpONRNJNIZUjEjrGFQqzMfm45+X6e3Z9tSluoWtTFygGlvP+Emb553S7QywwSAMZHkCsXKcnJ7+hwdWIWBgK3sXKY9tWL90HNvZejTRuH+XrP2PufX9dSq+02rS0cAQSCkjKg/lHLl7/X92nFqMytBola/hVDHNGobrCqD3nSBvZN4rCaBW40UZOTQqgHuQSNKwNkZobrNKGlZmBpYuxhV7/tP105vgIBKyrJV5rZbxGONJliRgcjjP09fp3p7s0kZmje1uFuoPLiBpkjYDB55wff2P0025SdMwbArZBtqtunw8Fjs9bVTtK0Zjp4HkZjgFcAAnPr19tMQQNyjZI12wO67rtj/AAdd7V+36CtagjgM9OjmOWVUdcj0ZT2D9jqMBx7KQokf8Grew9IKX/8AuU0Wl3kmTRs//B4vNPbpo7rHCkxnJUCZT8vFfp986Wl3kja7Zepj6anQLwp4zf8AKpuXP/0jN/rax5NpXLzbq39bJ7pRH6nQrOVZbHTED6A6SkEjhsCt1thE9ypoWMGJJkB85sR9sPzH2H10Qq91JFb5APNHN+0FPSTUSwwW+NWjdv8AJkVSfnI+YB3Ht0eWcew076DiLWj1BvhhmkUDaWBGP6o0wHmsrUSr+YlPmYtwCfMT9MaIVwibqLhp5RS977uV5o6y0tFDTR3GrWrnKwlWVgoHy5Y9EKNSuGxJWvJPIY3B4FXe3mlSmfz5WiiMEKcflDRhif46EjSLKge3wwHOs/Ndv3BTWK8/gG5Km93OhFHE9yp4FolkD8eEbIzc8MMjGOsZOhLqBJ7rr4upQmJhO217/ggPixFBb6yK0q1RJUmolr55JIljX9rHEiqoDN1iHPZ/paUhulz3XZmuc1nfn8Vz4V8YqAnlvx58Ofty+n19es6HTtysgY7g3Xfr8k17vv0d4MLx1NfMRLJKRU8QIg3EBFCnDY4nLkAtkZGnLgWABTZ+UJyDZPv29Ep1VwiglZAA/E8WYOAufoCfXSEZq1XjxHPFrV+Lx46RM+2ZRojHQso/sJ8/yK0fGzfiJlkjDqE4t5QJ4rn10hWlTfZ2eFpBrfur1XmRUuYZ4ZaYYKqe2APtkaRpxFhKMNe/4gQ78ltsm2K7dkNTJb5oIHoxyKS5ywYH0wPsezqYOLOy6vo7Q2JzSUN2vtqs3HXrbaOvhWaRGaRXjYBVA7JwO/b0+ujL6s0ruPlxzODAeUestRPZ7pSQ1EM4e11lSJ/Jl8pjlUQBXKsOipz8vp1qAnf3WJm5cUUtncgnZN6WGr3g0F3tyPSNcZnjp4oqKWeNihCEySqAsWWB+Yj1JJCjRmNuxKpjp7somR4ongf3ShtNr1X3+kS1RxLUPMEp+ZIHInHZB9Pqf11G4MDqCptibHK1o3daZdxV1+hFNdkqtuVauJqaCqo6aRfKP5mUK2MHEnRx2G9yNMQ2w5aGRktY0O0g3YsdlhtHZ1ovVlgNxgvklymqqgLNRGFYWjRYsAmYhQQX9j3zA+mpGvtpoIMfwnsFNPf22Se1rEFVIs/MhXKLGUPPOcAEf1vbA99RlxdsFnunc52iMbonW7evO3aNZL9aqu2JM5KfFQ+WDjGR31n3x7Z0zmuJT5cUzXgaT+anbcq7xRrNX2MT8I1UzzQwiREXPXI4IAJ+vrod+FFBLkQOLo7252S1cqappLjNBVQtHOHYEFOJDZ7HEehz6r+8altrt1Z1F5N89x6/XB+RRa+7T3BY6OKsu1semhkbgCZUcoxBIVwpJRiASAwBOD16jQltKaXFlhAc4bKJZ7Jd7uKg2u2Vdb8NGZZ/IiL+Wo9zj9P1/v0IBPZRRxPkvQLpR62nqLdWvHLG9POgXnHIMEgqGGftggg+38QE9ouigLT9x4+vr68y172xuejsovFdtu5UdFyTjV1EXCMBx8o5e4b/AG/caNu23ZTDCmhbqeNvn+KF2q219zrIqW3UctTPI6IkcPzEszcVAP3JAB++D1pAgmkDInynSwX9fX6hXvdsrrNc5bZc4mpKuAgSRNglcgEdg4wQQRgkd9HTltFKSN8bi1w3Wf4Rdjbnuf4fXfAIAWqfhpPKAPQ+fOO9KxfKRgkDdWg19eiws1suF4uMdutNPNXVcn5IoVOT9Tnl0B9T0NNd7ApMifI7S1t/Xstl4tdys9c1BdqKehqVUMY5l4nB9D9CMfTr93oAvugkjdG7S4b/AF9f55lNb9xS2ynlahuD2+Qv5DOH8ligJfjnokAMTj2B++pKPdHolcwc12Q+jp6msqUpqSm+ImkOEjhPmO5+gUdnQlQhhcaFk+ymwz7g27Unj8bZ5KiIMD5jU5lQ+jD05L64PY07a5CsXNjmgSCfQpk2zZ9pXLb/AJlxuTQXN3dJVFWqNCRnhxhMZafl6kKw+3Y0TnkmvNW8fFhfDrc7ffulzbpgluEFPX1Dx0TMPMnXBaNPf9f1/jphHqOyyTCx7xe3mid/Sx09qpa+01tTVfESyK0MyKj04UKQrkHiWyT2pIIAOB6aRjHZHLhMY0OY679Ctu1bXs6+UlV/KK91FtqIldoYlgjfzgEJUIxbtiwA447yMHvoXtLWiuVd6dixGy95HoEk0tNT/GwwVMstPTiRBOypmRULAMcf1gP6Ok4kdkTHAvGrgn6pMG77ft6KhiqLKjg/EmElaiSeNkxlWZnij4v12oz131juTtas5LI2C2KFt2ksNVSSPcqm5Q1fxEccDU0QkWJWUku64y4zhSoIPv36aBxoWhijY4Fru623qihp7tWUkDyGGGd0QsCGIViBkYGD12MDUNWVlS1HI5o7Eo7uW27XgstNV7eqrtVTPKVqPikULCuBxDBV6Zjyx2chTo9NAmlNO2ERtdGTZ5Q+xWi93inqqSzw1c0ShWqEil4Lgnotkgex/cCT0Dpw74aUcDZpLEYtC7rQPRV9TbakCOqiJSWMSAkdfUHsEYOR0RpBzkiJYXfEKpMdz21Rw7Ynrae01qJHHDIk0lNOhHIqp8xn/ZsDywOHfY9s6LWRsFpySuMOvcHbi0F29b6eeWpR7PW3JxFmKClDAg8gCx4qT0M46xnGdNqcOVUx3eI46gXH0Vt0WuG33ZaWnp6mFBTwsVqoykhZkBJKn0yT6acFwPKCVwY6m2EYax2ubZj11NYr1+IxxKzzvyEAQZ5yKeHErjj1yz3740T5DYV1oDsYu3v145Sj5YRSXIA9yx0zXFxWbqLjstPnKyhkjLfQkaRfW6k0EGiUcoLDWzUsM/zcpaV6hF8pihADergYU4QnBP07GdOH/mrZx9Tbad+U1/4PAx4zbW7bBrD/AP420MTiXgFN0x7jltFr3yPTWmuzVaSSrSSVH00kl4T8Zu/FPcp/+8pv9bWTJ/McvNurf1svulD2zn31Gs9Vkd4I0klkreUyuCoKkEcgCP4H10V1uiF2pNyuNXcPK+JaLjECEWOFI1GTk9KAPXTE3yppZ3y1q7Ipt/elNtsW6kqbU9fEaqWSeI1ARJVeMIBgqe1Pf0P64Opoow8WVr9Mna2PSW3RXRL9+A0m1qGjhnphfEkhWq8uek8oIJv22fM78zjz9R9NSta3SLXSCKJjfhaAdkv+MMlimppqy0GjS3JLTfCsZYGmZuM4lwEJbH8169Z1G/ba1T6w1hhIjA3pLtl8PbbU2O0V9Zfqqna4vT8THQK6xvLIERORlBPZGTjrPWdImzpQN6XqjEhdyFHutJua329fPWtho1jaCGU58vg+TxB+h9eP+/URsDSe652Rk8QBfekbIVXV9dXz+fcKuWqn4hTJIxYkD9dIknlVZZHSu1ONpvs+ytuy7ct15qvjpmqKmMTCOuWPg7yiPKoYmzgEHBYZz7albwAuqxOmxy4gkde4r80E2/Z6W4btWy1c0qU7SyxsyOEbChsfMQQucDvBx9NQnY7LDwsZsuWIncX+iIbs2rYLPQ1EtsjqxNBNToryVSzRvHKsx6HloVIaLvs570byS0Fa3WcBmNGHNvn9f7LHb209u3Pa9TeLgZTVrJJGsYrlpwwRFcKoMTksQW/0R1o2UKT9KwWzY2t18oRuO1UNkv1Tb7ckopkEbR+YwZ8PEj4ZgBkjkRnA1E69RtYnU4/DyHMu6Rzw72jZtw0dweekpnqoZUC84pZCwIOQqxyIB9STn0xqZhNbrc6LjjIhcZPNY3yufYayrt+eG2VU0slLO1GJB56BInQMsjuVdS7g4P00nG3bKfLdLhkMhFEnf2Q3Z9l3Jtq/01xpbrRWi4FGRFkZvMIYcSB8hUn2OD137jRPdpBCjhxclhD4yA48KHvyzXq3wS1d1nSpqKupJllQ9mVzzwwIBBIYH0wQetRN3dazZ4Jo8nxJhzv+Sf8AwbSSHZE9FGT8dN5zx08tHIY+IwpfmjZc5IAHWD13oi/eytXCc18J0mybrYrn+yopZ94WdKmWegp1q48tTSkS/m9mAyv7u9Qiru1gYro2St3sk8+SZvFupFX+H092qY1uNO8okpUkqRHGh48WxPhuRIYEjogDUlnTsr3U55Tpb39Aa/NGfCC30Fx21NbYo6mpqGr/AD4qdJ3aNnQRsjeWkilgCCW+uE7GDp2Sc2rPTWySxUbO/wBbfqucU8lvpNzRVlRUNG0VcrvLEecikSZLKpJy3uB339dDrfdrJYZ3T6TfPkmjxNkkprfNR3VrbDUtc2qIaagpzGzIyELJKCinzDkYzj8zde+kdXmtTPOlnhNq7s+3qo+wKe5fyeq/gLjLQzU1dHWTliwgjjKFCzMqkZycEHAI9Ae8C2i5U2yOkjPhOrSflSCbnqIbhf7nUB5ZY5a6WSOcqFZgXJDjGMHvPt+7Ql2glUnyHxzIx3qm3xVuFJFtO30EU1TJXVUyVFZJWUa0dVKOGY3eJY15gs0h5ln9jnLasaO4K6DMk1Y4aRueUH8JKShudfWwXC4XekpqZUq3FBCx7jY/O8iqxiChiQ3HvJHWgNt2Vbp8Qe8hxIHOyC77rJLju+7VryRztLUFucU3nKwAABD/ANLrHfWhIINKrlvL5yU6bxqqODwqt9ra43StrHaKeNbirwMiEHJiQqPMQdqP2j4HYA9NGQbBWrkPrF03fHOxQbwYlZN3l0uFzouNO0nKhpPiGbiQw5jg/Fes8+Deg6zpwyzfdUenbTXdfX17Ib4lVkddvW41FIyPTc1SnaF/MQxqgVSCAAOgPlAHH0wMafVYAUWc9r8hxBBCZLnWXSLw6Wlr7/P+B1NAklvimRxK9QhAaJSV7iDF+s8fynPtotVCldkLjAA5/wANbeft7Ib4KpHUb1jglqJVSWCRTEkAl+IHWUKlHDDHeOOfl6IzkAavdQ9MaPH3O1KvGOa1TbvVLLWRVFHDTpCiQoESAqzfs1ARev6X5cguRk96B1k0m6m9rpvhPb8E1WVaKh8MlvE98uMNRUUEtDFG5K0+cSHiqeUVdgSq/mziQkEccalay+Vca5seKJNW9Vzskjwxlq4t7UQoahKasdZVgMkJkVnMbAKVAJIJwOu+9DQPKzenmpwQaRHxgur197hFZfKe51MTTpK8FOYeJ804LqccXYdkYwD1ojRstGym6g50jgS4E78I5s6K4U+wKO6JvN7Tb6apdXi+HYIHJbmnLgQSUCEKT0Wb0GnsloLVaxARDqL6Ht5pB2Rlt42pFrHo5DVoElEYdkfPynjg8jnHoDke2heSASFn4jdUrd69fr6CPeKj1UIhtlx3Ml5qKaqlJiMHBqfKx55BgpU8gw4/RQffRbhWs/UDpL73+uyneHslZT7ONZRbn/AqeluPKpZqUlQT5fD9oFK9jmeJPZUdd500h+Hb5KbDLvDBD6AO+yQKXyn3MhmrHgjetXlVKnzIDICZAB7gd4Ghce6pA6pBvtfKdvGOOnpZIaBdyXW51KVYkmhr6hpHVmXJPAxp5eM4GMhgc9Y0bnFzVbzmtj+EOJV/ByKA2G+TT7hudsjhkgdo6OoNOj/K3FnlEblBk8c9evv1iCrVrp/8txLqSjfK+jkvdfItYalWqJSJ2UjzByPzHoevr7eum0m91gTwvdK4jfddB8Uamko7QKWXc11raiaSGfyawt86EPhxGY14jHEhge+ZB9M6lLXHa1pZ2MRHQcST2NIN4Z1qRpd6qnl8ySCCN2hkaWOIx8iGd2RTgKOu8D5znIyCAaQaKh6fDIwOf5drSbvqoiqN13SWmnFwhaYtHUuuTIMD3AUED8oOB0o6GjIUstF96k47xEFNtGWJquWOWajpGp3krKh5LggKZDxOoRUXHJSvp5YHedGHECrVqXSIqJPpugXhjTNV3G5IsZklFC3CnE0sKTjmhYSPECwRVBbrGSo70wG6ixAC491H3pTUtRuBnobkKynFPAqsXM3lkRryiEhwXVDlQxAyAP107n6XUQq2XO1slDf5pprKKmi2Yiy180Uj2lVpqpqyblOeuVOISOHlDLL0cgrnJzjQvO9q27IYIdzW3nylrZNmpKy7yUlYsEnm08iwPJGCsMvRWRgWHIDsYz75wcY1EX6htsq+DMx8mlw5Clbv26m3qujtTU8iyx0iNNK8fAVDszHzFXJIUjAHpnjnAzoXKv1EeHNpHYJtsVHGdgTxwQioqjRPLIr0kqiGIl8MrK3zk8G7OAMHo405ZTQrsct4pA3NeRUbwCi4+Mu12UdfGf8AcbRRG5AqHSX3lsC95a1V3SrSSVaSSo+mkkvCfjL/AMqe5fp+JTf6x1kSfzHLzfq39bJ7pPXsn9dMs8qgiITxQLk5OPc6ZPqJ5Ks6pIAHUMPXB0iLTglvCNbPp1qL4sRWmYeTK37dQ46QnIUkBm+gJGToo61bq1iN1ycD5rpNoo9vQUdcblNb7LQfi8MUtbDTRymGMUobgDIH48nCgjJwSe/fU8ekOIPC6zAhi0v2As+/ZcS33uw0u6KuGy19FPblIMEstBAzspUH5j5a5IJIzj29/XVgMFLVbAxya9q3ujqrDa6s39GvMs9PyoI7TEYpA8yq68vKxkISc59sZ+kT2MBVWZjWnY73+SbG2+Km+WetoTdnENVTBooqyNKKNYq8OxZD6FVU5GfVQftpCqJKma8CMNaP8IRvlYaDbg4JbQlbLFMzU9dJLJyVWBaRWYqCc+wGPTVU3/yK5nqDA2LSwcnzJ3SKrKwyCMEdEaBYJBHKfbFty0Xils9zppaJrlRJG9RNJUsPh4oqhZXDIB7KAeX+cNWY3Oq+y7rAfG7DYL4H1aBWGotzb0aevqYIqGSafnLM5SPgyuBk+wOQM+2dRNNuXOdPkY3qAcTtZRTcFgtlh2L/AMFU9DTUlTWU6otNM83NkWoZmLHr0lQD0yB6e+jeCB8RWv16Rr4bHn/dW2vY9v7i2dUU9zSmqKmjmmm4uzhqdXjVVlOOuPIep9MaeMcG6UvQ5GfY3NPqtF1qKOp39NKklBW0oSNeczsIH4U6qTkd4ypx13oC0OcbNLn8uRkmYXNoj14TNsS1QTX+51VPPSJSARf8Ub5MvECSA/E4BBz9CdBWplFdZ0YMZqLKPtxwpsWzaitg3BFQVlNLUtdJD5qokrJGYIXaMEtxXAwWwc9Y1L4ZdtXCbNhfPqaw0SfL8lsN4iluMFJVUO5PiqZeUhpKeE0zN7sOSsce5BbrvQyPY7e+FdxjPE2g3et9kE3z8Pum+W6io/PgmnuaUVSaxQWjmSGFEK8euAjdSPclm+2HkuwD6LnerAyvY1m2s73+H4LVaauht9MtLSXhqoUju0E72F3anPLJKESYwGGRyDAHsYOh2Cgx43RMIY6676TslxI9pw1dOf5RS1BeUARPZ3cSHPoVWUE5+xH66Fo7jdVMXBx5JR/EJ+S27yudpr3o6Hce46mNKOM/CUv4EUSFGPfFefQOB7nT6HkUOFqT45lPxSFoHAqlL2hfLHabTXUlnujyU1UcVTjbbM7rj8hcSA8ffjnHenDH1SnxYzGwta+x/wDz/lAbfNsWjuUFbS7knjqIJlmi42I/K4bIwPM+oHWn0SDlUBhN16hMfw/yj+7brZL1UwLfL1JTVcDMsbHbjwSAE5KEmUlsE5/fp/DdVAKz1CJsrBqdXmdJUradxpLdBU0Vku1dcIZnzMq7cedQ3BkIOH/quwx30fTSY13YKDExQIz4brB/+v8AlL0o2mZ3n/lLVrmT8qWY9MT+UL5n16x+7QabKpNwYvF069/ZM3iS8FyoKWo3Tea2lhjlPkVK7X8ss7EsVLed8uSSeP8ADUrXLdyY/GaDIaHY6UO8M6m3Wquq22tuatraiQK8sR275gBTlxb+d9uTfrnTP7FBjNEQIYbv0QW60+yZa+rkqt11tNMshEkMe3/KCNntQplIUDvrSc0udsqrsfHL7LiD7Jj3NerXdNu01Hedxzx0DyK9NUttchyQFBIfzushF9MemlTqHors5Y+Onnb2/RadhCzW64zy7a3Nda2sWPlJGNtGXiqOrhv53ohlU+uCR6ac2eeFDixNidcTr+SC3yHaFZdKupqt1V9LOz5khTbnlhWPr8vndd/36K7PxKtLjwl5LnUfZHr1cKKbZlNSXC+VUdofy1hnfa2GZkXgGD+d68QBn30tNAhWZmNfCGuOw70oGyP5PWzcKvt/dVzqamVCpg/k8ZA6HBwR532Hf9+hcLbuEGKxsb9UbrPstW6X2pdr/WVV43NW01eWzUJFt0RcpMksxXzSMnOfrpFoKjyIopJNb3UT6UjElwtcmwEt8+4KySxKPKSabbHIhlL8SriUYIMj4P309us7K05rTAGavh86QTaibYtF+pqiz7trqusIZY4TtxpAealW687PoSNJzT2VfHjha/U11n2Uneku2L1fJ6i9bqqKW4cR8R5W2TE0jf1iPO7OMd+4Gk34Qiyo4Xyanuo+yL2O4W+DYs9vg3DW1tmjVuby7WLhVDcvXzvZsHPtjGlvfCmDWeD4d2322S7YDs21Xmhr7bu27SV0Lq8AWw8gW+gXzST+mmOpV8aHHZIHNeSR6KXvqSx3K8ou4dw1dLXLCiZG2vJZlChY8nzssAoABPsNFvypMqKN5t7qPt/lTNqz0VNtq4Wq07hq661EyGpD7YMoAYJzz+17H7ND9sZGNNv5KWPQ1mhpsf8A8pUoafaEFfSVcG860TxTrJFmxFsMrAqMGXBGQOv3aaiFTZFEx1h/5I9vh7RdKylm3BuGejqFUCJl200bSIDkZJl7GSf0zoyTppSSMjksvNfKlq2herRYrdcqG1bnqaqjqQfilk220o4lGQg/tfQqzDvQFmoEdirGPUbSGO29kCmXZ08nIbvrwzNkBbKcDJ9APN9NI6iKVIYsOvUHfkmHe90oLsaZdx7huFNIAzxSNtpoXYMzMezJ2pZmP79O0EbAK5ksbMB4p/JaNoXW12N6r8E3VcJvOCNOrbeMoAXlgn9p0PmYfQ570tJO6bGDYQ4Ruu/RAKtNm1Essx3bWxczkxx2Qqq/YDzetBpPZV348Ln3qr5I3uK92u6W6Chu2550jQ8opG26yMDhQcESehCr0B7ad17mlaljbI0NkO3nS17Sr7Lt+5S1Fr3c8jeWol86xOyji6upP7XrDKP1xpUa2CDFjZE4ujdfyQ24Ntaouk1Y25zDI7cpY4bI8cYGMdL5h79P46ZwN8KGfFgkP3qv04Rqs3JZa2zQWqr3CjU6qiQzPZJAy8VCjDc8A4AB670ix1WU0sGqLQXCvY2o9prNvWK5xV8G4I5p1yI0msrTD/pBS3qPY+2kxt8KtiwtbJqjdZ9QrV9Xt2818lbU7mKTuf2mLVIpJ+py5OdIs80GVjNLy579z6I1Q3O1JbVp49wxSeVGaeOqazSmSJCGHEMH45xI4GQSAxwRpi2u/CJrtMJbq24ujwjPhLbKW3eMOyZKauFfTVshmikERiIx5qYKkn0KH+OmjFSNTdOgEWXGQ6wf8r2wPTWsu1VaSSrSSVjpJLwn4z/8qe5M/wD0lN/rayJP5jvdebdV/rZfdKAyXJHWmVDsqAP00KVqxOD66O0/KtnrQJ1Kob3drbE8VtutbRRuQzrTztGGI9CQD3ow7albhnlh2Y4i0I3DWVtdNHLWVs9RNJMMyyvzfP1yffr11K0kb2r+PlzEklx2FrQu89zwYjpdzXimij+VEir5EAH7jqUAd1oNnnrdxtDrfUBqkO55O7tlmOSSR9fc6F+9qnkscWn67om9QoODg/UarubSzhGSqFQvsRoExiK6B4evXNsy7VcUFZPRU1Y8kvlVyxJGRTjLcBGzOclMjIUjH9UnU7j/AAqXTdNaWYjvmucV9SPgpwSoXyyAc+pxqNo+JYEMX8Rp72ujb1rbqnh3YYLhAVhZIHpJTWibkoifpgEXj23QLMQMjvs6eQW6wtnqJL8dgPohvhhTXC53i4R2+OeVoIIZ2WG5GkIKu2DyUFm+UvgD7Z9RqSNu26j6ZE/w3hv612QmKvNLdJKmmVMB3ASQcwVOQVbPr0cHUbiWuKwQTG/UB+KZKar3jHTPcKWV6GlqIBPiNkjjMcYVAQp+gKge/enY0nhXRNlx/GzYHy42TJat+1VithpNx1NdcZpQZouHB0jjIAGGyAQ3Zyp64j17Gh17kOWnh9XdjgCe3E7qEPECimr563nckNQrKVSlhIAZcdEyfT31HtytD/8AJoxsWlQrZdLVW7xsq2ta3k96SqmapVFwxEMYVFUthQIgck5ydEHbgDhZU+bHl5URYDymCghgn/D6yiuVDFbaY5qS0qp5bK4ILKTkEfN65yTn00g34rXTQTQOiL2uASBtiW0nxLqJ56pKekqGkSinlcKkbs4PbHpcrywTjU4NspvKyOny45yXAbAlbvFpLcbNSUorKStu7yhwKWcSiKMKQxYg4HIgYGmYSB8SvdTkhjZz7Ji2HbbFX7Xtksdyt1F8KgWsE1QFZGUEsxHRGT2DoHOeTtwrGG6CSEOBpLO36va0vjBdLm8MFLY6nz46GST5UjkZcJL/AJo5AnPty0bnfBSowz47ss7ik0eKtTZLbsCvtNXW0Nfca2rSahWnkErxAOP2jOMkfIMevf6aGJ7zuVodRMEcGm7JU/w6r7fX7DsSUFxo6GstTSfFLJU+SSxkZuXr3kce/oCPYaTnvDtk2BJjvgaLqkn32/WCq8dE3IzRSW01EbVMyr+zaURhWkHpkc++WO8Z0Whzm2Bus52RB9uBH3U5b13fJaNsXGOPdMFbUVDn4BKd1kZckYPv+Uf0j66hi8XWdXC2+o5WNHBbDuQhOwd83Su26KWovkAq4ZiZxIIoZHQt1gnGVx9PQjROD+WqlgZkTmVJylbdu80qN6wTRrBPbaeSFJ2EMbeaVJ5sG4951MCWjdUJ8iP7QK4TBvbc9qbbdbHFdo6lqiDFNFC6sVf2YYAK49e+x2NRxeIHG+Fdy58Yw7crDwwu8U+2Kyhe4CnvMdQJTJUVxQyxFFCgBjggEHIHfencXBuwUHTZo3Mp53tBfE252mbc9MsFU1UtMIUrSknOOUhyWwew2FwM/wC7Rjdu/Kq50kRyW6eByuj7oqNry7Lqqye9W+WB0JiijquTFCMIix+oYYH6aZr3A2FqTHHdCXF2yQfB+6WmlS609XPHTXKdY/hqiVwn7ML8yhj0DnBxnvSc5xshZ/S3wMBa7m0G8VK+21V3pxRPFVVMVJwq54yCrv1jBHROM6TQdI1coeouhMo0bp7uu49tPaIqiOspfwj4IotGJQZAcKAvD1z02Rj3Bz1pAv132WgZMcwbFJPhHeLZa7nXNXBYqianC0k7OEEZ5HkMnrJH92jcSQQszp742Pda2eL1xstwuNKLM5leOOTzJGZWOCPlBIJBwcn7aTb0ouoPiJAauhjdG1323aXttRS0tupqRYqqmklUN0vzrw9SSf45zoHF2oABabJsYw2DwudeFV2sls3ZVVFevkxzQSx0UrnCwMz9ZPt8uRnUrh5LJwpImzuJ2vhT/Fu42ispbYlNVmruCP8AtH84SBE+xXoZODg+negYDW6n6nJC5tMNlMO3NxbfOyrRT0dbBQNTxRx10bzhGODmU8fVieyPqTpjq2VzFkxhFua2SDtO42Gi3+9dU03/AAa00vkczgR5/I32x+mjJ22WbFLCMgnt2RfxIudtrbcqfGU1VViWI03lScyigfPyI6GT6ajiLhs5Wc90Jh2NlS9m37blPtGnt7TCkni8wVZ5iNpSSSrd/m6I/u6002sD4FJgy45YA/bzS9tm5bdoPFRLnPE81mWoYxFxx45UhXPrjDYOiBJ5VNksQnvsmXxSutvq7VUCS4U9bPLIPh0SZZGUhs8sgnC8Tj27J0zTIXb8K/my432fY24qDsC9Wmm2dUW4SJS3KSZpJHZwodcYH0/v9NGb8lBhSxBmhxpLa1Nkg3/S1jxCe2RVEbz8T0+PzEEj0z749vTSslvqq8kkAyLH3U3+Ildtq5WqvrPiWlq5/mpkSoVlzgccqBnI+bJ69tBpfq9FozT4pxzqPxdlC2RcbCmz7hZKydaeqkrBM3PgolQYwQx9SO8DPufXOpNwNlU6fPF4el2xStd0sse6KZo5HqqFBGa0p/SIYc1U+4A6zoBbvRRZLofFFGx3T3d6Cx2lqm7UtbQS2+eOUx+TUxyGRZFIWPyyM59uwCvr1jSDn667LRc6BsRcSlLw6ns1NHcorrzFVKiilkDAcR3ns+32/T6akLTWyoYksQJtW3Y1DVT0qWmUyMnmmobsgAsOHfuceuoWlxFP5UfVJcUFuk2nrw+/C2r45VqmioqX9pKgUKFjz82Qc4z9/wB3egfr1jTwrePPhua6jVJj8Mo0Pip4cyxDEDCdolI/Kvn1OB/DRsB1g+qycZzDlQ6ON/1K9lDWmutV9JJVpJKx0kl4T8Z8f40dye//AAlN/rHWTJ993uvNuqf1svuli100VdPUwyPXo6RqUamVCqgk8mfkM9AdY9/XUzGs0EnlW+mYkUwPiC1O3LaKGz7ap7tHca6aoqa5YYkeJFi8sqxbP9Ll0MH070xAI4V/J6TBHjl4uwtlusJFDTV93iqkp6yNZKZ4WXiVJIJJIOCCPfH66AsAVfG6VqZqeDvxX7oDfEjoLtU0MFXHVxRt+znjGFlQgFWx7ZBGR7HI1G4UaVKfF8F5bdrftyjhutW1KwqnmJHBacKWA75NhvzYAHQx0T9NEGNIJU2JjCZ4ab+SjTX7cq0M9PYoKF6SiypZ7dA7qDk8nd0JJxn9APpqcNZGLJXZY2DFGzQGhAZPEHcsQZC1oSVCQSLTTDP2P7PUxaFOcZljZbq/ee9rXPFV1rUMRnX9mr2mmAK+hwvl/uz9RoGmN96SiOOwGy1ZU27t5XVnS1LSzOBl1S00zFRnGeo8+vvpP8No+IoIcBhv4QfkFBXxB3RGzxPPbcqez+F036Y/m9OGgjZC/CjJ2AHyCk1PiDv6jSCqf4SGmb+ZZrRTAN+h8vvSDGqXwGt/4rCj3/vWor447c9FLM4LKi2mmY+nf/N6FwjaLcoo8VjTYG/ssB4kbx82SknnoYmiJYr+FUykH3H83ogxjhYTyY7XbUpUO/PESnpI64TUnwyHkHFrpsD9/l6HTHdd0bYWt3DUdr9xVl+2ZablcRTvUvV1Cl4qeOIhQseFPADIzk9/XUUgAK57rWO0aSAjVkuF9rbPFR/HUcNJS26pMUUsWS0HNS/QU9lvQn+qe9RguabAWXcrotJIoA8qLuKOoFTTtPLTSRy06PAYEKx+V2AFBAI7Deo7OT3nOozXZZ2TrDxq8tq8kK49aYqra6BZ6qjfcm04aK6QVSivpjLTilEbRurKAeQjXIIPYy3fuc6kfp1g3a28d7DJCxjrFjak4Tbfsgqo6eov1WtXURecq+TTnAJPf816A59dF4rQQF1R6TG9xcDQPbav0XPDt+TdteLTNWrFS0FVX/FVvkxiQwRGDiMIApYljjr3Ok97Y/iVNnTBPMBxptCd4bOt23LZTXmyXF623VMohcTKA6NjKsCMZU/p9PXQl4e0+ag6t0rwo/EaeEf23sCxVtnoKy83CRKuvTnTpEq4RfbJIPfof36jbNpUuF0MSQB73mz5Jepto1Fbvj+SbVccQwzyVBX0hVeXID6kEAD66kFN+JUMfpDjmGEnjupG+PD23WKxterPc55oYJViqIalAjjl6OuAOs9EEe+ngnEhocLU6j0jwIvEabrzWzaWwrPdbDS3i+XeenavdlpYqdAelOMsT7nB6+g08s4a6qQYHR/Fh1vNWgX8kqqLfQ2ktfCWecKtRxyhjK8uePrx9vrqfW0s1WqJ6c77WID+KbNy+G9go7BVV1quVTJV0iiR1qVVFlX/ADcAY+o9dRRzmU0Fo5vRxDCXMcbCF7C2Jar5Yvxe910tPC9Q0FPDTqC8hX1Yk5x3kAY9tKSXS7QAoen9L8ePxXuIBQ7dWzktu8qTbtuqo5oq90NPM59Axx8/0K4OcadrxWonZVZenPZkiEOu+E1XPww29Baqt7fd6ievo4i7GZVSKXiMkDHY+3Z0AnL9mrTy+hlkJMbt/VLvh5s633211t8vt0agoaebyQkagu74BPr0AMgfqdFLN4VKp07pX2oEuNALT4hbO/k9frfbLdUfEpciogMhAZSWChWx6dkHP0/TTMl1/EVFl9MdDkCMG74TdP4SWSKkno1vcsl4ggMrE8VhOPt68ScgHOmbkh7i1q05OhVCS12/5JQ8NtnwbsesrbhWPS0FM6xBIlBklc9hRn0AGMnv1GnfIIws7p/TXZHJ2C2+IezbdYJrZJZ6l6ukueREJCPMXGMjrrByMHQtlLhqQ9R6e/GeC02Dx7p2pvDDbnkR0T3gi9PFyDIi+SrYyR6Z4jI7zphMA7SrX/46TDu86vySTsrZVLfLvdYrpUtR0tsbExiwXLMWARc9eqsc/QaKSXw6PmqnTcCTJcQ40G7FaPETaNDtmmt94tVxavtdazKvmAc0IGcHHRBByD9tGHFwPYqTP6f9nrSbBTTReFVnqKKmp6m9z093qYg6oqAwxk+gJPZ9Rk51E3IOqiFbj6I7wQ57viP4JR2HtNL7uOttFxn+ES3cmqZF7YYPHC/Uk/2aklkLN1n4vTZJ5i26A5UvxE2bQWC1wXuy3OSrozUfDyRzgB43wSD16j5SD10Rp45RJsrGd0v7M0EGwUesHhfZa2w0dZcbtV01ZWwrNGsEaskSt+XlnsnHZ9NRDIo0VZxeil8Ic925Spt7aD1u+6raddUrD8G8hnqIxywqepUe5PWB99HJJpAcOFnRdPkln8MGq5RXxB2HbLHY2vVjulRUR08yR1ENSqh15H5WUj1GcAj7jTR5Ak2VzP6WIG6mmwpO2dh7dr9tU94vV4qKOSqQyJHAF4xJnGWLe+e8ddY0ByCzZyLC6K6WIPe7lLx2XU/4w/5IfHQgmT/jXH5fL48ueM+vH2z69alLwBqVMYDzkeCEw7u8OLZbtvVt0sd1nqZLeEaqiqIwOSMcclI9Dn2PsD31pR5DH7DlXM3pJhj1g3Sh7F2JbrtYvxq/XKakp5GYQxwAcuK+rsW6A+n6aaScR8ocDpRyGa3GghN/2dPbt7wbbp6yGpSs8t6WqYcVMb9hmHtgZyNSaxWpVZcF8c4hvlMt/wDC6209kram03qepraGBppkmjVY5lX83E5yD7gHOdRNyGvdoV/J6QYo9bXWhvh5su17jtEt2u9bUU0Sy+SqUwBd2A7Y56AGR+umkm8I0VB03pTsi3OO3ZD93bPFg3RQW6lrEraS5ojUszDgSrtxw49iD7/TvRCUPZqaq+bgPhlEQO54TXcfC61/CSUVtvk8l3gheXhJEohmKjkwUj5h0PU50LMhpfS0ZOilsWrVuAlbw62ZHuk1c9dXmjo6PirFFDSOzegUewHufuNTSTBnKpdP6e7KJPARPcu1KfbFRSJTXSOqoq0M0Dyphg6EB0Yj0PYIP3PpjUAPifEqvV+lmF1h3K6BavDC1VUEdve8yLeWpzUMoUeWoABOOu8chnsHvrTCZpNKwP8ATLTDq1nV+SleHNPLSeJ/hxRzACWAVET4ORlZ6kHGpYx8Y91SxYnRZUDHcgH9SvYA9Naa7BVpJKtJJUfTSSXhHxl78Utydetyn/1zrIfvI73Xm3VP6yX3QDbt1nsVXXVVPRCpmqKYQxt8R5Yj7PIkFSHBBxjrUg0OaWu7q50vqjMKyRusL3dai82OO31dphSoSrSdapKk4VFUrw8vjj39c9Y0Q0MbpBV3L65FkRObR1FXob3caW0m1mVpKbrijNkLj0wPb09saB2lxBKpRdYnijMYOyF1UclVVSVNRKzySHLsfU+392hJBdaoPynPNnlTNtVsdrerVqmrp0qQokMMKS81ByUZXIGDge/WPQ6YO07hXsbKDD8Rr2QaaLdBudXTbdiSop7uSRTRlHfB5DgQRkMAT2OiD/CzbXN+JdVidVhdpDXfF5IQ+xrtTR1RulVQW6ui7NDVSMsxPrgAKQM+2SNP4jSaVqTPhiNOdRWe7Lhujd9VSSXz4eSWGNadJB5aBUznJ4/ckk+/Z00MUMIIYgk6zDIRqepVCl/2Xc3lsF0ttS1RTmOSWncsAuclTzCkHIB660M0UM4p44Tx9XhjNtfuhVq2xUXAVVRNXWy3MoyiVMpBkOD0oRTj9+NS62NoBCOqY53Dla4G911pprXLQ0ixU5yrx8Vd/lCjk2e+lA0mloKZ3Vcbf41I/CLjtmspK61V9oukjxsskcfJ1ToAhw6qDnJ9M+mmc5rxSb/dcdn/ACWuCy3DcF7r7ldbhb7fPUFpXkn5cXdjk4Eatj6+mnDmtbQTHqmMT95UZtzPtj+TRpqM0isD5gQeYwVmIAbPplifTQ+GzxBJe6R6xjEUXpqa2Q0GyrPbhdqetqllmnmihD4g5rHhSWUAnIP5cj76imeHHZYnVc6KUN8N1qqOrr4kjjWsqFSJGjjUSEBEb8yj6A+41FrdVWsCSQnhSqyrqK6c1NXUy1MrAZkkcsSAMDs/bQk2q73OcbctIA/XTKO0a2U3k7stVZIkpgpayGeZo4y/lxq4LMQO8ADTVuFewHaMhjzwDuupS7o2xzgP4rt+ZoIhEkjLVAlQfr5Oe/UjUhawkE8rtj16BvwtcK+f9kpwyW2guf4jQb2sgaSsq5qmnkpKsxSRzeV8nUecjyz39x99E4tcKKqjqkTZNbZB3vlad6Par/BS0EO7tvUFtp3EiwQ0VWOTgYGT5XoB6AY1EAxuzSouo9Tjy2aGyAD5/wBkU25fLVa7NDbance365qYYpZmpqtWj+x/Y9/2aYRNPJRYfWW48PhueDXHP9kvwpTxbuXc6b9snx3mFmBoKsoyMMFMeWOsdeuisEUVUgzmx5JndKDfv/ZE9919u3NbVtUe7rBRUJYPOsVFWF5WU5HzGPoZ7wNKMRxD4FfzerMyWaGygfj/AGWW0q20WS0Laqnc9gr6eBmakaSkq1aIt6jIj7H9v30Ti1xtyWJ1iKCIMdICR7oG9FTvuwbobxAsxuazCVWNBVeUMDiE48Py8etO6RpFdlT+3N+0eN4o/NHd23K3Xuzm2QbtsNvimAFSY6WsZpADniCY/lXIH1OOs6jb4cVlm1q7l9XjyI9IkA/FadlVNp29Ry2yfd9jr6BnMsaS0VXyjfr0Ij9MgHHsfTROc1+55QYHU4sZnhukBHzQe70dJctxi/Pv+zxVkLo1N5dBViOIIflUKYzkfXPrk6IyMrT2VSXOY/IEwlG3oUy7gvNtuNkmpKbdlgo6qrThWTx2+sJZfcJlDxz2M99E6iY2NriWrRyutxyxaGyj8ChmxpLTtuOqopN2WSutlU3OSCahq8h8YJB8v0IAyD9NFI1sgpyrdO6rFigtfKCPY/2UDd8FHuK/i61O/LXE8AVaNYqKrAhCnkvrH2c9knUmprRTVXzOosnnEgkG3v8A2TLcNx0tXZZYk3Rtumuk0PkS1sdvq+XA5zxBTAPZI9QCTgahbHGHlw5WnL12N8GgSC/YoDsqG07amniTeFjqaCqAM8EtHV55AEBlYR5BwSD7HRuLXCyVRwOpMxQWukBB91bddNar7X08n8s7HS0tHH5dHBDQ1aiIEjJz5eS3Q7+2ka001RdRz48tw0yAAe6aYN026OhRpL/t2S6xoY1q2o6vGMAZ4+T/AJo69OtAI2atZ5VxvXqg0axfnv8A2SptiK32O7TVi71stTDWDjWQS0NWRJ2SGB8rpgSe/udHpa7Z6pYHUGYhJMoN+h/sr71prHuJKWgj3XY6G1USkU1LBQ1YAJ6JJMfr9hgaMOa0UEed1KPIoNkAA9D/AGTBaNwUtLZooKjdO26m40sYjpqyShq+QAHEFl8vBbHWes6hdHGXB55CvxddjEOnWL+aWtrUVBt7cD3il3zZqiWo5pVrUUVUUmDHJ9I8g57BGicQ/wC8qWJnMgmLzKCD7qfvdbNuSngoV3bYaKgikMxhipKsl5DnssY/Ts9Y9SfXSjDYr0KbqHUosloDZQPxRDbV2t1ssUNtqt1bdrWo1CUcslFWAqB+UPiP5semeutA9kbjZVnE67HDFoMgv2KXLXRUtu3Mdxxb8sk1e7u0/mUNXwkD/mUgRdD6YORgaltpGk8LMhz2xTmUyjf0KK7yez3y3/hlNuuxUVFLKs1SqUdYXndQAMsYvQYH8BoYwxm4Cs9Q6rDkM0xyAfj/AGVbYmtVssv4RXbm29X00QYU/mU1YjqCclGIi+Zc/v8AvpnhryLUuD1iGGPQ+Qfn/ZCPhYxuv+U433ZDcfN5/wDEqryuOMcOPl/l49euffOdESKocKj/ALg0ZPjCUfn/AGRvdVZbrvbZ7fS7o29b46zh8Y0cFY7ShCSqjlH8oyT9T3pmNjYS4cq/mdYjmiLGSDf3WjZ72mx2ua01W6Nu19AxYok1LVh15DDDkIu1P0Pp3pSNbKPiQYHWGYzNDng/ihN5o4rluRL/ACb7sMdbAyfDBKSr8uJU/KvExHIx659dG0tbsOFUm6iH5Al8Qbe/9kwX260FfaJaWk3FtmhqqmEw1M8dPWt8h7YIDDgZ++ce2oNDGyaxytDI63FLCWB4BPv/AGQvZXwO245qNN07fq6GZ/MMckFYro+MZDCH0OBkEaJ2mQfEq/TuqsxRTpAfx/soW47dR3i5wVR3lt+lSjRYqGCnp6oJTopyB3Fljn1J0bXNa3S3hRZeezInEokAr3TTPuINZ54YN07YpLjVRGGeojjq8FWGGIQxYBI+/WojHGHalov63G+Ita8X86QHY9Pb9tVUoXdm36qhqABPDJHVBsj0KsIsg+301I6pPvKn07qLMQnVICD7q266a3X6tgVd37dpaGl5/CwRxVZCFzycljESST+gGnJAbQUfU8xmW4aZAAPf+yfLZvKio7YMXzbjXUU7QGrK1eGUqFOV8n0wB1nQNAadQVg9ajMOnWNVetfoonhxPSy+Luw6enu0F0kpvNFRPCjqhdnnkwOaqfRh7asxbuCzMaRr8yFodqIuz+K9h60l16rSSVaSSsdJJeE/GL/lR3J33+JT/wCudY7v5jvdeadT/rJfdKg/XT8LPVHR8pLCRR7aFyIFYr66AIitMie+nUjXJo8L9zQ7Q3bDeKqiarhEbxSIhAcBsfMuesjH7xnT3S0enZbcWcPcLCy8Wt1Qb13MlzpKBqOCKnWnjEhDSOAzHkxHWfmxgegHroiQTan6jnsypQ5goBDdj2alrqi5VFTSms+At8lUlIGK+eykAKePeByLHHeB7aG0OEwTOde9C680zx2SwtPaL9W2SnjtqWb42vpoXdUkY1Dwr2WJH9E+v9HRtqrK0DFESyQtpumz+NLfftlbfs1AKKpgmkqrVWRVVymhYl5aGaZ0UKPTIQRtkf8AnNIeZRTYsMTKI3BBPsUr7+tUVLV0tRR0tqS3VUbyUdRb/MCTxhuPzCQkh1xg9Dv66AndZ+eNBa4AaTxSWDTnHppiSs4SqhTH7afdMZVsSn4nOdKyhMlrcEGmURcs1i+3WkhL1sSMKoUAADrGhQueSbKrj3pUm1LrHgjv7b+zrXc6S8UtQZZ5RLHNDGHLgLjyz2Md9j27OpWuAC6Lo3U8fEjc2UblC7XabBeYHuklNFDFWVlQ1SPNlVqOPl8giVUKuQDk56PQ69dJmlx4UUcEMzTKRsSfl5UkuwUVPcb5RUNXVLSwTzLHJMxACKT2eyB/E41CBZCysdjZJQwmgSie87HSWunpJoYmpJZXdXpXroqlgo4lZOUeMA8iMEeq9daF1atlczcdkLWngm9rB+eym7NsFuudnFRMkUsxqzFN5skqCKLipDJwUhmJZvU9cR13qVrS6lJh4sc0Zceb/JKjU2a40sLh8y+WjN8obvAJz6fv9NMW0Vm1btIRK97auFnpWnrpKHKVHw7Rw1Uczq+CewhPH0I7x3oRzStS4b4ma3Ec1V7q1g2/Nd6eWoFdQUcMTcS9VKUyeJY8QAScAZ/uydEG3yhgxnzWQQPcodX0klFXVFFNx82nlaJ+JyMqSDg+460xbRpV3NLHFp5CKXbbctuo56ia52uZ4ZY42hp6kSv84Yg9ew4+v3GhLdlZlxXRguLga8ja1bbsf4y03K5UVBHFjL1LMAxIY4HEH2Rj3geg9SNOyIu38kOPD4xPxAe6iXuga2XOooWmSbyWx5keeLggEEZ77BHR7Gg03wgmiMMhYeyMXfaNVarT8dVV1KJCBIlOpJZ4iyr5gOMY5MBj1IyfQakEZ3sqeXDfFHrcR/hDrHakuXxRluNNQrBGH51HLixLBQMqCR6+uMfXTgbqKCESgnUBXmolwo5KOqemkeJ2TGWilWRGBGQQynBGDoSLUMjTG7SUYfalxishu1Q9PDGU82GN3IkmQKhZkGMELzXOSO8gZwdOGK0cORsXiEgDt5n2Qy1W2e51fw1O0SPwZy00yxoFUZJLMQBpq3pQRRumdpbX6LZe7TLaZoYpp6acywiUNTzrKoBJGOSnGfl0q3TzQmEgOI38t00Wvb9sqNqitkRDmklkknLTeakq8iqqoTgV6UHJ9z2Mak8I7LQixY3Y/ieh33u/T0SraLbNdLgtHBLBEzKzl5X4IqqpYkn26B0B9VmwQuneGN59Va62uqtk4gq4wrEclZJFdHX6qykhh9wdOW0hljfE7S5FbPs+6XSzNdYJqSOEfkSWXi8vzcML1jJYgDJGTpACrKuQ4Es0RkbSGWWnae8UdMKQ1nmTovw4fgZcnHHl7Z9M+2nA3VWAapANN+iLbttz0dFSs9mpbdylkAaGsE5fAXo/M2MZ+vv6adwGnbzU+XHoq2BvsbU3ZdDJPajJFtmguDmr8r4mrqVULkJ8gVmAJ48+8HtwfVdACRe1qxiNLmW2MO35JS0sSJe0iamLxrUhTB5mOQ5/k5fcdZ04om1QqpKI78Jl3tahRW8MliitscVSII3+JjkmI4EsJeDHLchnJAwOtNRJscLQzYfDiHwVvXO/zQ3atE1TTVsn4ZaqwRmMGSvrvIEWeXQ/aJyzj74x99G0KDEYXBxDQa8zX7ofueIx7guEYigh41Djy6dsxp2ekPuB7ahPdQ5G0rrAG/bhMt+p5P5Oz+ZZdvUQSKKQGlqImnyzLxYhSX/KcEdDvJydWG/FGQrmSHBllgHsd0O2TFGwuMjWqgrZYY1khkrKqKKOBvmUErJ1IMspK/5ozqLSXGlHhadyWgkeZr9eUP3ZTfDbgrIvIpoMFWMdM4aIEopPEjrBJzgdDOB1pOFFQZNeKRQHtuit32ctu2+ly/F4JZzCs7UxhK5jJjHJHyQ4BkA9B6NjODotAIVmbC8KHXq38v3Hmhm1QBdHLC0YWCQ5ua8oR16gYOWHsMH30LGm1Bin4+3z4W7eOGraJlltUo+CQA21OMI+Z+sYHzfXoaVC9k+Y63DcHbsjtirasbcp6L4/b1NSPTTB4GwJ58CXKvhc5JKkAn+ghGNG3yBVuKRwg5bVH3KA7MWJrw0U0Nukjkp3DCumMUYC4fIYAkN8vWOz2PfSYaVTEIMlEA++ylb7eSoq6CqnrLbXTzUfKSeiOQx82QDkcD5gAB6egXQ0OQj6gTrbqIJrsi1p2/aajbEVZL5Pz0k0s9SahxJFKpfiixhcMPlTPf8ASPYxomgEbqeLDifj6/Q73wfZZeAan/HDts//AGls/wDu20cDfiCHoZ/+az5/ovcA9Nai9CVaSSrSSVH00kl4V8YlH+M/cZ/+8p/9c6xzvI73XmXVD/8ANl90pHCjJPXvonDZURZNBV7e2naElZj7YzpykFiQAC3t6nQjzRDfZYqyuMqQQewdMSiIINFWwNPVpWrNxX1IHtpaU4sqRb6mpoauOroqmamqIjlJYnKsp+xGiDaRsmfG7Uw0VOul/vlzV1uF2rKoSIsbrJJkMqsWVT9gxJ/U6Et3tTy508oIe7ZaZLzdTPJPJc6rzp40geQynLovHipP0HBcf9EaYgVuk3KnsuDjdfkFjd7pc7vOk90r6islReCNK/Liv0H0+ukQgmyZZyDIbpQuOR6aZV7VFQqFmOAOzp04JJoLJVBx6aSEmlkFGfrpzwhtXb5Rk6RCYbqyurBXHYIyNDzwiLSNiqZgiFmPED30gEgCTQWXRGkAhXS/D6olj2/FbIHeke5vMgrIZJuZwQvlEqpEY75EjHy9scaOIXZvhdHgyObjhgFar3F/QSLtWspqLctuqqmNZIaeqjeVCvIYDA+nv9cd50I5Cx8ciKVrnCxaZfEtKmOntsVSaipVmllhrKirM0kinhlcMiugBGeLD1Y40nXwtDqpI0trzNk2f8Ij4XSyUtoYQmSmavrGpxWQea00RCphAEB48ufqAGwrd4Gjad6CsdKeY4D/APY13SPRRsm54KWOGGrmStRBEzZSY+YAFJ91Y9Z+h0LgsZjHCUCr3/FHvEC2R2UGiSgmU1FQan4l2DIfzKUQ8FOAc5z/AFR17mMijvsVdz4hB8IHJu/2CvsmyC72K4M1A8y0s6So8EgWd2COTGoKkEcQW7K9gepIGjDSQlg47ZWOc4cb7c+yWbpOlTd6uUQCBpZnkEI/5vLE8f3ZxpGmrPlJkkLgKsp48SIpKGw0FtNihtarKWb4McoHYDiVd2UOZFIPqWB5HBIxo3NAF+a1+oWyFsejT51wfcqB4WUc89wqZ4LLQXNoVQKtV2VYkkKgKspZgpGWGBj1BxpmgAElQdLYXPJDA73/AGS1uGoae91lRUfEI8szEidcSAn2YD0I9NRAirVKdzpJXH9U77xinoNiUVH+CQ29JTGXlo8MjlVBxMzKG5HkrD5mXPQxjUgIdZHC1M0GPEYwso87fugfhvQyVl8kEVsoa8pFnjVseCMWVVYDiwLZIA5KV7ycYzpqCrdMjL5TTQ6h3QreE7TbnrXqKeopZXmx5M6BXjwB8uAAMADAx7AaDUCbCgzA4zOJFenkmO4Wn4PaMV5ktMshqaRafKPyipyQpWRhwBDMBnokZJyc9akD9+Fcmx9GM2Yt5Feg9VA8NKaGfc6LPQU1bEsLs6VIyigD1I4tn6eh9c+2o7pQ9KjbJkU4WKK0+Isobc7xvaGtTxL5MkJRVyyswBAVVXGMKCB2Fz2TqV1EnSOEGcdUpptEJpsfI7DmtsbtQmWheo86F5f8q/nCUdgCAqhBkZC5ZQQSc6VnYea0sffDMXG199+Un7OpErdwQ0ssHnJKkiuOZXiODZbIBPXr6H09NRkWCFlYEYkna1wsfgpPiDTUVvvDUNPaJ7Z5Mj8hJJzD8myvFsDKgYAPr9dEYywAKTOEYl0xsqr7/WyPWKhX/F/FcJbPVVcUE5kZYKo4kAcjm8fEgjLBSc5HEdAd6c7xkdldgY0YwkLCa32PPqQlPa1P8VuW305pVqvNqFTyWfiHyfTOOv10IAJ3WTiDVO0Ve6KeIVFRWesFBBaZaEKfNMryF1lVo0wUJUHH9LsZBYg4xpHz81d6jEyOQRRsIr1u0Q2naKar2ZWV89imr/hqksJIZcSFQYSwC8TkAdHv0kbA60TWjclS4kLX4peWWQdq+VpVoUWa+wcaTzg9UuKYnHMFx8n7/TQtasth1Sjbk8Jj8RbdRWYCihtMtKZCk/xDTeajqFYHi3EHs5JB9CPpoy5puhS0M/HbjhsYabO9qV4W08c1BeqgWKC6SxRq0LMiO8bcJD+zV1YFvlLYOAeGO8gaGMCyTwpulxB0chLNRFev5FJ97eKe7Vk8FMaOJ5nZICP5oEn5cfb6ajNVssmZwMp0ihfCfN/QwUO1KOkXbENF58SMKmBUYCReOeThA3LicYzg8s9kalYQWLa6kGwwtaI6sDfb9UO8JqOGpmukjWWnujRwKYvN4ngxLYChlILHAIzgfLg+umIc00o+kRteZNbNVBLO5Zoqu91dTBRNQxu+RAyhfLOBn5QAB3k4AAGcaUm5JWVkPDpXECt+E57waWn2rHBPb6n4eopoFpU5RtDROgjLEYUMrMp77759kkdDIPhC2M12iGnNNECuKCA+G0bT32b4dC0opJPLlWRUaBsgc1LK3zd8R1/Sz1jOmonhVemMuYgjsfko285/ir3l6KopqmOJY6j4hVEksi5BdgoAyRgdDvGfUnUsg+JVsyQOlJqvO0y0Zno9gUlQbbUSUUkE0UsULRskrO0gWaQFCwwVwCD15Y9M9sxnnwtJp0YYdpO4I7fidrQHw4jeXcT+TT+bIlNKVlDKDTnGPNHIEZGeuj2RjQtA7qp01rjNsL2/D1Vb7naovKrLRVNPUwReTUvUBRJPIrt+0PEAE4wuR68c6Rr5oOouHi1pojY3yfVNW3WmGwjbIC9EaqjlnM0csmaoAyZQniQiDy+wCAcjPZ07Tq2Wxjsd/t+kDYgnnlDfARkfxi26EGMVLdZzj9m2pMc/EFR6KAc5pAobr25rTXoCrSSVaSSs2kkvG/jZtmpg8RL1MZ4j51VJUDBP5WPLB69e9Y726JXHzXmfWGmHMlJ33tc9koHX1dT1pySs4OWHwrf1l04JOycbq3wrEgcl70iE4CyNDIP6Sd/c6YWi0lULfISAGQfx0qtEIyRazFpm/rR/xP8Au09FEIyVc2mcHt4j/wBo/wC7SNhS/Zn+YVC01AXPKL/SP+7TtcSl9kkPcK/4RPnHOP8A0j/u0+6f7I/zCt+ETlcl4/8ASP8Au0xs7JjiyDewqa1z9HlH2P6x/wB2lpUJiLQqFsmK55R+oH5j7/u0qQ6DaubXMPeL/SP+7TkFOYnDurfhswIHKP8A0j/u0+lBpJVjRSj3j9cep024TaViaGTo8k6+50VJUVY0b+zLoSkG2qNDJyxyT+J0xCINWS26Yjpox/2j/u0NEJwwlSqWO5QUs8VNWyQwSr+3jjmZVkH0YDo/v0+lTxiUWxjqBWEFtrI5FngmWKSNuSOjlWUj0IIHR0tKFsT2mwVnPa66WRp550kkc8mdpGZmP3JHehLaRPie74nmyttHSXWnDrS1xgEq8ZBFK6Bx9Dj1GnGynjgnaCGOq/UqP+DVK8SJIgc5BDHr+zRUVD9kkabsLdXUt2qV/wArr2qAnYEszuB+mdDotTPhnds91/MrGio7pApNLWmnD+oimdM/rjSIUbWzMJDHUtL2mqZ2d5Y2dmPJixJJ+vppaNlGYnk2SpFTT3WojWOor5JkyMLJM7gY9OjpqKkkE7h8br+ZWulpbhTSH4SsaFm6JjlZM/rjTudXChj8Rp+A0tFTR1BkM08wkkc8izMWJP3J9dBfZCWuJslb5fxKSmFPNXTSQDiFieZmQfTo9daJhIRF0rxpLtlqp4K2mZnp6loWIwWjkZTj9Rp7I3TRl7TbDSwqKapqJTUT1Blkc9tI5YnH1J0qpO7W/wCJ5sqQI7j8GYjWymAdeX5zccfTHpjSAcd7RkSmP723ktdNRVkTiWnqPKkHoySMp/iNC0lDGx7TbDSvU0NZPJ51RUmaQfLyklZjj9TozujeyRx+N1qQlNdEojSpXOtK7fNCJnCMfqV9DqPcKXwZwwgO+E9rK109qronE0FQsboch0lZWH6EDRboGY0o+JpAKvV0FxqmD1VWZ2UY5STOxA+gJ0gTe6kfjTPOp7r+vZZ00N2jpzHBcJIosnKJO6r369DrTJMgyANLX0PcqOKGphkWSOZUdGGGViCD7EadVRC5u4Kqsjr6kA1VXJP5fQ8yVmxn6Z0rsopBK777rVUr3CnVkpa2aAMckRysoJ++NMebQMklb8LXUFoFNLnmHAbOc8jnOnBpRAG7W6te4VShautnqAhyBLMzgfpnTWVLI6V333WrwPXUPI01XNT8wOXkysnLBOM4xn304SiMrPuOpaWp5pZC8kgd5GOWZiST9SffTDdCWucbJUqoW5y0wimr5ZIFAxG8rMox6YB61KWuHdSO8V3wvdY91jRR3CmLvSVbwMy/M0UrISPp1qMWniZK02x1LVPSVUkjSzTiR3f5mdixY/Uk+uk4E8pvCc/4id1ImS7PSinluMz0+Aoiad2QAenynrUdXyrRiyXR/f8Ah8rK10lPX01RmkqjBLj88cjKcH2yO9HwoxBNGdTXUfQlY1cFdPIJ6mpMznrnJIzN19zobKiljefiebKzSW5xUbQJXzpTgEGJZmCHPr8vpo0wfM1lB3w+S00gqqaQT0tQ8MgGA8blW/iNETYUcTnsOphoq9Y1XUv59XUyTuBjnJIWbH0ydR2hmdI46nmyt0UlxSieijrZkpZe3hWVhGx+6+h0N0l9pkbHQcdPlae/8Ha0Sy+LlolWSMCESSODnsCM+n3zjU8G8gWt/p+3Zo9LXscemtVehqtJJVpJL//Z;" vertex="1" parent="1">
          <mxGeometry x="-260" y="140" width="184.44" height="290" as="geometry" />
        </mxCell>
        <mxCell id="-84zILdERDt2CcozFYza-3" value="" style="endArrow=oval;html=1;fillColor=#e51400;strokeColor=#B20000;strokeWidth=3;startArrow=oval;startFill=1;endFill=1;" edge="1" parent="1">
          <mxGeometry width="50" height="50" relative="1" as="geometry">
            <mxPoint x="94.5" y="640" as="sourcePoint" />
            <mxPoint x="94.5" y="90" as="targetPoint" />
            <Array as="points" />
          </mxGeometry>
        </mxCell>
        <mxCell id="-84zILdERDt2CcozFYza-5" value="" style="endArrow=oval;html=1;fillColor=#e51400;strokeColor=#B20000;strokeWidth=3;startArrow=oval;startFill=1;endFill=1;" edge="1" parent="1">
          <mxGeometry width="50" height="50" relative="1" as="geometry">
            <mxPoint x="-400" y="60" as="sourcePoint" />
            <mxPoint x="20" y="160" as="targetPoint" />
            <Array as="points">
              <mxPoint x="20" y="60" />
            </Array>
          </mxGeometry>
        </mxCell>
        <mxCell id="-84zILdERDt2CcozFYza-6" value="Battery" style="rounded=1;whiteSpace=wrap;html=1;fillColor=#f5f5f5;strokeColor=#666666;fontColor=#333333;" vertex="1" parent="1">
          <mxGeometry x="60" y="20" width="130" height="60" as="geometry" />
        </mxCell>
        <mxCell id="-84zILdERDt2CcozFYza-7" value="" style="shape=trapezoid;perimeter=trapezoidPerimeter;whiteSpace=wrap;html=1;fixedSize=1;rotation=-180;fillColor=#e51400;strokeColor=#B20000;fontColor=#ffffff;" vertex="1" parent="1">
          <mxGeometry x="70" y="80" width="50" height="10" as="geometry" />
        </mxCell>
        <mxCell id="-84zILdERDt2CcozFYza-9" value="" style="shape=trapezoid;perimeter=trapezoidPerimeter;whiteSpace=wrap;html=1;fixedSize=1;rotation=-180;fontColor=#ffffff;fillColor=#000000;" vertex="1" parent="1">
          <mxGeometry x="130" y="80" width="50" height="10" as="geometry" />
        </mxCell>
        <mxCell id="-84zILdERDt2CcozFYza-10" value="STM32&lt;br&gt;Microcontroller" style="rounded=0;whiteSpace=wrap;html=1;fontColor=#ffffff;fillColor=#85DE85;strokeColor=#85DE85;" vertex="1" parent="1">
          <mxGeometry x="330" y="160" width="130" height="250" as="geometry" />
        </mxCell>
      </root>
    </mxGraphModel>
  </diagram>
</mxfile>
